<svg id="Layer_1" data-name="Layer 1" xmlns="http://www.w3.org/2000/svg" viewBox="0 0 132.16 191.08"><defs><style>.cls-1{fill:#edb2c2;}.cls-2{fill:#7c1214;}.cls-3{fill:#3c2415;}.cls-4{fill:#a97c50;}.cls-5{fill:#603913;}.cls-6{fill:#6d090e;}.cls-7{fill:#414042;}.cls-8{fill:#f7b658;}.cls-9{fill:#8b5e3c;}.cls-10{fill:#e29b3d;}.cls-11{fill:#231f20;}.cls-12{fill:#754c29;}.cls-13{fill:#edbecc;}.cls-14{fill:#f3ddc6;}.cls-15{fill:#ffde17;}.cls-16{fill:#be1e2d;}.cls-17{fill:#009444;}.cls-18{fill:#27aae1;}.cls-19{fill:#fff;}</style></defs><path class="cls-1" d="M14.55,40.63a1.53,1.53,0,0,1,1.19-.21A13,13,0,0,0,19,40.26,17.67,17.67,0,0,1,21,39.93a8.54,8.54,0,0,1,2.24.32,36.31,36.31,0,0,1,6.89,2.54c2.28,1.05,4.5,2.22,6.73,3.37l.06,0,.75.4a28.7,28.7,0,0,1,8.59,6.63C48.17,47.78,50.37,42,54.14,38c1.68-1.83,4.87-3.08,7.17-1.71,5.54,3.29.3,12.06-1.91,15.78a72.49,72.49,0,0,1-5.26,7.53c-1.49,1.91-3.12,4.69-5.6,5.38-3.07.83-5.38-1.46-7.53-3.29A77.8,77.8,0,0,1,33.36,54L33,53.55c-1.62-1.82-3.18-3.68-4.73-5.56a25.37,25.37,0,0,0-2.14-2.59,4.33,4.33,0,0,0-2.61-.93c-1.43-.12-2.86,0-4.28-.11a7.25,7.25,0,0,1-3.6-1.2,3.68,3.68,0,0,1-1-.82A1.36,1.36,0,0,1,14.55,40.63Z"/><path class="cls-2" d="M33,53.56l-.22.27a.22.22,0,0,0-.08.15.2.2,0,0,0,.08.12c1.13,1.14,2.27,2.28,3.48,3.32.81.69,1.62,1.34,2.38,2.07S40.19,61,41,61.64c2.15,1.83,4.46,4.12,7.53,3.29,2.48-.69,4.11-3.47,5.6-5.38A72.49,72.49,0,0,0,59.4,52c2.21-3.72,7.45-12.49,1.91-15.78-2.3-1.37-5.49-.12-7.17,1.71-3.77,4.09-6,9.83-7.84,15.27,0-.09-.57-.66-.65-.74q-.34-.39-.72-.75c-.49-.49-1-.95-1.54-1.4-1.15-.95-2.34-1.85-3.52-2.77a9,9,0,0,0-2-1.27,21.28,21.28,0,0,1-1.77,3.11c-.67,1-1.4,2-2.17,3,0,.17-.51.62-.62.75Z"/><path class="cls-1" d="M104.22,55c1.32-.22,2.66-.42,4-.62,2.88-.44,5.79-.79,8.64-1.4a2,2,0,0,0,1.75-1.36,5.6,5.6,0,0,1,.26-1c.09-.33.17-.66.25-1a11.37,11.37,0,0,1,.63-1.95,2.85,2.85,0,0,1,.48-.87c.21-.2.5-.33.73-.51a5.24,5.24,0,0,0,1.25-1.48,1,1,0,0,1,.26-.35.33.33,0,0,1,.41,0,.44.44,0,0,1,.1.22,3.57,3.57,0,0,1-.07,1.34,3.82,3.82,0,0,1-.2.84,10.34,10.34,0,0,1-.57.89,1.2,1.2,0,0,0-.15.3,1.19,1.19,0,0,0,0,.42,21.08,21.08,0,0,0,.31,2.74l.35,2.91c.16,1.29.31,2.58.46,3.87a9.4,9.4,0,0,1-2.85.1,7.27,7.27,0,0,0-3.36.37c-2.12.71-4.26,1.38-6.36,2.15-1.6.59-3.17,1.26-4.73,1.91A32.37,32.37,0,0,1,104.22,55Z"/><polygon class="cls-3" points="118.64 70.16 119.56 70.34 126.73 35.95 124.63 35.55 118.64 70.16"/><rect class="cls-4" x="124.31" y="35.39" width="2.77" height="0.57" rx="0.18" transform="translate(242.48 94.25) rotate(-169.21)"/><path class="cls-5" d="M125.94,31.42l-1-.18a.27.27,0,0,0-.32.22l-.51,2.73a.84.84,0,0,0,.59,1l2,.39h0a.84.84,0,0,0,.88-.73l.52-2.73a.27.27,0,0,0-.1-.27l-.06,0h0s0,0,0,.05l-.06.2,0,.12c0,.05,0,.08,0,.12a4.17,4.17,0,0,0,.08-.51l-.09,0-.3-.05-.52-.1a2,2,0,0,1-.26-.06s0,0,0,0,0,0,0,.07l0,.12c-.06.18-.12.36-.17.54a.46.46,0,0,1,0,.2,4.4,4.4,0,0,0,.12-.65,1.65,1.65,0,0,1,.07-.32Z"/><path class="cls-6" d="M85.35,48.77c1.27-3.18,2.69-6.27,4.19-9.34.28-.57,1-1.59,1.52-.75,1.51,2.42,3.43,4.54,4.93,7a58.15,58.15,0,0,0,4.69,7.17,3.05,3.05,0,0,0,2.85,1.24c1-.13,2-.17,3-.27,1.27-.13,2.54-.41,3.82-.44a21.87,21.87,0,0,0,1.24,8c-3,1.81-6.66,3.17-10.21,2.9a13.55,13.55,0,0,1-6.08-2.11c-3.84-2.38-6.75-6-9.42-9.6l-.31-.42a3.85,3.85,0,0,1-.73-1.27C84.62,50.06,85.08,49.44,85.35,48.77Z"/><path d="M60.85,184.05l-8.92-.17a2,2,0,0,1-.73-.65,2.17,2.17,0,0,1,.27-2,37.25,37.25,0,0,0,3-7.7c.17-.78.32-1.56.42-2.35h.13l4.68.31a7.82,7.82,0,0,0,1.08,0,77.92,77.92,0,0,0,.38,10.13,3.45,3.45,0,0,1-.32,2.41Z"/><path d="M75.2,173.34A1.58,1.58,0,0,1,76,172.1v-.19a4.63,4.63,0,0,1,.52.07h.08a1.27,1.27,0,0,1,.42.09l.38.07a24.3,24.3,0,0,0,2.82.2,11.91,11.91,0,0,0,3-.32l.18.19c.33.31.7.6,1,.87,2.75,2.14,5.73,5.21,9.42,5.55.83.07,2.16.39,1.31,1.47a.37.37,0,0,1-.13.12l0,0h-.15L84.06,180l-5.71-.12c-1,0-2.59.29-3.21-.68a5.25,5.25,0,0,1-.26-2.37A23.15,23.15,0,0,1,75.2,173.34Z"/><path class="cls-3" d="M78.81,17.3a3,3,0,0,1-.64-.86c-.31-.61-.61-1.28-1-1.94s-.73-1.12-1.08-1.69a4.33,4.33,0,0,0-2.61-1.69c-2.48-.48-4.8,1.32-6.56,3,.05.39.11.79.19,1.17A29.39,29.39,0,0,0,68.33,19a3.31,3.31,0,0,1,.15,2.06,10.08,10.08,0,0,1-.79,1.44,2.56,2.56,0,0,0,1.22,3.31,5.17,5.17,0,0,0,1.86.73,22.69,22.69,0,0,0,2.61.06A6.91,6.91,0,0,0,76,26.24,5.76,5.76,0,0,0,78.27,25c1.85-1.77,1.76-4.82.77-7.18C79,17.63,78.89,17.46,78.81,17.3Z"/><path class="cls-1" d="M85.14,35.9a.44.44,0,0,0-.13-.14L82.72,34a6.17,6.17,0,0,1-2.27-5c2.21-.27,3.07-2.28,3.69-4.24A20.2,20.2,0,0,0,85,20.61c0-.55.09-1.14.09-1.75a15.71,15.71,0,0,0-1.22-6.4,7,7,0,0,0-4.45-4.14,7.42,7.42,0,0,0-7.81,3,7.86,7.86,0,0,0-1.16,2.95c-.06.29-.29,3.53,0,3.54l-.1,0a1.51,1.51,0,0,0-.34.08,2.39,2.39,0,0,0-1.2,3.37,5.77,5.77,0,0,0,2.39,2.57c.28.17.6.28.84.46v.93a9.75,9.75,0,0,1-.6,3.38c-1.09,2.71-3.86,4.35-6,6.19a19.43,19.43,0,0,0,.38,3.8,8.92,8.92,0,0,0,2.1,4.3,7.76,7.76,0,0,0,4.44,2.15,10.68,10.68,0,0,0,5.11-.35,7.82,7.82,0,0,0,1.17-.44,7.92,7.92,0,0,0,3-2.62c1.26-1.76,1.49-3.83,3.22-5.28C85.05,36.25,85.22,36.07,85.14,35.9Z"/><path class="cls-3" d="M70.16,8.13a11.75,11.75,0,0,1,8.18-1.26,21,21,0,0,1,4.07,2,3,3,0,0,1,1.1,3.66A3.51,3.51,0,0,1,82,13.73l-.42-.06c-1.25-.28-2.32-1.07-3.58-1.33a6,6,0,0,0-3.8.35,4.31,4.31,0,0,0-1.41,1.09A3.15,3.15,0,0,0,72,14.89c-.11.41.23.59.52.79a1.77,1.77,0,0,1,.6.48,1.27,1.27,0,0,1,.09.9,16.62,16.62,0,0,1-.52,2c0,.12,0,.22,0,.33a2.88,2.88,0,0,0,.23,1,4.91,4.91,0,0,0,.92,1.21,3.83,3.83,0,0,0,2.44,1.3,1.52,1.52,0,0,0,.84-.12c.29-.14.51-.41.81-.53a1.87,1.87,0,0,1,1,0c1.24.2,2.49.37,3.73.59.4.08.57.17.87-.14.09-.09.16-.17.23-.23s.33-.25.72-.14l.25.08a.91.91,0,0,1,.19.13,1.07,1.07,0,0,1,.13.93,33.54,33.54,0,0,1-.84,3.7c-.19.64-.48,1.24-.7,1.86s-.33,1.26-.52,1.88a1.72,1.72,0,0,1-.25.55c-.33.46-1,.43-1.5.39a3,3,0,0,1-1.81-.74,9.28,9.28,0,0,0-2.14-1.55c-.71-.31-1.49-.54-2.21-.81a5.64,5.64,0,0,1-2.16-1.22,3.27,3.27,0,0,1-.76-1.39,9.21,9.21,0,0,1-.29-2.46s0,0,0-.06a20.15,20.15,0,0,0,0-3.56L71.77,20A9.36,9.36,0,0,0,69,17.57a6.16,6.16,0,0,1-.78-.75,5.43,5.43,0,0,1-1.18-2.22C66.36,11.82,67.74,9.48,70.16,8.13Z"/><path class="cls-2" d="M58.65,35.51c1.49-.52,3-1.09,4.47-1.55l.06,0c.71-.21,1.44-.43,2.14-.67l.93-.32c.2-.08.4-.14.59-.23s.64-.25,1-.38l.42.23c3.15,1.65,6.6,3.93,10.33,3.74a5.11,5.11,0,0,0,2.55-.77,4.16,4.16,0,0,0,1-.83c.11-.13.48-1,.55-1a.44.44,0,0,1,.37.07c.92.55,1.86,1,2.78,1.59l.09,0c1.22.74,2.43,1.46,3.63,2.17l1,.63a2.81,2.81,0,0,1,.85.67,1.87,1.87,0,0,1,.17.31,3.25,3.25,0,0,1,.22.92c.12.79.2,1.57.25,2.36.44,5.76-.64,11.52-1.26,17.25-.06.57-.11,1.13-.15,1.7s-.1,1.22-.13,1.84c-.07,1.54,0,3.09,0,4.65a.53.53,0,0,0-.09.23c-.3,3.1-.2,6.23-.42,9.33-.16.84-.34,1.67-.53,2.5L60,79.39c0-.22-.07-.44-.1-.67-.44-3.44-.46-6.9-1.12-10.31l0-.08c.21-2.33.49-4.66.61-7,0-.77.07-1.54.09-2.31a56.15,56.15,0,0,0-.5-8.5c-.47-3.47-1.34-6.89-1.57-10.39a15.35,15.35,0,0,0-.57-4C57.41,35.93,58,35.72,58.65,35.51Z"/><path class="cls-7" d="M54.23,142.51c.62-5,1.25-10.09,1.5-15.16s.06-9.92-.14-14.9a68.54,68.54,0,0,1,0-11.9c.27-2.11.74-4.19,1.06-6.29.21-1.35.43-2.69.69-4a18.56,18.56,0,0,1,.81-3.69c.09-.33.25-.71.37-1.09,3.36.46,6.78.68,10.16.92,6.72.49,13.48,1.07,20.21.55a14.49,14.49,0,0,0,.53,1.4,25.15,25.15,0,0,1,1.41,9.23c0,3.35-.12,6.7-.28,10-.31,6.9-.87,13.78-1.51,20.66-.34,3.74-.79,7.48-1.08,11.23,0,.34-.08.68-.1,1q-.89,8.82-1.71,17.65c-.19,2.08-.19,15.36-2,15.56a38.51,38.51,0,0,1-8,.14,1.68,1.68,0,0,1-1.1-.58c-1.91.11-2-1.51-1.78-3,.85-6.91.16-13.83.21-20.77,0-5,1.35-9.69,2-14.62.93-7-.2-14-.1-21-.06-1.32-.12-2.64-.17-4-.64,2.39-.93,5-1.45,7.33-1.41,6.36-2.84,12.77-4.55,19.06-3,12.55-3.53,25.5-6.08,38.16a2.89,2.89,0,0,1-.11.35c0,.44-.1.89-.14,1.34,0,.26-8.52-.08-9.46-.1-1.94,0-1.95-7-1.39-14.62C52.74,153.22,54,144.22,54.23,142.51Z"/><path class="cls-8" d="M54.12,96.57c.14-1.08.29-2.15.43-3.22.56-4.15,1-8.36,1.72-12.46.38-2,.76-4.09,1.15-6.14.31-1.69.28-4.49,1.1-6a39.48,39.48,0,0,0,2.64-5.92,34.55,34.55,0,0,0,2.35-7c.88-4.08,2.31-9.21.67-13.26A39.38,39.38,0,0,0,63.12,34l.06,0c.71-.21,1.44-.43,2.14-.67l.93-.32c.2-.08.4-.14.59-.23a5.07,5.07,0,0,1,.26.75,5.75,5.75,0,0,0,.14.59c.16.61.3,1.23.44,1.86.51,2.33.94,4.67,1.38,7A9.52,9.52,0,0,0,69.38,44a7.84,7.84,0,0,1,.33,1l.17,0c.25,0,.49,0,.74,0,.46,0,.91,0,1.36-.05,1.42,0,2.85,0,4.26.06,2.67.14,5.32.44,8,.83a75.75,75.75,0,0,1,1.56-10.5l.09,0c1.22.74,2.43,1.46,3.63,2.17a20.76,20.76,0,0,0-.32,3.52v.15c0,.23,0,.45,0,.68,0,.67,0,1.35-.07,2a34.71,34.71,0,0,0,.54,6,45.53,45.53,0,0,1,.26,5.73c0,3.35.15,6.69.32,10,.18,3.53,1.35,7.14,1.63,10.71S92,83.61,92,87.21c-.09,11.56-.3,23,.57,34.57a1.27,1.27,0,0,1-1.49,1.4,1.32,1.32,0,0,1-.72.35c-12.92,2.39-25.78,2.18-38.13-2.67a1.78,1.78,0,0,1-.48-.3,1.19,1.19,0,0,1-.67-1.31C52.06,111.69,53.1,104.13,54.12,96.57Z"/><path class="cls-9" d="M83.61,47.42l.06-2.73a1.17,1.17,0,0,1,1.19-1.15l3.79.07a1.17,1.17,0,0,1,1.15,1.2l0,2.73a1.17,1.17,0,0,1-1.2,1.15l-3.78-.07A1.19,1.19,0,0,1,83.61,47.42Zm1.24-3.15a.45.45,0,0,0-.45.43l-.05,2.73a.43.43,0,0,0,.43.45l3.79.08a.44.44,0,0,0,.44-.43l.06-2.73a.44.44,0,0,0-.43-.45Z"/><path class="cls-9" d="M63.81,47l0-2.73a1.18,1.18,0,0,1,1.2-1.15l3.78.08A1.17,1.17,0,0,1,70,44.42l0,2.73a1.17,1.17,0,0,1-1.2,1.15L65,48.23A1.17,1.17,0,0,1,63.81,47ZM65,43.89a.44.44,0,0,0-.45.43l0,2.73a.45.45,0,0,0,.43.45l3.79.07a.45.45,0,0,0,.45-.43l.05-2.73a.45.45,0,0,0-.43-.45Z"/><path class="cls-10" d="M55.54,97.07a8.17,8.17,0,0,0,3.75,2.16,24,24,0,0,0,15.55-.48c.41-6.68.61-13.42,1-20.1a54.39,54.39,0,0,1-17.49-1C57.53,84.15,56.66,90.65,55.54,97.07Z"/><path class="cls-11" d="M86.63,71.21a1.91,1.91,0,0,1-.42-1,5.33,5.33,0,0,1,0-1,2,2,0,0,0,0-.91,2,2,0,0,1-.23-.63s0-.22.07-.21.15.19.22.28a1,1,0,0,0,.31.25c.39.22.84.33,1.23.55a1.89,1.89,0,0,1,1,1.09A1.87,1.87,0,0,1,88.59,71c0,.08-.1.17-.16.25a.38.38,0,0,1-.3.2,1.76,1.76,0,0,1-.23,0,3.49,3.49,0,0,0-.56,0,.73.73,0,0,1-.46,0A1.09,1.09,0,0,1,86.63,71.21Z"/><polygon class="cls-12" points="89.48 97.54 90.16 97.48 88.41 71.53 86.83 71.66 89.48 97.54"/><rect class="cls-4" x="86.59" y="71.33" width="2.05" height="0.42" rx="0.18" transform="translate(180.97 135.41) rotate(175.15)"/><polygon class="cls-5" points="89.8 97.52 90.47 97.37 85.45 71.84 83.9 72.18 89.8 97.52"/><rect class="cls-4" x="83.64" y="71.75" width="2.05" height="0.42" rx="0.18" transform="translate(182.55 124.52) rotate(167.87)"/><path class="cls-11" d="M85.11,68.66a.21.21,0,0,1,.24.16l.43,2a.62.62,0,0,1-.41.76l-1.5.32a.62.62,0,0,1-.7-.52l-.43-2a.21.21,0,0,1,.16-.24Z"/><path class="cls-10" d="M92.63,78.71c-.31,6.74-.18,13.53-.07,20.27a13.53,13.53,0,0,1-7.62,0c-.08-6.61-.28-13.37-.47-20A17.46,17.46,0,0,0,92.63,78.71Z"/><path class="cls-13" d="M120.68,52.6a4.33,4.33,0,0,1,1.3-1.52,4.56,4.56,0,0,1,2.56-1.27c.38,0,.81-.09,1.06.29a2.48,2.48,0,0,1,.19,1.38c0,.68.41,1.14.32,1.84a2.43,2.43,0,0,0,0,1,3.17,3.17,0,0,1,.12.81c0,.69.19,1.28-.34,1.8a1.57,1.57,0,0,1-.94.81,9.35,9.35,0,0,1-2.55.58,2.79,2.79,0,0,1-1.08,0c-.46-.15-.54-.51-.6-.94-.11-.82-.19-1.65-.22-2.48A5.25,5.25,0,0,1,120.68,52.6Z"/><path class="cls-14" d="M7.66,41.4A21.54,21.54,0,0,0,20,45c2,0,4.5-.83,4.55-2.78A2.81,2.81,0,0,0,24,40.52a20.09,20.09,0,0,0-2.83-2.41c-.34-.31-1.25-1.28-.48-1.6,1.52-.64,2.4,1.63,3.82,1.66.71,0,1-.45.74-1a4,4,0,0,0-1.53-1.57,19.78,19.78,0,0,0-5.61-2.21C14.35,32.44,7.2,31.34,4.9,35,3.52,37.22,5.66,40,7.66,41.4Zm10.41-.47a1.5,1.5,0,0,1,3,.11v0a1.52,1.52,0,0,1-1.55,1.45A1.54,1.54,0,0,1,18.07,41Z"/><path class="cls-15" d="M14,42.71a3.06,3.06,0,0,1-1.61-.34,1.25,1.25,0,0,1-.52-.5.64.64,0,0,1,.06-.69c.27-.3.76-.17,1.16-.23s.68-.28,1-.34c.57-.08,1.85.44,2,1.06C16.43,42.68,14.55,42.7,14,42.71Z"/><path class="cls-16" d="M10.09,40.86a3.06,3.06,0,0,1-1.61-.34A1.25,1.25,0,0,1,8,40,.64.64,0,0,1,8,39.33c.27-.3.76-.17,1.17-.24s.67-.27,1-.33c.57-.08,1.85.44,2,1.06C12.57,40.83,10.69,40.85,10.09,40.86Z"/><path class="cls-17" d="M7.66,38.1a2.42,2.42,0,0,1-1.27-.28A.91.91,0,0,1,6,37.43a.5.5,0,0,1,0-.54c.22-.25.61-.14.93-.19s.53-.22.81-.26c.46-.07,1.47.34,1.62.83C9.62,38.07,8.14,38.09,7.66,38.1Z"/><path class="cls-18" d="M9,35.2c.25-.13.57-.19.72-.43A.64.64,0,0,0,9.45,34a1.7,1.7,0,0,0-.92-.19,1.32,1.32,0,0,0-.49.06,2.46,2.46,0,0,0-.27.17c-.23.13-.49.19-.71.32a.72.72,0,0,0-.43.6c0,.57.69.6,1.09.59A2.38,2.38,0,0,0,9,35.2Z"/><path class="cls-11" d="M13.87,33.73a.52.52,0,0,1,.19.6.66.66,0,0,1-.47.24l-.74.16a1.34,1.34,0,0,1-.35,0,1.37,1.37,0,0,1-.34-.07,1.66,1.66,0,0,1-.78-.45c-.59-.7.24-1.06.84-1.06A2.72,2.72,0,0,1,13.87,33.73Z"/><path class="cls-19" d="M17.54,34.15a1.58,1.58,0,0,1,.5.34.46.46,0,0,1,.14.2.41.41,0,0,1-.23.43,1.87,1.87,0,0,1-1.24.11,2.79,2.79,0,0,1-1.11-.31.82.82,0,0,1-.27-.25.67.67,0,0,1,.64-1,3.51,3.51,0,0,1,.63.19A7.66,7.66,0,0,1,17.54,34.15Z"/><path class="cls-1" d="M24.15,40.89a3,3,0,0,0-.2-.4,3.53,3.53,0,0,0-.6-.68A4.69,4.69,0,0,0,21.53,39a1.19,1.19,0,0,1-.74-.61,1,1,0,0,1-.09-1,.1.1,0,0,1,.14,0c1,.45,2.13.59,3.17,1,.54.19.85.72,1.2,1.13A10.07,10.07,0,0,1,26.34,41a2,2,0,0,1,.23.59A15.65,15.65,0,0,0,24.15,40.89Z"/><path class="cls-8" d="M65,15c.46-2.25,2.39-4.53,4-6.13l.63-.6,0,0c-.37-.41-.87-.68-1.28-1.06a.69.69,0,0,1-.27-.44c0-.28.28-.51.56-.51a1.25,1.25,0,0,1,.76.35,7,7,0,0,1,.95,1.08c3.18-2.67,7.4-4.49,11.5-3,2.08.73,3.75,2.66,3.12,5-.59,2.13-2.59,3.37-4.44,4.31a38.1,38.1,0,0,1-6.94,2.51c-2.09.6-4.4,1.41-6.6,1.12C65.16,17.24,64.78,16.2,65,15Z"/></svg>