<svg xmlns="http://www.w3.org/2000/svg" xmlns:xlink="http://www.w3.org/1999/xlink" viewBox="0 0 832.65 798.74"><defs><style>.cls-1{fill:url(#linear-gradient);}.cls-2{fill:url(#linear-gradient-2);}.cls-3{isolation:isolate;}.cls-4{fill:#161616;}.cls-5{fill:url(#linear-gradient-3);}.cls-6{fill:url(#linear-gradient-4);}.cls-7{fill:url(#linear-gradient-5);}.cls-8{fill:url(#linear-gradient-6);}.cls-9{fill:url(#linear-gradient-7);}.cls-10,.cls-43,.cls-44{mix-blend-mode:multiply;}.cls-10,.cls-44{opacity:0.3;}.cls-11{fill:url(#linear-gradient-8);}.cls-12{fill:url(#linear-gradient-9);}.cls-13{fill:url(#linear-gradient-10);}.cls-14{fill:url(#linear-gradient-11);}.cls-15{fill:url(#linear-gradient-12);}.cls-16{fill:url(#linear-gradient-13);}.cls-17{fill:url(#linear-gradient-14);}.cls-18{fill:url(#linear-gradient-15);}.cls-19{fill:url(#linear-gradient-16);}.cls-20{fill:url(#linear-gradient-17);}.cls-21{fill:url(#linear-gradient-18);}.cls-22{fill:url(#linear-gradient-19);}.cls-23{fill:url(#linear-gradient-20);}.cls-24{fill:url(#linear-gradient-21);}.cls-25{clip-path:url(#clip-path);}.cls-26,.cls-32,.cls-41{mix-blend-mode:soft-light;}.cls-26{opacity:0.5;}.cls-27,.cls-32,.cls-41{fill:#fff;}.cls-28{clip-path:url(#clip-path-2);}.cls-29{fill:#26264f;}.cls-30{fill:url(#linear-gradient-24);}.cls-31{fill:url(#linear-gradient-25);}.cls-32{opacity:0.48;}.cls-33{fill:url(#linear-gradient-26);}.cls-34{fill:url(#linear-gradient-27);}.cls-35{fill:url(#linear-gradient-28);}.cls-36{fill:#d8dee8;}.cls-37{fill:url(#linear-gradient-29);}.cls-38{fill:url(#linear-gradient-30);}.cls-39{fill:url(#linear-gradient-31);}.cls-40{fill:url(#linear-gradient-32);}.cls-42{fill:url(#linear-gradient-33);}.cls-43{fill:url(#linear-gradient-34);}.cls-44{fill:url(#linear-gradient-35);}</style><linearGradient id="linear-gradient" x1="155.51" y1="282.19" x2="342.63" y2="282.19" gradientUnits="userSpaceOnUse"><stop offset="0" stop-color="#aa80f9"/><stop offset="1" stop-color="#6165d7"/></linearGradient><linearGradient id="linear-gradient-2" x1="238.58" y1="278.8" x2="192.8" y2="401.68" gradientUnits="userSpaceOnUse"><stop offset="0" stop-color="#e38ddd"/><stop offset="1" stop-color="#9571f6"/></linearGradient><linearGradient id="linear-gradient-3" x1="2290.06" y1="1202.57" x2="2362.03" y2="1314.52" gradientTransform="matrix(0.98, -0.19, 0.19, 0.98, -2033.49, -434.43)" gradientUnits="userSpaceOnUse"><stop offset="0" stop-color="#fff"/><stop offset="1" stop-color="#f4f7fa"/></linearGradient><linearGradient id="linear-gradient-4" x1="3391.64" y1="788.79" x2="3452.2" y2="1093.16" gradientTransform="translate(-2821.41 -615.33)" gradientUnits="userSpaceOnUse"><stop offset="0" stop-color="#ffc444"/><stop offset="1" stop-color="#f36f56"/></linearGradient><linearGradient id="linear-gradient-5" x1="3372.61" y1="766.8" x2="3433.17" y2="1071.17" gradientTransform="matrix(1, 0, 0, 1, -2874.4, -637.83)" xlink:href="#linear-gradient-4"/><linearGradient id="linear-gradient-6" x1="3358.41" y1="769.04" x2="3418.96" y2="1073.4" gradientTransform="translate(-2927.38 -660.33)" xlink:href="#linear-gradient-4"/><linearGradient id="linear-gradient-7" x1="3348.4" y1="792.41" x2="3408.96" y2="1096.78" gradientTransform="translate(-2980.37 -682.83)" xlink:href="#linear-gradient-4"/><linearGradient id="linear-gradient-8" x1="2425.48" y1="1077.26" x2="2340.94" y2="1284.03" gradientTransform="translate(-705.66 -2009.84) rotate(34.82)" xlink:href="#linear-gradient-4"/><linearGradient id="linear-gradient-9" x1="2464.5" y1="1128.59" x2="2358.26" y2="1321.09" gradientTransform="translate(-2132.4 949.99) rotate(-40.04)" xlink:href="#linear-gradient-3"/><linearGradient id="linear-gradient-10" x1="6381.94" y1="-974.77" x2="6429.67" y2="-718.55" gradientTransform="matrix(1, 0, 0, 1, -5744.07, 1282.71)" xlink:href="#linear-gradient-2"/><linearGradient id="linear-gradient-11" x1="6368.68" y1="-972.3" x2="6416.41" y2="-716.08" gradientTransform="translate(-5815.15 1228.3)" xlink:href="#linear-gradient-2"/><linearGradient id="linear-gradient-12" x1="6355.42" y1="-969.83" x2="6403.15" y2="-713.61" gradientTransform="translate(-5886.24 1173.9)" xlink:href="#linear-gradient-2"/><linearGradient id="linear-gradient-13" x1="6333.42" y1="-1014.31" x2="6381.15" y2="-758.09" gradientTransform="translate(-5957.33 1119.49)" xlink:href="#linear-gradient-2"/><linearGradient id="linear-gradient-14" x1="2487.18" y1="1141.1" x2="2380.93" y2="1333.6" gradientTransform="translate(-705.66 -2009.84) rotate(34.82)" xlink:href="#linear-gradient-2"/><linearGradient id="linear-gradient-15" x1="2414.19" y1="1295.09" x2="2447.32" y2="1417.32" gradientTransform="translate(-1607.99 2259.29) rotate(-68.88)" xlink:href="#linear-gradient-3"/><linearGradient id="linear-gradient-16" x1="8157.21" y1="-3938.05" x2="8204.94" y2="-3681.82" gradientTransform="translate(-7503.26 4437.72)" gradientUnits="userSpaceOnUse"><stop offset="0" stop-color="#ff9085"/><stop offset="1" stop-color="#fb6fbb"/></linearGradient><linearGradient id="linear-gradient-17" x1="8141.03" y1="-3951.28" x2="8188.76" y2="-3695.05" gradientTransform="translate(-7574.81 4346.62)" xlink:href="#linear-gradient-16"/><linearGradient id="linear-gradient-18" x1="8126.06" y1="-3957.99" x2="8173.79" y2="-3701.75" gradientTransform="translate(-7646.35 4255.53)" xlink:href="#linear-gradient-16"/><linearGradient id="linear-gradient-19" x1="8109.9" y1="-3971.07" x2="8157.63" y2="-3714.84" gradientTransform="matrix(1, 0, 0, 1, -7717.9, 4164.44)" xlink:href="#linear-gradient-16"/><linearGradient id="linear-gradient-20" x1="2553.01" y1="1200.45" x2="2454.76" y2="1355.82" gradientTransform="translate(-705.66 -2009.84) rotate(34.82)" xlink:href="#linear-gradient-16"/><linearGradient id="linear-gradient-21" x1="3382.07" y1="1153.34" x2="3411.37" y2="1153.34" gradientTransform="matrix(0.06, 1, -1, 0.06, 1323.7, -3015.4)" xlink:href="#linear-gradient-2"/><clipPath id="clip-path"><path class="cls-1" d="M342.63,431.64c-14.45-13.55-33.51-35.57-42.14-66.7-11.31-40.83,5.26-61.47,3.4-130.59-1.19-43.71-2.45-74.2-24.49-90.51-17.26-12.78-45.22-15.32-62.19-3.47-14.1,9.85-22.26,30.8-24.75,45.75-2,12.19-.4,21-7.43,27.45-7.18,6.57-14.93,2.85-21.64,7.71-13.62,9.86-5.73,42.5-4.46,47.78,14.17,58.68,68.25,98.26,92,115.25A365.44,365.44,0,0,0,342.63,431.64Z"/></clipPath><clipPath id="clip-path-2"><path class="cls-2" d="M334.71,400.37c-28.09,13.75-65.84,27.28-107.74,28.28-10.7.26-76.76,1.84-82.25-26-1.93-9.79,5.28-14.95,2.93-28.09-2.8-15.56-14.72-18.27-28.93-32.5-8.47-8.49-33.29-33.34-23.35-58.5,5.93-15,24-29.5,41.22-33.33,25.24-5.63,43.68,12.7,74.34,44.26,27.18,28,28.26,37.54,48.18,57.34C273.9,366.57,297.43,385.28,334.71,400.37Z"/></clipPath><linearGradient id="linear-gradient-24" x1="105.35" y1="461.94" x2="526.97" y2="461.94" gradientUnits="userSpaceOnUse"><stop offset="0" stop-color="#444b8c"/><stop offset="1" stop-color="#26264f"/></linearGradient><linearGradient id="linear-gradient-25" x1="122.66" y1="459.17" x2="512.71" y2="459.17" xlink:href="#linear-gradient"/><linearGradient id="linear-gradient-26" x1="105.35" y1="624.06" x2="740.51" y2="624.06" xlink:href="#linear-gradient-24"/><linearGradient id="linear-gradient-27" x1="447.24" y1="196.2" x2="210.03" y2="686.77" gradientUnits="userSpaceOnUse"><stop offset="0" stop-color="#fff"/><stop offset="1" stop-color="#ebeff2"/></linearGradient><linearGradient id="linear-gradient-28" x1="355.94" y1="136.44" x2="254.28" y2="409.96" gradientTransform="matrix(1, 0, 0, 1, 0, 0)" xlink:href="#linear-gradient-16"/><linearGradient id="linear-gradient-29" x1="242.04" y1="349.37" x2="264.81" y2="411.05" gradientTransform="matrix(1, 0, 0, 1, 0, 0)" xlink:href="#linear-gradient-16"/><linearGradient id="linear-gradient-30" x1="235.96" y1="351.52" x2="258.65" y2="413" gradientTransform="matrix(1, 0, 0, 1, 0, 0)" xlink:href="#linear-gradient-16"/><linearGradient id="linear-gradient-31" x1="242.07" y1="386.69" x2="264.69" y2="447.97" gradientTransform="matrix(1, 0, 0, 1, 0, 0)" xlink:href="#linear-gradient-16"/><linearGradient id="linear-gradient-32" x1="236.02" y1="388.95" x2="258.57" y2="450.03" gradientTransform="matrix(1, 0, 0, 1, 0, 0)" xlink:href="#linear-gradient-16"/><linearGradient id="linear-gradient-33" x1="1848.1" y1="2043.5" x2="1870.17" y2="2125.67" gradientTransform="matrix(1, -0.09, 0.09, 1, -1499.2, -1240.6)" xlink:href="#linear-gradient-4"/><linearGradient id="linear-gradient-34" x1="1955.7" y1="2095.67" x2="1958.8" y2="2095.67" gradientTransform="matrix(1, 0, 0, 1, -1315.16, -1429.05)" xlink:href="#linear-gradient"/><linearGradient id="linear-gradient-35" x1="1848.03" y1="2043.25" x2="1870.15" y2="2125.61" gradientTransform="matrix(1, -0.09, 0.09, 1, -1499.2, -1240.6)" gradientUnits="userSpaceOnUse"><stop offset="0" stop-color="#f36f56"/><stop offset="1" stop-color="#ffc444"/></linearGradient></defs><g class="cls-3"><g id="Illustration"><path class="cls-4" d="M729.81,281.76C675.15,106.29,452,33.81,297.12,76.25,280.37,80.84,140.82,121.42,98,248.07,95.84,254.4,55.77,378.48,124.52,452c50.85,54.37,120.93,37.95,148.67,92.89,24.17,47.87-17.6,83,4.59,114.83,33.81,48.52,179.89,37.62,281.25-20C663.69,580.22,778.5,438.05,729.81,281.76Z"/><rect class="cls-5" x="416.63" y="154.42" width="137.78" height="374.01" transform="translate(393.99 -245.03) rotate(46.01)"/><rect class="cls-6" x="532.17" y="211.67" width="103.92" height="62.92" transform="translate(353.4 -346.01) rotate(46.01)"/><rect class="cls-7" x="479.19" y="262.81" width="103.92" height="62.92" transform="translate(374.01 -292.26) rotate(46.01)"/><rect class="cls-8" x="426.2" y="313.96" width="103.92" height="62.92" transform="translate(394.62 -238.51) rotate(46.01)"/><rect class="cls-9" x="373.21" y="365.1" width="103.92" height="62.92" transform="translate(415.23 -184.76) rotate(46.01)"/><g class="cls-10"><path class="cls-11" d="M667.92,261.12l-50.87-52.7c-3.26,14.66-9.39,30-20.52,43.45-21.19,25.66-45.5,26.57-82.25,49.23-38.37,23.66-49.06,45.59-78.53,76.88-21.49,22.82-53.17,50.82-100.08,77.46l63.14,65.42Z"/></g><rect class="cls-12" x="445.65" y="215.11" width="137.78" height="374.01" transform="translate(768.31 -199.59) rotate(74.86)"/><rect class="cls-13" x="596.38" y="332.14" width="103.92" height="62.92" transform="translate(829.97 -357.21) rotate(74.86)"/><rect class="cls-14" x="525.29" y="351.37" width="103.92" height="62.92" transform="translate(796.02 -274.37) rotate(74.86)"/><rect class="cls-15" x="454.2" y="370.61" width="103.92" height="62.92" transform="translate(762.07 -191.54) rotate(74.86)"/><rect class="cls-16" x="383.12" y="389.84" width="103.92" height="62.92" transform="translate(728.12 -108.71) rotate(74.86)"/><g class="cls-10"><path class="cls-17" d="M713.05,419.77l-23.7-87.59c-15,19.29-30.13,28-42.23,32.29-34,12.07-54.29-6.94-98.89,1.13-41.82,7.56-59.22,30.65-87.45,47.7-26.86,16.22-67.51,29.38-131,22.12l22.2,82Z"/></g><rect class="cls-18" x="450.87" y="292.08" width="137.78" height="374.01" transform="translate(1108.34 87.64) rotate(103.7)"/><rect class="cls-19" x="603.57" y="478.44" width="103.92" height="62.92" transform="translate(1306.23 -6.17) rotate(103.7)"/><rect class="cls-20" x="532.03" y="460.99" width="103.92" height="62.92" transform="translate(1200.78 41.76) rotate(103.7)"/><rect class="cls-21" x="460.48" y="443.54" width="103.92" height="62.92" transform="translate(1095.33 89.69) rotate(103.7)"/><rect class="cls-22" x="388.93" y="426.09" width="103.92" height="62.92" transform="translate(989.88 137.62) rotate(103.7)"/><g class="cls-10"><path class="cls-23" d="M685.11,590.32l20.95-85.9c-29.28,16.8-51.36,18-66.62,15.71-35.65-5.41-44.57-31.75-87.69-45.71-40.44-13.09-66.68-1-99.62.73-29.2,1.5-67.7-5-115.28-35.34l-15.1,61.9Z"/></g><circle class="cls-24" cx="365.9" cy="441.57" r="14.65" transform="translate(-199.48 345.58) rotate(-40.72)"/><path class="cls-1" d="M342.63,431.64c-14.45-13.55-33.51-35.57-42.14-66.7-11.31-40.83,5.26-61.47,3.4-130.59-1.19-43.71-2.45-74.2-24.49-90.51-17.26-12.78-45.22-15.32-62.19-3.47-14.1,9.85-22.26,30.8-24.75,45.75-2,12.19-.4,21-7.43,27.45-7.18,6.57-14.93,2.85-21.64,7.71-13.62,9.86-5.73,42.5-4.46,47.78,14.17,58.68,68.25,98.26,92,115.25A365.44,365.44,0,0,0,342.63,431.64Z"/><g class="cls-25"><g class="cls-26"><path class="cls-27" d="M359.06,442.68c-25.21-9.58-46.9-21-64.49-34-26.05-19.19-42.28-41.26-48.23-65.57-4.65-19-2.93-39.58-.75-65.62,1.81-21.6,5-36.72,7.89-50.07,3.68-17.26,6.59-30.89,4.57-50.59-2.05-20-8.65-39.93-19.63-59.18l1.4-.8c11.09,19.44,17.76,39.57,19.84,59.81,2,20-.89,33.7-4.6,51.1-2.84,13.3-6.06,28.37-7.86,49.85-2.25,26.92-3.88,46.37.71,65.12,5.86,23.93,21.88,45.69,47.62,64.65,17.47,12.88,39,24.23,64.11,33.76Z"/><path class="cls-27" d="M247.6,262.74l-.26-.88c-11.6-38.94-32.42-63.32-47.85-76.91-16.72-14.73-30.88-20.32-31-20.37l.58-1.51c.14.06,14.52,5.73,31.45,20.62,15.49,13.63,36.35,38,48.12,76.81A103.7,103.7,0,0,0,276.15,240c13-13.39,28.67-36.78,29.51-72.1l1.61,0c-.85,35.87-16.79,59.63-30,73.24-14.33,14.74-28.68,21.1-28.82,21.16Z"/><path class="cls-27" d="M244.59,320.92l-.57-.16c-19-5.59-40.63-27.48-64.18-65a522.07,522.07,0,0,1-29.69-54.8l1.47-.67c.47,1,47.89,105,92.3,118.8a298.88,298.88,0,0,1,32.36-38.42c9.66-9.48,26-15.62,37.94-19.1a195.26,195.26,0,0,1,23.86-5.32l.22,1.6c-.42.06-42.82,6.23-60.89,24a296.11,296.11,0,0,0-32.49,38.67Z"/><path class="cls-27" d="M288.12,403.52l-1.6-.19c-.21,0-21.59-2.65-49.5-12.38-25.76-9-62.55-26-91.47-56.3L89.78,276.3,91,275.18l55.77,58.36c28.69,30,65.21,46.95,90.8,55.88a271.72,271.72,0,0,0,47.6,12.09c-10.64-19.63-8.65-41,5.8-61.85a116.17,116.17,0,0,1,26-26.42l.92,1.33a114.45,114.45,0,0,0-25.61,26.05c-14.6,21.11-16.25,41.8-4.91,61.5Z"/></g></g><path class="cls-2" d="M334.71,400.37c-28.09,13.75-65.84,27.28-107.74,28.28-10.7.26-76.76,1.84-82.25-26-1.93-9.79,5.28-14.95,2.93-28.09-2.8-15.56-14.72-18.27-28.93-32.5-8.47-8.49-33.29-33.34-23.35-58.5,5.93-15,24-29.5,41.22-33.33,25.24-5.63,43.68,12.7,74.34,44.26,27.18,28,28.26,37.54,48.18,57.34C273.9,366.57,297.43,385.28,334.71,400.37Z"/><g class="cls-28"><g class="cls-26"><path class="cls-27" d="M334.05,400.15c-30.9,0-62.38-8.16-94-24.41-46-23.64-80.76-58.49-101.83-83.56-14.69-17.49-24.34-40-28.66-67l1.59-.25c4.28,26.64,13.8,48.91,28.31,66.17,21,25,55.57,59.65,101.32,83.16,43.92,22.58,87.55,29.42,129.68,20.36,31.62-6.81,61.29-22,88.17-45l1.05,1.22c-27.09,23.23-57,38.49-88.88,45.36A174.42,174.42,0,0,1,334.05,400.15Z"/><path class="cls-27" d="M185.89,339l-.72-.09c-79.8-10.06-101-55.65-105.58-69.39-.09-.25-.14-.42-.17-.5l1.45-.7c0,.08.12.32.25.69,4.5,13.47,25.25,58.08,103.52,68.21,1.33-6.48,10.13-55.68-19.6-90.51l1.22-1c32.26,37.79,19.93,92.09,19.8,92.63Z"/><path class="cls-27" d="M166.29,400.88q-3.45,0-6.48-.23c-19.2-1.37-30.08-8.17-30.53-8.46l.86-1.36c.11.06,11.07,6.9,29.89,8.22,17.32,1.22,45-2.12,78.8-24.85-.12-4.54-2-44.39-26.51-86.92l-26.38-45.69,1.39-.8,26.39,45.69c26.19,45.34,26.73,87.72,26.74,88.14v.43l-.36.24C209.67,395.88,184,400.88,166.29,400.88Z"/></g></g><path class="cls-29" d="M740.51,619.44,105.35,614v16c0,4.35,2.77,8.05,6.52,8.71l179.6,31.54a25.84,25.84,0,0,0,6.45.3l435.69-36c3.89-.32,6.9-4,6.9-8.5Z"/><path class="cls-29" d="M510,593.76l-398.1,29.31C104.79,623.59,99,618,99,610.62V314.17a13.17,13.17,0,0,1,12.91-13.4H510c5.87,0,10.62,5.43,10.62,12.11v268C520.63,587.56,515.88,593.33,510,593.76Z"/><path class="cls-30" d="M516.36,593.76l-398.1,29.31c-7.12.52-12.91-5.05-12.91-12.45V314.17a13.17,13.17,0,0,1,12.91-13.4h398.1c5.87,0,10.61,5.43,10.61,12.11v268C527,587.56,522.23,593.33,516.36,593.76Z"/><path class="cls-31" d="M504,574.87,133.17,600.33a9.9,9.9,0,0,1-10.51-10.22V330.57a10.8,10.8,0,0,1,10.51-11L504,318c4.84,0,8.75,4.43,8.75,9.93v236.4C512.71,569.81,508.8,574.54,504,574.87Z"/><path class="cls-27" d="M331.37,308.88a4.6,4.6,0,1,1-4.58-5A4.8,4.8,0,0,1,331.37,308.88Z"/><path class="cls-32" d="M118.26,623.07l396.08-29.16,2-.15a10.64,10.64,0,0,0,7-3.54c-28.5-1.56-46.21-11.68-57.63-22.13-22.93-21-18.95-41.69-43.68-55.49-30.85-17.21-55.1,4.6-78.51-16.92-14.19-13-7.23-22.77-24.69-42.27-19.34-21.59-31.93-14.33-51.37-33.77C242.92,395.07,255.21,376,234,358.31c-25.68-21.41-53.38-1.6-77.83-22.12-10.54-8.86-16.33-21.73-19.35-35.42h-18.6a13.17,13.17,0,0,0-12.91,13.4V610.62C105.35,618,111.14,623.59,118.26,623.07Z"/><path class="cls-33" d="M532.23,592.14,105.35,623l186.12,32.69a25.37,25.37,0,0,0,6.45.29l442.59-36.53L539,592.35A33.54,33.54,0,0,0,532.23,592.14Z"/><polygon class="cls-29" points="167.63 623.25 523.02 597.19 633.01 611.86 280.69 639.72 167.63 623.25"/><path class="cls-34" d="M565.79,514.09c0,32.8-26.76,61.09-60.22,63.21L132.78,601h0c39.42-2.5,70.9-33.33,70.9-68.9V123L565.79,136.8Z"/><path class="cls-35" d="M394,228.92c0,37.05-31.46,67.05-70.88,67C283,295.89,250,264.84,250,226.6s33.05-68.22,73.17-67C362.58,160.86,394,191.87,394,228.92Z"/><polygon class="cls-36" points="542.36 227.25 412.14 225.03 412.14 202.39 542.36 205.28 542.36 227.25"/><polygon class="cls-36" points="542.36 245.39 412.14 243.71 412.14 232.4 542.36 234.4 542.36 245.39"/><polygon class="cls-36" points="542.36 263.53 412.14 262.4 412.14 251.09 542.36 252.55 542.36 263.53"/><polygon class="cls-36" points="542.36 360.8 262.21 364.68 262.21 353.44 542.36 350.24 542.36 360.8"/><polygon class="cls-37" points="239.35 365 252.04 364.82 252.04 353.55 239.35 353.7 239.35 365"/><polygon class="cls-36" points="542.36 378.23 262.21 383.24 262.21 372 542.36 367.67 542.36 378.23"/><polygon class="cls-38" points="239.35 383.65 252.04 383.42 252.04 372.16 239.35 372.35 239.35 383.65"/><polygon class="cls-36" points="542.36 395.66 262.21 401.8 262.21 390.56 542.36 385.1 542.36 395.66"/><polygon class="cls-39" points="239.35 402.31 252.04 402.03 252.04 390.76 239.35 391.01 239.35 402.31"/><polygon class="cls-36" points="542.36 413.09 262.21 420.37 262.21 409.12 542.36 402.53 542.36 413.09"/><polygon class="cls-40" points="239.35 420.96 252.04 420.63 252.04 409.36 239.35 409.66 239.35 420.96"/><polygon class="cls-36" points="542.36 447.95 239.35 458.27 239.35 446.97 542.36 437.39 542.36 447.95"/><polygon class="cls-36" points="542.36 465.38 239.35 476.92 239.35 465.63 542.36 454.82 542.36 465.38"/><polygon class="cls-36" points="542.36 482.81 239.35 495.58 239.35 484.28 542.36 472.25 542.36 482.81"/><polygon class="cls-36" points="542.36 500.24 239.35 514.23 239.35 502.93 542.36 489.68 542.36 500.24"/><path class="cls-27" d="M345.4,267.55,339,246.45l-32.76-.16-6.57,21.26H278.78L310.89,178l23.3.47,31.43,89.1Zm-11-36.9q-9-28.83-10.14-32.63c-.76-2.53-1.3-4.52-1.63-6q-2,7.75-11.64,38.42Z"/><path class="cls-36" d="M709.32,676l-97,8.95a5,5,0,0,1-5.44-4.52h0a5,5,0,0,1,4.52-5.44l97-9a5,5,0,0,1,5.44,4.52h0A5,5,0,0,1,709.32,676Z"/><path class="cls-36" d="M713.64,652.26h20.58a1.38,1.38,0,0,1,1.38,1.38v9.47a1.38,1.38,0,0,1-1.38,1.38H713.64a0,0,0,0,1,0,0V652.26A0,0,0,0,1,713.64,652.26Z" transform="translate(-57.4 69.32) rotate(-5.27)"/><path class="cls-29" d="M342.63,696.24l-9.05.83a1.86,1.86,0,0,1-2-1.67h0a1.87,1.87,0,0,1,1.68-2l9.05-.83Z"/><path class="cls-36" d="M337.23,694.87h0a4,4,0,0,0,3.5,3.57l38.44,4.3L377,679.48l-37,11.25A4,4,0,0,0,337.23,694.87Z"/><path class="cls-41" d="M339.56,693h0c0,.51,1.4.83,3.23.77l37.64-4.54-.59-6.37-37.24,8.8C340.78,692,339.51,692.52,339.56,693Z"/><path class="cls-42" d="M716,671.25,378.26,702.82c-6.42.59-8.57-22.67-2.14-23.26L713.81,648a7,7,0,0,1,7.57,6.29l.87,9.39A7,7,0,0,1,716,671.25Z"/><polygon class="cls-41" points="641.17 664.55 375.71 689.47 375.2 683.99 640.66 659.07 641.17 664.55"/><rect class="cls-43" x="640.46" y="654.66" width="3.1" height="23.45" transform="translate(-58.44 61.73) rotate(-5.27)"/><rect class="cls-41" x="711.3" y="648.12" width="3.1" height="23.45" transform="translate(-57.56 68.22) rotate(-5.27)"/><path class="cls-44" d="M713.81,648,552,663.34c-18.44,17-31.31,19.69-40.23,18.11-6.19-1.1-14.19-4.94-26.47-3.11-11.86,1.77-12.51,6.56-22.17,6.87-14.32.46-19.24-9.86-29.93-6.67-5.75,1.72-4.84,4.85-12.79,9.67-2.95,1.79-15.24,9.23-29.33,5.79a34.08,34.08,0,0,1-17.87-11.54c-2.42,6.34,0,20.83,5.07,20.36L716,671.25a7,7,0,0,0,6.3-7.58l-.87-9.39A7,7,0,0,0,713.81,648Z"/></g></g></svg>