<svg id="Capa_2" data-name="Capa 2" xmlns="http://www.w3.org/2000/svg" viewBox="0 0 1806.56 1806.56"><defs><style>.cls-1{fill:none;}.cls-2{fill:#50424b;}.cls-3{fill:#ca8d57;}.cls-4{fill:#fedfc8;}.cls-5{fill:#faae6b;}.cls-6{fill:#3b3037;}.cls-7{fill:#5b2f36;}.cls-8{fill:#cbaf87;}.cls-9{fill:#e8cda9;}.cls-10{fill:#1d1119;}.cls-11{fill:#eac39e;}.cls-12{fill:#fff;}.cls-13{fill:#ffe4c8;}</style></defs><polygon class="cls-1" points="1599.09 292.84 1586.69 280.44 1523.93 334.65 1528.17 338.89 1528.8 339.51 1528.79 339.51 1540.61 351.33 1599.09 292.84"/><path class="cls-1" d="M1530.71,361.23l1.86-1.87-11.76-11.76-14.17,14.33a17.49,17.49,0,0,0,24.07-.7Z"/><path class="cls-1" d="M1441.56,272.08a17.53,17.53,0,0,0-1.26,23.38l14.46-13.92-11.33-11.33Z"/><polygon class="cls-1" points="1522.58 333.3 1585.33 279.09 1578.56 272.32 1534.5 307.48 1515.63 326.35 1522.58 333.3"/><path class="cls-1" d="M1447.3,300.85l12.83-13.93-4-4L1441.51,297a.81.81,0,0,1,.09.1A17.57,17.57,0,0,0,1447.3,300.85Z"/><polygon class="cls-1" points="1523.91 217.67 1509.94 203.7 1451.46 262.18 1462.94 273.66 1462.96 273.65 1462.96 273.65 1463.7 274.43 1467.84 278.56 1523.91 217.67"/><polygon class="cls-1" points="1546.64 295.35 1577.2 270.95 1574.12 267.87 1546.64 295.35"/><path class="cls-1" d="M1688.29,203.64a17.72,17.72,0,0,0,0-25,17.67,17.67,0,0,0-25,0l-10,10,25,25Z"/><polygon class="cls-1" points="1582.15 259.84 1586.13 263.82 1656.39 207.74 1645.32 196.67 1582.15 259.84"/><polygon class="cls-1" points="1469.19 279.91 1476.43 287.15 1494.69 268.9 1531.1 224.86 1525.27 219.02 1469.19 279.91"/><path class="cls-1" d="M1505.73,336.25A17.83,17.83,0,0,0,1500.9,352L1514,340.75l-6.36-6.36Z"/><path class="cls-1" d="M1466.53,297.06l1.87-1.87-6.92-6.92-12.15,13.2a17.8,17.8,0,0,0,4.74.73A17.59,17.59,0,0,0,1466.53,297.06Z"/><polygon class="cls-1" points="1594 271.6 1594.62 272.31 1607.12 284.81 1670.29 221.64 1657.75 209.1 1587.49 265.18 1593.95 271.64 1594 271.6"/><polygon class="cls-1" points="1532.99 210.63 1532.97 210.66 1538.37 216.06 1595.55 146.9 1581.15 132.5 1517.97 195.66 1532.27 209.96 1532.99 210.63"/><path class="cls-1" d="M1501.48,354a17.6,17.6,0,0,0,3.78,6.56l14.19-14.36-4.14-4.14Z"/><polygon class="cls-1" points="1539.73 217.42 1542.94 220.64 1606.12 157.47 1596.91 148.25 1539.73 217.42"/><path class="cls-1" d="M1604.24,139.39l-.06.07,10,10,10-10a17.71,17.71,0,0,0,5.18-12.51,17.64,17.64,0,0,0-30.14-12.46l-10,10,14.32,14.32Z"/><polygon class="cls-1" points="1508.99 254.59 1534.91 228.67 1532.45 226.21 1508.99 254.59"/><path class="cls-2" d="M1563.06,98.35a38.76,38.76,0,0,1-4,4.67,42.42,42.42,0,0,1-3.95,3.48l7.06,7.06,8-8Z"/><polygon class="cls-2" points="1602.76 138.17 1602.76 138.17 1603.49 138.78 1589.18 124.46 1581.15 132.5 1595.55 146.9 1602.76 138.17"/><path class="cls-2" d="M1687.93,239.28l2.81,2.82a41.27,41.27,0,0,1,3.48-4,39,39,0,0,1,4.68-4l-2.94-2.93Z"/><polygon class="cls-2" points="1678.32 213.61 1653.36 188.64 1645.32 196.67 1656.39 207.74 1663.67 201.93 1663.67 201.94 1664.86 203.43 1657.75 209.1 1670.29 221.64 1678.32 213.61"/><polygon class="cls-2" points="1596.91 148.25 1606.12 157.47 1614.15 149.44 1604.18 139.46 1596.91 148.25"/><polygon class="cls-2" points="1595.25 273.04 1586.69 280.44 1599.09 292.84 1607.12 284.81 1594.62 272.31 1595.25 273.04"/><polygon class="cls-2" points="1593.95 271.64 1587.49 265.18 1578.56 272.32 1585.33 279.09 1593.95 271.64"/><path class="cls-2" d="M1619.6,313.35a42.4,42.4,0,0,1,3.72-4.32,41,41,0,0,1,4.31-3.71l-2.87-2.87-8,8Z"/><polygon class="cls-2" points="1532.45 226.21 1534.91 228.67 1542.94 220.64 1539.73 217.42 1532.45 226.21"/><polygon class="cls-2" points="1532.27 209.96 1517.97 195.66 1509.94 203.7 1523.91 217.67 1531.59 209.34 1532.27 209.96"/><polygon class="cls-2" points="1574.12 267.87 1577.2 270.95 1586.13 263.82 1582.15 259.84 1574.12 267.87"/><path class="cls-2" d="M1491.92,169.61a41,41,0,0,1-3.71,4.31,40.28,40.28,0,0,1-4.33,3.72l7.13,7.13,8-8Z"/><polygon class="cls-2" points="1525.27 219.02 1531.1 224.86 1538.37 216.06 1532.97 210.66 1525.27 219.02"/><polygon class="cls-2" points="1467.84 278.56 1463.7 274.43 1464.28 275.03 1456.11 282.89 1460.13 286.92 1467.84 278.56"/><polygon class="cls-2" points="1443.43 270.21 1454.76 281.54 1462.94 273.66 1451.46 262.18 1443.43 270.21"/><polygon class="cls-2" points="1540.61 351.33 1528.79 339.51 1520.81 347.6 1532.57 359.36 1540.61 351.33"/><polygon class="cls-2" points="1515.31 342.1 1519.45 346.24 1527.43 338.16 1527.43 338.16 1528.17 338.89 1523.93 334.65 1515.31 342.1"/><path class="cls-2" d="M1425.41,236.13a39.81,39.81,0,0,1-3.71,4.29,39.29,39.29,0,0,1-4.33,3.73l7.12,7.13,8-8Z"/><polygon class="cls-2" points="1476.43 287.15 1469.19 279.91 1461.48 288.27 1468.4 295.19 1476.43 287.15"/><path class="cls-2" d="M1553.09,379.88a39.38,39.38,0,0,1,3.73-4.34,41,41,0,0,1,4.29-3.71l-2.87-2.86-8,8Z"/><polygon class="cls-2" points="1507.6 334.39 1513.95 340.75 1522.58 333.3 1515.63 326.35 1507.6 334.39"/><path class="cls-3" d="M975.64,996.25c17.78,24.78,35.66,60.26,35.67,102.87,0,33.47-11.1,71.22-41.63,111.16s-80.4,82.19-158,125.07l-.39.22-.36.07-.08,0-.58.23a13.59,13.59,0,0,0-2.66,1.65c-2.35,1.8-5.77,5.25-9.5,11.8-7.47,13.09-16.09,38.59-19.55,87.21v.11l0,.12c0,.14-6.39,42.06-26.77,94.54S697,1646.88,640.59,1689.14c-37.55,28.17-84.93,47-144,47-45.44,0-97.78-11.08-158-37.35C235.43,1653.74,144.75,1563,99.82,1460c-26.28-60.23-37.36-112.57-37.36-158,0-59.11,18.8-106.49,47-144s65.62-65.37,103-85.77c74.73-40.78,149.19-52.07,149.38-52.11l.12,0H362c47.11-3.35,72.5-11.54,85.94-18.84s14.94-13.5,15-13.52l.08-.37.21-.38c42.89-77.66,85.11-127.54,125.07-158.06S666,787.24,699.44,787.25c42.62,0,78.1,17.89,102.89,35.68a218.75,218.75,0,0,1,38.18,34.58l6-5.69-.91-.92-.1-.12-.15-.19-.5-.59c-.44-.52-1.11-1.3-2-2.3-1.77-2-4.4-4.85-7.83-8.29a242.48,242.48,0,0,0-29.72-25.23c-25.55-18.37-61.79-36.61-104.7-36.6-33.29,0-70.73,10.91-110.82,41.61S507.15,900.33,464,979.35c-.64,2.11-3.8,9.29-16.92,16.63-14.73,8.28-41.91,17-92.82,20.23l-1.86.29c-1.26.2-3.13.52-5.54,1-4.83.89-11.83,2.28-20.52,4.31a543,543,0,0,0-68.13,20.78c-53.45,20.24-117.44,54.65-159.88,110.88-28.3,37.49-47.14,84.62-47.15,144.16,0,46.81,11.68,101.32,39.82,164.74,47,105.91,141.17,200.19,247.23,247.23,63.41,28.13,117.93,39.82,164.74,39.82,55.81,0,100.72-16.57,137-42s63.93-59.67,84.79-95.09c41.74-70.83,56.25-146.12,59-162.71.33-2,.49-3,.52-3.26,3.19-50.95,12-78.15,20.24-92.88,7.36-13.16,14.57-16.3,16.65-16.92,79-43.16,129.49-85.75,160.14-125.76S1023,1133.27,1023,1100c0-41.56-17.12-76.87-34.88-102.27S952,956.92,950,955.25l-.19-.15-.13-.11-1.15-1.15-5.56,5.82A224.58,224.58,0,0,1,975.64,996.25Z"/><path class="cls-4" d="M948.49,953.84l1.15,1.15.13.11.19.15c2,1.67,20.38,17.07,38.13,42.45S1023,1058.41,1023,1100c0,33.3-10.91,70.74-41.61,110.83s-81.13,82.6-160.14,125.76c-2.08.62-9.29,3.76-16.65,16.92-8.28,14.73-17.05,41.93-20.24,92.88,0,.23-.19,1.3-.52,3.26-2.8,16.59-17.31,91.88-59,162.71-20.86,35.42-48.5,69.7-84.79,95.09s-81.2,41.95-137,42c-46.81,0-101.33-11.69-164.74-39.82C232.16,1662.52,138,1568.24,91,1462.33c-28.14-63.42-39.82-117.93-39.82-164.74,0-59.54,18.85-106.67,47.15-144.16,42.44-56.23,106.43-90.64,159.88-110.88a543,543,0,0,1,68.13-20.78c8.69-2,15.69-3.42,20.52-4.31,2.41-.44,4.28-.76,5.54-1l1.86-.29c50.91-3.19,78.09-12,92.82-20.23,13.12-7.34,16.28-14.52,16.92-16.63,43.16-79,85.74-129.51,125.76-160.16s77.53-41.6,110.82-41.61c42.91,0,79.15,18.23,104.7,36.6A242.48,242.48,0,0,1,835,839.41c3.43,3.44,6.06,6.3,7.83,8.29.88,1,1.55,1.78,2,2.3l.5.59.15.19.1.12.91.92,4.42-4.22-.79-.79c-1.21-1.47-16.07-19.48-41.27-37.59-26.18-18.81-63.57-37.73-108.26-37.74-34.65,0-73.57,11.46-114.53,42.86S502,897,458.46,976.73l-.22.41-.09.46h0c-.26.74-2.53,7.22-16.75,14.51s-40.39,15.09-87.72,18h-.25c-.19,0-76.89,11-153.88,52.26-38.48,20.65-77.06,48.92-106.09,87.33s-48.4,87-48.38,147.84c0,47.83,11.94,103.19,40.35,167.22,47.68,107.4,142.76,202.56,250.32,250.32,64,28.41,119.39,40.35,167.22,40.35,60.83,0,109.43-19.37,147.84-48.38,57.61-43.55,92.4-108.54,112.9-162.59s26.66-97.23,26.68-97.38l0-.12v-.12c3.13-50.49,11.84-76.9,19.47-90.41,3.81-6.77,7.33-10.31,9.74-12.16a14.19,14.19,0,0,1,2.73-1.68l.6-.23h0l.45-.09.41-.22c79.71-43.51,131-86.6,162.38-127.58s42.88-79.88,42.87-114.54c0-44.68-18.94-82.07-37.74-108.25-18.05-25.1-36-40-37.58-41.25l-1-1Z"/><path class="cls-5" d="M418.71,1319l18.56,18.57L560.9,1215.46a106,106,0,0,1-12.58-23.37Z"/><path class="cls-5" d="M471.39,1371.69l17.86,17.86,131-132.69a106.8,106.8,0,0,1-24.17-9.8Z"/><path class="cls-5" d="M687.37,1407.32c-7.16-5-27.78,2.39-27.79,2.39-22.28,8-52.16,1.4-68.56-15.33-11.19-11.42-22.43-30-22.38-46.44.07-20.55,20-34.29,33.5-46.45,15-13.53,30.28-26.79,44.72-40.94a106.88,106.88,0,0,1-24.42-3.17L490.6,1390.91l91.66,91.65-57.67,57.66L510,1525.59s-60.79-47-91.7-56.32c0,0-14.22-4.31-44.27-34.36s-34.37-44.28-34.37-44.28c-9.3-30.9-56.31-91.69-56.31-91.69L263,1278.6l57.67-57.67L403,1303.32,542.2,1168a106.58,106.58,0,0,1,99.89-120.9l194.18-185.5,0,0c-.42-.5-1-1.23-1.87-2.17-1.67-1.88-4.15-4.58-7.38-7.83a227.75,227.75,0,0,0-28.08-23.84c-24.17-17.34-58.53-34.57-99.46-34.56-32.16,0-68.49,10.57-107.6,40.42s-80.77,78.94-123.32,155.94c-.62,2-3.71,8.94-16.4,16.12-14.24,8.1-40.51,16.78-89.59,20.3l-1.71.29c-1.23.21-3,.53-5.38,1-4.69.9-11.49,2.32-19.92,4.37a531.36,531.36,0,0,0-66.16,20.78c-51.89,20.14-114,54.14-155.24,109.16-27.48,36.69-45.78,82.67-45.79,140.53,0,44.48,10.85,96,36.87,155.66,44.24,101.49,134.05,191.37,235.69,235.7,59.64,26,111.18,36.86,155.66,36.86,54.24,0,98-16.1,133.54-40.75s62.65-58,83.23-92.34c41.18-68.78,55.94-141.88,58.81-158,.35-2,.51-3,.53-3.18,3.52-49,12.2-75.29,20.3-89.53,7.2-12.72,14.13-15.79,16.13-16.41,77-42.55,126.11-84.28,155.93-123.32s40.41-75.44,40.43-107.6c0-38.37-15.15-71-31.33-94.8a219.49,219.49,0,0,0-35.26-40.41L791.33,1118.34C863.75,1282.72,687.37,1407.32,687.37,1407.32Z"/><path class="cls-5" d="M576.18,1232.68c-1.24-1.13-2.54-2.18-3.74-3.38A107.14,107.14,0,0,1,562,1217L438.63,1338.93l15.4,15.4Z"/><path class="cls-5" d="M594.39,1246.05A106.22,106.22,0,0,1,577.6,1234L455.38,1355.69,470,1370.34Z"/><path class="cls-5" d="M547.62,1190.1a107.12,107.12,0,0,1-5.08-19.79L404.36,1304.67l13,13Z"/><path class="cls-4" d="M974.12,1004.32c16.18,23.84,31.33,56.43,31.33,94.8,0,32.16-10.58,68.49-40.43,107.6S886.08,1287.49,809.09,1330c-2,.62-8.93,3.69-16.13,16.41-8.1,14.24-16.78,40.48-20.3,89.53,0,.19-.18,1.23-.53,3.18-2.87,16.11-17.63,89.21-58.81,158-20.58,34.39-47.74,67.69-83.23,92.34s-79.3,40.74-133.54,40.75c-44.48,0-96-10.85-155.66-36.86-101.64-44.33-191.45-134.21-235.69-235.7C79.18,1398,68.33,1346.5,68.33,1302c0-57.86,18.31-103.84,45.79-140.53,41.22-55,103.35-89,155.24-109.16a531.36,531.36,0,0,1,66.16-20.78c8.43-2,15.23-3.47,19.92-4.37,2.34-.45,4.15-.77,5.38-1l1.71-.29c49.08-3.52,75.35-12.2,89.59-20.3,12.69-7.18,15.78-14.11,16.4-16.12,42.55-77,84.29-126.12,123.32-155.94s75.44-40.41,107.6-40.42c40.93,0,75.29,17.22,99.46,34.56A227.75,227.75,0,0,1,827,851.53c3.23,3.25,5.71,6,7.38,7.83.83.94,1.45,1.67,1.87,2.17l0,0,4.24-4.06a218.75,218.75,0,0,0-38.18-34.58c-24.79-17.79-60.27-35.67-102.89-35.68-33.47,0-71.21,11.11-111.16,41.64S506.1,909.29,463.21,987l-.21.38-.08.37s-1.55,6.2-15,13.52-38.83,15.49-85.94,18.84h-.11l-.12,0c-.19,0-74.65,11.33-149.38,52.11-37.36,20.4-74.81,48.2-103,85.77s-47,84.94-47,144c0,45.44,11.08,97.78,37.36,158,44.93,103,135.61,193.71,238.73,238.72,60.22,26.27,112.56,37.35,158,37.35,59.11,0,106.49-18.79,144-47,56.36-42.26,90.73-105.35,111.12-157.81s26.75-94.4,26.77-94.54l0-.12v-.11c3.46-48.62,12.08-74.12,19.55-87.21,3.73-6.55,7.15-10,9.5-11.8a13.59,13.59,0,0,1,2.66-1.65l.58-.23.08,0,.36-.07.39-.22c77.65-42.88,127.53-85.11,158-125.07s41.65-77.69,41.63-111.16c0-42.61-17.89-78.09-35.67-102.87a224.58,224.58,0,0,0-32.71-36.59l-4.07,4.25A219.49,219.49,0,0,1,974.12,1004.32Z"/><path class="cls-6" d="M648.06,1260.61c-.4,0-.8-.06-1.2-.06-14.44,14.15-29.72,27.41-44.72,40.94-13.47,12.16-33.43,25.9-33.5,46.45,0,16.48,11.19,35,22.38,46.44,16.4,16.73,46.28,23.32,68.56,15.33,0,0,20.63-7.4,27.79-2.39,0,0,176.38-124.6,104-289l-36.51,38.22a106.75,106.75,0,0,1-106.76,104Z"/><polygon class="cls-6" points="454.03 1354.33 438.63 1338.93 417.85 1359.46 433.33 1374.95 454.03 1354.33"/><polygon class="cls-6" points="450.73 1392.34 468.72 1410.34 489.25 1389.55 471.39 1371.69 450.73 1392.34"/><polygon class="cls-6" points="417.36 1317.66 404.36 1304.67 383.42 1325.04 396.48 1338.1 417.36 1317.66"/><polygon class="cls-6" points="397.84 1339.45 416.49 1358.11 437.27 1337.58 418.71 1319.01 397.84 1339.45"/><polygon class="cls-6" points="470.03 1370.34 455.38 1355.69 434.69 1376.3 449.37 1390.98 470.03 1370.34"/><path class="cls-6" d="M263,1278.6l20.35,20.34s47,60.79,56.31,91.69c0,0,4.32,14.23,34.37,44.28s44.27,34.36,44.27,34.36c30.91,9.31,91.7,56.32,91.7,56.32l14.63,14.63,57.67-57.66-91.66-91.65-20.52,20.78L512,1453.58l-10.91,10.9-41.82-41.81-4.91,5-1.36-1.35,4.91-5-18.06-18.07-4.95,5-1.36-1.36,4.95-4.94-14.7-14.71-5,4.94-1.35-1.35,4.95-4.94-15.53-15.53-5,4.92-1.35-1.37,5-4.91-18.7-18.7-5,4.9-1.34-1.36,5-4.89-13.1-13.1-5,4.89L366,1339.3l5-4.86-36.93-36.94,10.9-10.9,37.09,37.08L403,1303.32l-82.38-82.39Z"/><path class="cls-3" d="M1424.68,420.38l10.83,10.83L1500.93,365a23.91,23.91,0,0,1-4.44-6.64Z"/><path class="cls-3" d="M1495.79,356.44a22.93,22.93,0,0,1-1.35-7.77,23.2,23.2,0,0,1,3.24-11.79l-87,69.47L1423.33,419Z"/><path class="cls-3" d="M1444.74,306.46,1380.5,376.2l14,13.95,69.38-83.92a23.63,23.63,0,0,1-19.09.23Z"/><path class="cls-3" d="M1443,305.53a23.58,23.58,0,0,1-5.75-4.12c-.06-.06-.1-.13-.16-.2l-67,64.53,9.1,9.11Z"/><path class="cls-3" d="M1430.26,284.49a23.68,23.68,0,0,1,6.94-16.77l157.59-157.58A23.81,23.81,0,0,1,1635.46,127a24.08,24.08,0,0,1-7,16.87L1470.89,301.42c-.59.58-1.26,1-1.89,1.55l-73.2,88.53L1409.29,405l94.14-75.15L1659,174.31a23.71,23.71,0,0,1,16.87-7h0a23.8,23.8,0,0,1,23.8,23.82,23.41,23.41,0,0,1-7,16.87L1535.06,365.59a23.65,23.65,0,0,1-32.75.73l-65.45,66.24,2.1,2.1c9.47-7,33.15-21.46,69.29-24.42l228.86-228.86c-18.07-16.55-31.77-35.9-38.88-55a34.35,34.35,0,0,1-1.84-9.75,44.4,44.4,0,0,0-.51-4.42c-.91-4.64-4.26-6-13.24-7.34-9.32-1.34-16.75-5.61-23.93-9.73l-1.15-.66a157.36,157.36,0,0,1-35.33-28c-.67-.72-1.36-1.43-2-2.16L1391.25,293.24c-3,36.14-17.46,59.83-24.42,69.29l1.86,1.86,67.17-64.66A23.25,23.25,0,0,1,1430.26,284.49Z"/><polygon class="cls-4" points="1379.14 374.85 1370.04 365.74 1365.6 370.01 1374.96 379.38 1379.14 374.85"/><path class="cls-4" d="M1496.49,358.35a23.91,23.91,0,0,0,4.44,6.64l4.33-4.39a17.6,17.6,0,0,1-3.78-6.56Z"/><path class="cls-4" d="M1441.56,272.08l1.87-1.87,8-8,58.48-58.48,8-8,63.18-63.16,8-8,10-10a17.65,17.65,0,1,1,25,25l-10,10-8,8-63.18,63.17-8,8L1509,254.59,1469,303c.63-.51,1.3-1,1.89-1.55l157.59-157.59a24.08,24.08,0,0,0,7-16.87,23.8,23.8,0,0,0-40.67-16.82L1437.2,267.72a23.68,23.68,0,0,0-6.94,16.77,23.25,23.25,0,0,0,5.6,15.24l4.44-4.27a17.53,17.53,0,0,1,1.26-23.38Z"/><polygon class="cls-4" points="1391.86 396.28 1404.44 408.86 1409.29 404.99 1395.8 391.5 1391.86 396.28"/><polygon class="cls-4" points="1423.33 419.03 1410.65 406.35 1405.8 410.22 1418.65 423.06 1423.33 419.03"/><path class="cls-4" d="M1746.11,181.1c-17.63-15-34-35-42.1-56.92-1.66-4.38-1.22-8.7-2.08-13.19-1.86-9.52-10.43-11-18.35-12.26-8.67-1.26-15.55-5.41-23-9.65a151.58,151.58,0,0,1-33.93-26.88c-2.16-2.25-4.27-4.45-6.3-6.82l-50.15,50.15-8,8L1499,176.73l-8,8-58.48,58.48-8,8-39.22,39.22c-3.12,46.74-26.65,72.46-26.69,72.5l5.67,5.66,4.44-4.27-1.86-1.86c7-9.46,21.47-33.15,24.42-69.29L1620.18,64.31c.69.73,1.38,1.44,2,2.16a157.36,157.36,0,0,0,35.33,28l1.15.66c7.18,4.12,14.61,8.39,23.93,9.73,9,1.38,12.33,2.7,13.24,7.34a44.4,44.4,0,0,1,.51,4.42,34.35,34.35,0,0,0,1.84,9.75c7.11,19.15,20.81,38.5,38.88,55.05L1508.25,410.24c-36.14,3-59.82,17.46-69.29,24.42l-2.1-2.1-4.33,4.39,5.24,5.24h0l.73.72s25.72-23.56,72.49-26.69L1550.21,377l8-8,58.49-58.49,8-8,63.17-63.17,8-8Z"/><path class="cls-4" d="M1468.4,295.19l-1.87,1.87a17.59,17.59,0,0,1-12.46,5.14,17.8,17.8,0,0,1-4.74-.73l-4.59,5a23.63,23.63,0,0,0,19.09-.23l30.86-37.33-18.26,18.25Z"/><polygon class="cls-4" points="1376.32 380.74 1390.51 394.92 1394.45 390.15 1380.5 376.2 1376.32 380.74"/><path class="cls-4" d="M1495.79,356.44l5.11-4.42a17.83,17.83,0,0,1,4.83-15.77l1.87-1.86,8-8,18.87-18.87-36.82,29.4a23.2,23.2,0,0,0-3.24,11.79A22.93,22.93,0,0,0,1495.79,356.44Z"/><polygon class="cls-4" points="1420 424.42 1431.18 435.6 1435.51 431.21 1424.68 420.38 1420 424.42"/><path class="cls-4" d="M1546.64,295.35l27.48-27.48,8-8,63.17-63.17,8-8,10-10a17.63,17.63,0,0,1,30.14,12.46,17.42,17.42,0,0,1-5.17,12.51l-10,10-8,8-63.17,63.17-8,8-58.48,58.49-8,8-1.86,1.87a17.49,17.49,0,0,1-24.07.7l-4.33,4.39a23.65,23.65,0,0,0,32.75-.73L1692.64,208a23.85,23.85,0,0,0,0-33.69,23.66,23.66,0,0,0-16.86-7h0a23.71,23.71,0,0,0-16.87,7L1503.43,329.84Z"/><path class="cls-4" d="M1443,305.53l4.31-4.68a17.57,17.57,0,0,1-5.7-3.8.81.81,0,0,0-.09-.1l-4.43,4.26c.06.07.1.14.16.2A23.58,23.58,0,0,0,1443,305.53Z"/><polygon class="cls-7" points="1154.22 596.08 1143.78 585.66 1098.92 629.28 1109.51 639.86 1154.22 596.08"/><polygon class="cls-7" points="1019.41 821.3 1005.72 807.6 977.76 835.44 991.5 849.19 1019.41 821.3"/><polygon class="cls-7" points="1202.61 548.69 1192.35 538.43 1148.72 580.86 1159.14 591.27 1202.61 548.69"/><polygon class="cls-7" points="992.86 850.54 1007.25 864.93 1034.97 836.86 1020.77 822.65 992.86 850.54"/><polygon class="cls-7" points="1304 449.41 1294.09 439.5 1247.55 484.75 1257.62 494.83 1304 449.41"/><polygon class="cls-7" points="1252.69 499.65 1242.6 489.56 1197.29 533.63 1207.54 543.87 1252.69 499.65"/><polygon class="cls-7" points="939.19 806.64 928.02 795.47 902.63 820.15 913.89 831.42 939.19 806.64"/><polygon class="cls-7" points="956.7 883.98 942.89 870.17 918.33 894.63 932.18 908.48 956.7 883.98"/><polygon class="cls-7" points="1104.59 644.69 1093.98 634.08 1052.78 674.15 1063.53 684.9 1104.59 644.69"/><polygon class="cls-7" points="1012.27 735.08 1001.35 724.16 966.21 758.33 977.25 769.37 1012.27 735.08"/><polygon class="cls-7" points="1025.65 817.77 1039.82 831.95 1074.26 797.07 1060.32 783.13 1025.65 817.77"/><polygon class="cls-7" points="972.32 774.21 961.26 763.14 932.97 790.65 944.13 801.82 972.32 774.21"/><polygon class="cls-7" points="962.93 880.46 977.52 895.04 1002.4 869.85 987.97 855.42 962.93 880.46"/><polygon class="cls-7" points="1058.61 689.71 1047.85 678.94 1006.28 719.36 1017.19 730.27 1058.61 689.71"/><polygon class="cls-7" points="986.62 854.07 972.87 840.31 947.77 865.3 961.58 879.1 986.62 854.07"/><polygon class="cls-7" points="1247.39 593.47 1234.08 580.16 1190.96 623.1 1204.34 636.48 1247.39 593.47"/><polygon class="cls-7" points="1347.75 493.17 1334.62 480.03 1288.63 525.84 1301.84 539.05 1347.75 493.17"/><polygon class="cls-7" points="1296.96 543.92 1283.74 530.71 1238.96 575.3 1252.26 588.6 1296.96 543.92"/><polygon class="cls-7" points="1199.48 641.34 1186.09 627.96 1141.76 672.11 1155.22 685.57 1199.48 641.34"/><polygon class="cls-7" points="1303.19 540.4 1315.52 552.73 1361.13 506.54 1349.1 494.52 1303.19 540.4"/><polygon class="cls-7" points="1406.2 434.75 1393.18 421.72 1339.48 475.19 1352.61 488.31 1406.2 434.75"/><polygon class="cls-7" points="1353.96 489.67 1365.95 501.66 1419.19 447.73 1407.56 436.1 1353.96 489.67"/><polygon class="cls-7" points="905.54 937.8 920.51 952.78 943.47 929.53 928.66 914.71 905.54 937.8"/><polygon class="cls-7" points="1253.61 589.95 1266.27 602.61 1310.68 557.64 1298.31 545.28 1253.61 589.95"/><polygon class="cls-7" points="1156.57 686.93 1169.88 700.23 1213.84 655.71 1200.83 642.7 1156.57 686.93"/><polygon class="cls-7" points="1111.05 732.42 1124.66 746.03 1165.04 705.13 1151.7 691.8 1111.05 732.42"/><polygon class="cls-7" points="1363.05 391.59 1353.34 381.88 1299.01 434.71 1308.91 444.61 1363.05 391.59"/><polygon class="cls-7" points="1065.19 778.26 1079.1 792.17 1119.82 750.93 1106.19 737.29 1065.19 778.26"/><polygon class="cls-7" points="1150.35 690.45 1136.88 676.97 1096.15 717.52 1109.7 731.07 1150.35 690.45"/><polygon class="cls-7" points="1058.96 781.77 1045.33 768.14 1010.61 802.73 1024.3 816.42 1058.96 781.77"/><polygon class="cls-7" points="933.53 909.83 948.32 924.62 972.67 899.96 958.04 885.33 933.53 909.83"/><polygon class="cls-7" points="908.96 836.25 897.68 824.96 872.83 849.13 884.2 860.5 908.96 836.25"/><polygon class="cls-7" points="1104.83 735.93 1091.28 722.38 1050.21 763.28 1063.83 776.91 1104.83 735.93"/><polygon class="cls-7" points="1205.7 637.84 1218.67 650.82 1261.43 607.51 1248.74 594.82 1205.7 637.84"/><polygon class="cls-7" points="1282.39 529.35 1270.37 517.33 1225.4 561.75 1237.61 573.95 1282.39 529.35"/><polygon class="cls-7" points="1351.99 380.53 1348.73 377.27 1293.93 429.63 1297.66 433.36 1351.99 380.53"/><polygon class="cls-7" points="1171.23 701.59 1177.86 708.22 1221.1 662.97 1215.19 657.06 1171.23 701.59"/><polygon class="cls-7" points="1126.02 747.38 1133.4 754.76 1173.1 713.2 1166.39 706.49 1126.02 747.38"/><polygon class="cls-7" points="1232.73 578.81 1220.5 566.58 1177.21 609.35 1189.62 621.75 1232.73 578.81"/><polygon class="cls-7" points="1333.27 478.68 1321.45 466.87 1275.27 512.48 1287.28 524.49 1333.27 478.68"/><polygon class="cls-7" points="1080.45 793.53 1088.59 801.66 1128.64 759.74 1121.18 752.28 1080.45 793.53"/><polygon class="cls-7" points="1089.93 721.03 1077.12 708.22 1035.88 748.96 1048.86 761.93 1089.93 721.03"/><polygon class="cls-7" points="1370.69 506.39 1423.05 451.59 1420.55 449.09 1367.31 503.01 1370.69 506.39"/><polygon class="cls-7" points="1018.54 731.62 1034.53 747.61 1075.77 706.87 1059.96 691.06 1018.54 731.62"/><polygon class="cls-7" points="1267.62 603.97 1272.65 609 1316.32 563.29 1312.03 558.99 1267.62 603.97"/><polygon class="cls-7" points="1184.74 626.61 1172.32 614.18 1127.8 658.15 1140.41 670.76 1184.74 626.61"/><polygon class="cls-7" points="1135.53 675.62 1122.9 663 1082.02 703.38 1094.8 716.17 1135.53 675.62"/><polygon class="cls-7" points="1041.18 833.3 1049.97 842.09 1083.83 806.64 1075.61 798.43 1041.18 833.3"/><polygon class="cls-7" points="1220.03 652.17 1225.85 657.99 1267.9 613.98 1262.78 608.86 1220.03 652.17"/><polygon class="cls-7" points="1316.87 554.08 1321.09 558.3 1365.94 511.36 1362.48 507.9 1316.87 554.08"/><polygon class="cls-7" points="1208.88 545.23 1224.05 560.39 1269.02 515.98 1254.04 501.01 1208.88 545.23"/><polygon class="cls-7" points="857.28 889.54 873.96 906.22 897.21 883.25 880.63 866.67 857.28 889.54"/><polygon class="cls-7" points="1160.48 592.62 1175.86 608 1219.15 565.23 1203.96 550.04 1160.48 592.62"/><polygon class="cls-7" points="1292.73 438.15 1288.96 434.38 1242.02 479.22 1246.19 483.4 1292.73 438.15"/><polygon class="cls-7" points="1110.86 641.22 1126.45 656.8 1170.96 612.83 1155.57 597.44 1110.86 641.22"/><polygon class="cls-7" points="1142.43 584.3 1137.35 579.22 1092.1 622.45 1097.57 627.93 1142.43 584.3"/><polygon class="cls-7" points="1310.26 445.96 1324.99 460.69 1378.9 407.44 1364.4 392.94 1310.26 445.96"/><polygon class="cls-7" points="1191 537.08 1186.34 532.41 1142.33 574.47 1147.37 579.51 1191 537.08"/><polygon class="cls-7" points="1241.25 488.21 1237.03 483.99 1191.32 527.66 1195.93 532.28 1241.25 488.21"/><polygon class="cls-7" points="978.87 896.4 988.69 906.22 1013.16 880.61 1003.75 871.2 978.87 896.4"/><polygon class="cls-7" points="1008.6 866.29 1017.93 875.62 1045.2 847.08 1036.33 838.21 1008.6 866.29"/><polygon class="cls-7" points="949.67 925.97 959.98 936.28 983.92 911.21 974.02 901.31 949.67 925.97"/><polygon class="cls-7" points="1064.88 686.25 1080.66 702.03 1121.55 661.65 1105.94 646.04 1064.88 686.25"/><polygon class="cls-7" points="1391.83 420.37 1380.25 408.79 1326.34 462.04 1338.14 473.84 1391.83 420.37"/><polygon class="cls-7" points="921.87 954.13 932.64 964.9 955.21 941.27 944.83 930.88 921.87 954.13"/><polygon class="cls-7" points="1258.97 496.18 1273.93 511.13 1320.11 465.51 1305.35 450.76 1258.97 496.18"/><polygon class="cls-7" points="1000 722.8 993.67 716.48 958.23 750.34 964.86 756.98 1000 722.8"/><polygon class="cls-7" points="941.53 868.82 928.12 855.4 903.46 879.76 916.98 893.28 941.53 868.82"/><polygon class="cls-7" points="885.55 861.85 902.11 878.41 926.77 854.05 910.31 837.6 885.55 861.85"/><polygon class="cls-7" points="915.24 832.77 931.68 849.2 956.87 824.32 940.55 808 915.24 832.77"/><polygon class="cls-7" points="896.33 823.61 889.1 816.38 864.03 840.33 871.48 847.77 896.33 823.61"/><polygon class="cls-7" points="959.9 761.79 953.23 755.12 924.7 782.38 931.61 789.3 959.9 761.79"/><polygon class="cls-7" points="978.61 770.73 994.77 786.88 1029.63 752.44 1013.63 736.44 978.61 770.73"/><polygon class="cls-7" points="926.66 794.11 919.7 787.15 894.09 811.61 901.27 818.8 926.66 794.11"/><polygon class="cls-7" points="1043.98 766.79 1030.98 753.79 996.12 788.24 1009.25 801.37 1043.98 766.79"/><polygon class="cls-7" points="1092.64 632.73 1087.12 627.21 1045.55 666.92 1051.43 672.8 1092.64 632.73"/><polygon class="cls-7" points="1004.36 806.25 991.2 793.09 963.13 820.82 976.41 834.09 1004.36 806.25"/><polygon class="cls-7" points="1046.5 677.59 1040.57 671.67 998.65 711.73 1004.93 718.01 1046.5 677.59"/><polygon class="cls-7" points="971.52 838.96 958.22 825.67 933.03 850.56 946.42 863.95 971.52 838.96"/><polygon class="cls-7" points="945.48 803.17 961.78 819.47 989.86 791.74 973.67 775.56 945.48 803.17"/><polygon class="cls-7" points="735.2 980.3 726.56 971.66 708.43 988.98 717.23 997.78 735.2 980.3"/><polygon class="cls-7" points="829.53 980.37 815.66 966.49 795.46 986.45 809.41 1000.4 829.53 980.37"/><polygon class="cls-7" points="712.29 1002.57 703.46 993.74 687.36 1009.12 696.34 1018.09 712.29 1002.57"/><polygon class="cls-7" points="899.32 941.32 885.41 927.41 861.81 950.92 875.76 964.87 899.32 941.32"/><path class="cls-7" d="M727.31,1082.16,739,1070.5l-14.24-14.24-12.36,12.22a105.51,105.51,0,0,1,11.22,9.62C724.94,1079.4,726.09,1080.81,727.31,1082.16Z"/><polygon class="cls-7" points="828.56 917.66 845.36 934.47 869.06 911.05 852.36 894.35 828.56 917.66"/><polygon class="cls-7" points="759.66 1049.95 745.51 1035.79 729.67 1051.43 743.9 1065.65 759.66 1049.95"/><polygon class="cls-7" points="927.3 913.35 913.44 899.49 890.29 922.55 904.19 936.45 927.3 913.35"/><polygon class="cls-7" points="804.53 1005.26 790.56 991.29 773.16 1008.48 787.2 1022.52 804.53 1005.26"/><path class="cls-7" d="M689.89,1053.46l3.57,3.56a105.94,105.94,0,0,1,17.39,10.31l12.58-12.42-17.33-17.33Z"/><polygon class="cls-7" points="782.3 1027.4 768.24 1013.34 750.4 1030.95 764.54 1045.09 782.3 1027.4"/><polygon class="cls-7" points="691.4 1022.89 682.39 1013.87 665.98 1029.54 675.14 1038.7 691.4 1022.89"/><polygon class="cls-7" points="754.69 990 771.81 1007.12 789.21 989.93 772.16 972.88 754.69 990"/><polygon class="cls-7" points="711.01 1032.77 728.32 1050.08 744.15 1034.43 726.91 1017.2 711.01 1032.77"/><polygon class="cls-7" points="912.09 898.14 898.56 884.61 875.31 907.57 888.94 921.2 912.09 898.14"/><polygon class="cls-7" points="731.83 1012.38 749.05 1029.6 766.89 1011.98 749.74 994.84 731.83 1012.38"/><polygon class="cls-7" points="884.06 926.06 870.41 912.41 846.71 935.82 860.46 949.56 884.06 926.06"/><polygon class="cls-7" points="802.3 943.38 819.22 960.29 840.43 939.34 823.61 922.51 802.3 943.38"/><polygon class="cls-7" points="855.55 954.46 841.78 940.69 820.57 961.64 834.42 975.49 855.55 954.46"/><polygon class="cls-7" points="777.08 968.07 794.1 985.1 814.31 965.14 797.37 948.2 777.08 968.07"/><polygon class="cls-7" points="782.99 933.83 774.77 925.61 754.24 945.23 762.63 953.62 782.99 933.83"/><polygon class="cls-7" points="725.56 1015.84 713.64 1003.92 697.68 1019.44 709.66 1031.42 725.56 1015.84"/><polygon class="cls-7" points="704.75 1036.23 692.75 1024.24 676.49 1040.05 688.54 1052.1 704.75 1036.23"/><polygon class="cls-7" points="757.7 958.42 749.26 949.98 731.57 966.88 740.16 975.47 757.7 958.42"/><path class="cls-7" d="M751.4,1126.77a106.71,106.71,0,0,1,3.42,24.24l11.19-11.7-13.58-13.58Z"/><path class="cls-7" d="M665.28,1048.29l4.92-4.79-9.2-9.2-13.08,12.5h.13A107.29,107.29,0,0,1,665.28,1048.29Z"/><polygon class="cls-7" points="879.27 865.33 867.89 853.94 844.46 876.72 855.92 888.18 879.27 865.33"/><polygon class="cls-7" points="822.25 921.16 810.67 909.57 789.29 930.36 800.95 942.02 822.25 921.16"/><polygon class="cls-7" points="851.01 893 839.53 881.52 815.64 904.75 827.2 916.32 851.01 893"/><polygon class="cls-7" points="796.02 946.85 784.34 935.18 763.98 954.98 775.73 966.72 796.02 946.85"/><polygon class="cls-7" points="770.82 971.54 759.05 959.77 741.51 976.83 753.33 988.65 770.82 971.54"/><path class="cls-7" d="M671.55,1044.86l-3.88,3.77q5.05.94,10,2.37Z"/><polygon class="cls-7" points="893.63 982.74 904.86 993.97 927.88 969.88 917.03 959.03 893.63 982.74"/><polygon class="cls-7" points="866.54 852.59 859.05 845.1 835.41 867.67 843.11 875.37 866.54 852.59"/><polygon class="cls-7" points="867.81 1008.88 879.47 1020.54 900.07 998.99 888.76 987.67 867.81 1008.88"/><polygon class="cls-7" points="809.32 908.22 801.33 900.24 779.77 920.84 787.94 929.01 809.32 908.22"/><polygon class="cls-7" points="838.17 880.16 830.43 872.43 806.34 895.45 814.29 903.39 838.17 880.16"/><polygon class="cls-7" points="798.51 1079.06 811.33 1091.88 828.65 1073.74 816.13 1061.23 798.51 1079.06"/><polygon class="cls-7" points="778.04 1099.79 791.19 1112.94 806.57 1096.86 793.68 1083.96 778.04 1099.79"/><polygon class="cls-7" points="757.27 1120.83 770.77 1134.33 786.44 1117.92 773.21 1104.69 757.27 1120.83"/><polygon class="cls-7" points="843.01 1034 855.08 1046.08 874.7 1025.54 862.96 1013.8 843.01 1034"/><polygon class="cls-7" points="820.99 1056.3 833.43 1068.74 850.33 1051.05 838.17 1038.9 820.99 1056.3"/><polygon class="cls-7" points="748.39 993.49 736.55 981.65 718.58 999.13 730.48 1011.03 748.39 993.49"/><path class="cls-7" d="M750.87,1124.59l.21-.21-.34-.34C750.79,1124.22,750.82,1124.4,750.87,1124.59Z"/><path class="cls-7" d="M741.44,1101.81c1.17,2.12,2.25,4.28,3.27,6.46l11.21,11.21,15.94-16.14-16-16Z"/><path class="cls-7" d="M754.53,1086l-14.16-14.16-11.77,11.72a107.09,107.09,0,0,1,11.83,16.53Z"/><polygon class="cls-7" points="760.75 1082.5 776.69 1098.44 792.33 1082.61 776.49 1066.78 760.75 1082.5"/><polygon class="cls-7" points="781.36 1061.91 797.16 1077.71 814.77 1059.87 799.09 1044.19 781.36 1061.91"/><polygon class="cls-7" points="819.93 1020.66 805.89 1006.61 788.56 1023.87 802.63 1037.94 819.93 1020.66"/><polygon class="cls-7" points="797.74 1042.83 783.65 1028.75 765.89 1046.44 780.01 1060.55 797.74 1042.83"/><polygon class="cls-7" points="844.89 995.72 830.88 981.72 810.76 1001.75 824.8 1015.79 844.89 995.72"/><polygon class="cls-7" points="775.14 1065.42 761.02 1051.3 745.25 1067 759.4 1081.15 775.14 1065.42"/><polygon class="cls-7" points="851.12 992.19 866.46 1007.53 887.4 986.31 872.21 971.12 851.12 992.19"/><polygon class="cls-7" points="826.15 1017.14 841.65 1032.65 861.61 1012.44 846.24 997.08 826.15 1017.14"/><polygon class="cls-7" points="877.11 966.22 892.27 981.38 915.68 957.67 900.67 942.67 877.11 966.22"/><polygon class="cls-7" points="803.98 1039.3 819.63 1054.95 836.82 1037.54 821.28 1022.01 803.98 1039.3"/><polygon class="cls-7" points="870.86 969.76 856.9 955.81 835.77 976.85 849.77 990.84 870.86 969.76"/><polygon class="cls-8" points="1364.4 392.94 1378.9 407.44 1380.26 406.1 1365.77 391.6 1364.4 392.94"/><polygon class="cls-8" points="1407.56 436.1 1419.19 447.73 1420.54 446.37 1408.91 434.75 1407.56 436.1"/><path class="cls-8" d="M1425.15,450.41l-.29.29-3-3-1.34,1.36,2.5,2.5-52.36,54.8.48.48-4.77,4.95-.46-.46-44.85,46.94.44.44-4.74,5-.47-.46L1272.66,609l.45.45-4.75,5-.46-.46-42.05,44,.45.45-4.76,5-.44-.43-43.24,45.25.47.47-4.73,5-.5-.49-39.7,41.56.42.43-4.73,5-.45-.45-40.05,41.93.48.47-4.76,5-.48-.48L1050,842.09l.46.46-4.76,5-.47-.48-27.27,28.54.45.44-4.76,5-.46-.46-24.47,25.61.49.49-4.77,5-.49-.49L960,936.28l.48.47-4.77,5-.48-.47L932.64,964.9l.48.48-4.73,5-.51-.51-23,24.09.46.46-4.8,5-.45-.44-20.6,21.55.45.46-4.75,5-.47-.46-19.62,20.53.49.49-4.77,5-.47-.48-16.9,17.69.46.47-4.78,5-.46-.47-17.32,18.14.46.45-4.73,5-.49-.48-15.38,16.08.48.48-4.75,5-.48-.49-15.67,16.41.48.48-4.74,5-.5-.5L754.82,1151c0,.9.13,1.79.13,2.68s-.11,1.91-.13,2.87l36.51-38.22L938.86,963.91l4.07-4.25,5.56-5.82,4.21-4.41,474.8-497-.15.16Z"/><path class="cls-8" d="M846.47,851.82l-6,5.69-4.24,4.06-194.18,185.5,1.07,0,1.06-1,.93.92c.92,0,1.85-.13,2.77-.13L661,1034.3l-2.21-2.21,5-4.76,2.22,2.21,16.41-15.67-2.22-2.22,5-4.75,2.22,2.22,16.1-15.38-2.24-2.23,5-4.73,2.2,2.2,18.13-17.32-2.19-2.19,5-4.78,2.2,2.19L749.26,950,747,947.76l5-4.73,2.2,2.2,20.53-19.62-2.18-2.19,5-4.76,2.18,2.18,21.56-20.6-2.18-2.19,5-4.77,2.17,2.17,24.09-23-2.21-2.22,5-4.76,2.22,2.22,23.64-22.57-2.23-2.23,5-4.74,2.19,2.2,25.07-24-2.21-2.2,5-4.77,2.21,2.2,25.61-24.46L917.52,785l5-4.76,2.17,2.17,28.53-27.26L951,752.9l5-4.76,2.2,2.2,35.45-33.86-2.22-2.21,5-4.76,2.22,2.22,41.92-40.06-2.18-2.18,5-4.73,2.16,2.16,41.57-39.71-2.21-2.2,5-4.76,2.2,2.2,45.25-43.23-2.18-2.18,5-4.76,2.19,2.19,44-42.06-2.22-2.21,5-4.73,2.19,2.19L1237,484l-2.21-2.2,5-4.75,2.17,2.18,47-44.84-2.2-2.21,5-4.75,2.21,2.21,54.8-52.36,3.26,3.26,1.37-1.33-5.47-5.47.28-.29-.47-.47L850.89,847.6Z"/><polygon class="cls-8" points="1364.41 390.25 1354.71 380.55 1353.34 381.88 1363.05 391.59 1364.41 390.25"/><polygon class="cls-8" points="1393.18 419.02 1381.61 407.44 1380.25 408.79 1391.83 420.37 1393.18 419.02"/><rect class="cls-8" x="1399.41" y="418.35" width="1.91" height="18.42" transform="translate(107.98 1115.73) rotate(-45.01)"/><path class="cls-8" d="M644.22,1046l-1.06,1c.66,0,1.32-.07,2-.09Z"/><path class="cls-8" d="M686.58,1054l2-1.92-12-12-4.94,4.81,6.15,6.14C680.7,1051.86,683.65,1052.89,686.58,1054Z"/><polygon class="cls-8" points="752.43 1125.73 766.01 1139.31 766.51 1139.81 771.25 1134.81 770.77 1134.33 757.27 1120.83 752.43 1125.73"/><path class="cls-8" d="M750.74,1124l.34.34,4.84-4.9-11.21-11.21A106.62,106.62,0,0,1,750.74,1124Z"/><polygon class="cls-8" points="675.14 1038.7 665.98 1029.54 663.76 1027.33 658.79 1032.09 661 1034.3 670.2 1043.5 675.14 1038.7"/><path class="cls-8" d="M689.89,1053.46l-1.33,1.29c1.66.68,3.27,1.51,4.9,2.27Z"/><polygon class="cls-8" points="696.34 1018.09 687.36 1009.12 685.14 1006.9 680.16 1011.65 682.39 1013.87 691.4 1022.89 696.34 1018.09"/><polygon class="cls-8" points="709.66 1031.42 697.68 1019.44 692.75 1024.24 704.75 1036.23 709.66 1031.42"/><polygon class="cls-8" points="743.9 1065.65 729.67 1051.43 724.78 1056.26 739.02 1070.5 743.9 1065.65"/><polygon class="cls-8" points="755.89 1087.37 771.86 1103.34 776.69 1098.44 760.75 1082.5 755.89 1087.37"/><polygon class="cls-8" points="773.21 1104.69 786.44 1117.92 786.92 1118.41 791.67 1113.42 791.19 1112.94 778.04 1099.79 773.21 1104.69"/><polygon class="cls-8" points="706.1 1037.58 723.43 1054.91 728.32 1050.08 711.01 1032.77 706.1 1037.58"/><polygon class="cls-8" points="759.4 1081.15 745.25 1067 740.37 1071.86 754.53 1086.02 759.4 1081.15"/><polygon class="cls-8" points="717.23 997.78 708.43 988.98 706.23 986.78 701.22 991.51 703.46 993.74 712.29 1002.57 717.23 997.78"/><polygon class="cls-8" points="793.68 1083.96 806.57 1096.86 807.06 1097.34 811.79 1092.33 811.33 1091.88 798.51 1079.06 793.68 1083.96"/><polygon class="cls-8" points="780.01 1060.55 765.89 1046.44 761.02 1051.3 775.14 1065.42 780.01 1060.55"/><polygon class="cls-8" points="776.49 1066.78 792.33 1082.61 797.16 1077.71 781.36 1061.91 776.49 1066.78"/><polygon class="cls-8" points="726.91 1017.2 744.15 1034.43 749.05 1029.6 731.83 1012.38 726.91 1017.2"/><polygon class="cls-8" points="764.54 1045.09 750.4 1030.95 745.51 1035.79 759.66 1049.95 764.54 1045.09"/><polygon class="cls-8" points="730.48 1011.03 718.58 999.13 713.64 1003.92 725.56 1015.84 730.48 1011.03"/><polygon class="cls-8" points="787.2 1022.52 773.16 1008.48 768.24 1013.34 782.3 1027.4 787.2 1022.52"/><polygon class="cls-8" points="802.63 1037.94 788.56 1023.87 783.65 1028.75 797.74 1042.83 802.63 1037.94"/><polygon class="cls-8" points="753.33 988.65 741.51 976.83 736.55 981.65 748.39 993.49 753.33 988.65"/><polygon class="cls-8" points="740.16 975.47 731.57 966.88 729.37 964.69 724.37 969.47 726.56 971.66 735.2 980.3 740.16 975.47"/><polygon class="cls-8" points="799.09 1044.19 814.77 1059.87 819.63 1054.95 803.98 1039.3 799.09 1044.19"/><polygon class="cls-8" points="816.13 1061.23 828.65 1073.74 829.11 1074.21 833.89 1069.21 833.43 1068.74 820.99 1056.3 816.13 1061.23"/><polygon class="cls-8" points="749.74 994.84 766.89 1011.98 771.81 1007.12 754.69 990 749.74 994.84"/><polygon class="cls-8" points="762.63 953.62 754.24 945.23 752.04 943.03 747.04 947.76 749.26 949.98 757.7 958.42 762.63 953.62"/><polygon class="cls-8" points="775.73 966.72 763.98 954.98 759.05 959.77 770.82 971.54 775.73 966.72"/><rect class="cls-8" x="811.9" y="1001.27" width="6.88" height="19.86" transform="translate(-476.21 872.58) rotate(-44.99)"/><polygon class="cls-8" points="838.17 1038.9 850.33 1051.05 850.8 1051.53 855.57 1046.56 855.08 1046.08 843.01 1034 838.17 1038.9"/><polygon class="cls-8" points="809.41 1000.4 795.46 986.45 790.56 991.29 804.53 1005.26 809.41 1000.4"/><polygon class="cls-8" points="821.28 1022.01 836.82 1037.54 841.65 1032.65 826.15 1017.14 821.28 1022.01"/><polygon class="cls-8" points="772.16 972.88 789.21 989.93 794.1 985.1 777.08 968.07 772.16 972.88"/><polygon class="cls-8" points="834.42 975.49 820.57 961.64 815.66 966.49 829.53 980.37 834.42 975.49"/><polygon class="cls-8" points="787.94 929.01 779.77 920.84 777.59 918.66 772.59 923.42 774.77 925.61 782.99 933.83 787.94 929.01"/><polygon class="cls-8" points="862.96 1013.8 874.7 1025.54 875.16 1026 879.92 1021 879.47 1020.54 867.81 1008.88 862.96 1013.8"/><polygon class="cls-8" points="849.77 990.84 835.77 976.85 830.88 981.72 844.89 995.72 849.77 990.84"/><polygon class="cls-8" points="846.24 997.08 861.61 1012.44 866.46 1007.53 851.12 992.19 846.24 997.08"/><polygon class="cls-8" points="797.37 948.2 814.31 965.14 819.22 960.29 802.3 943.38 797.37 948.2"/><polygon class="cls-8" points="800.95 942.02 789.29 930.36 784.34 935.18 796.02 946.85 800.95 942.02"/><polygon class="cls-8" points="814.29 903.39 806.34 895.45 804.17 893.28 799.15 898.05 801.33 900.24 809.32 908.22 814.29 903.39"/><polygon class="cls-8" points="875.76 964.87 861.81 950.92 856.9 955.81 870.86 969.76 875.76 964.87"/><polygon class="cls-8" points="860.46 949.56 846.71 935.82 841.78 940.69 855.55 954.46 860.46 949.56"/><polygon class="cls-8" points="827.2 916.32 815.64 904.75 810.67 909.57 822.25 921.16 827.2 916.32"/><polygon class="cls-8" points="823.61 922.51 840.43 939.34 845.36 934.47 828.56 917.66 823.61 922.51"/><polygon class="cls-8" points="888.76 987.67 900.07 998.99 900.52 999.43 905.32 994.42 904.86 993.97 893.63 982.74 888.76 987.67"/><polygon class="cls-8" points="872.21 971.12 887.4 986.31 892.27 981.38 877.11 966.22 872.21 971.12"/><polygon class="cls-8" points="917.03 959.03 927.88 969.88 928.39 970.39 933.12 965.38 932.64 964.9 921.87 954.13 917.03 959.03"/><polygon class="cls-8" points="852.36 894.35 869.06 911.05 873.96 906.22 857.28 889.54 852.36 894.35"/><polygon class="cls-8" points="900.67 942.67 915.68 957.67 920.51 952.78 905.54 937.8 900.67 942.67"/><polygon class="cls-8" points="855.92 888.18 844.46 876.72 839.53 881.52 851.01 893 855.92 888.18"/><polygon class="cls-8" points="843.11 875.37 835.41 867.67 833.19 865.45 828.22 870.21 830.43 872.43 838.17 880.16 843.11 875.37"/><polygon class="cls-8" points="904.19 936.45 890.29 922.55 885.41 927.41 899.32 941.32 904.19 936.45"/><polygon class="cls-8" points="888.94 921.2 875.31 907.57 870.41 912.41 884.06 926.06 888.94 921.2"/><polygon class="cls-8" points="916.98 893.28 903.46 879.76 898.56 884.61 912.09 898.14 916.98 893.28"/><polygon class="cls-8" points="932.18 908.48 918.33 894.63 913.44 899.49 927.3 913.35 932.18 908.48"/><polygon class="cls-8" points="880.63 866.67 897.21 883.25 902.11 878.41 885.55 861.85 880.63 866.67"/><polygon class="cls-8" points="871.48 847.77 864.03 840.33 861.84 838.13 856.82 842.87 859.05 845.1 866.54 852.59 871.48 847.77"/><polygon class="cls-8" points="928.66 914.71 943.47 929.53 948.32 924.62 933.53 909.83 928.66 914.71"/><polygon class="cls-8" points="944.83 930.88 955.21 941.27 955.69 941.74 960.46 936.75 959.98 936.28 949.67 925.97 944.83 930.88"/><polygon class="cls-8" points="884.2 860.5 872.83 849.13 867.89 853.94 879.27 865.33 884.2 860.5"/><polygon class="cls-8" points="958.04 885.33 972.67 899.96 977.52 895.04 962.93 880.46 958.04 885.33"/><polygon class="cls-8" points="910.31 837.6 926.77 854.05 931.68 849.2 915.24 832.77 910.31 837.6"/><polygon class="cls-8" points="961.58 879.1 947.77 865.3 942.89 870.17 956.7 883.98 961.58 879.1"/><polygon class="cls-8" points="974.02 901.31 983.92 911.21 984.41 911.7 989.18 906.71 988.69 906.22 978.87 896.4 974.02 901.31"/><polygon class="cls-8" points="946.42 863.95 933.03 850.56 928.12 855.4 941.53 868.82 946.42 863.95"/><polygon class="cls-8" points="913.89 831.42 902.63 820.15 897.68 824.96 908.96 836.25 913.89 831.42"/><polygon class="cls-8" points="901.27 818.8 894.09 811.61 891.88 809.41 886.89 814.18 889.1 816.38 896.33 823.61 901.27 818.8"/><polygon class="cls-8" points="976.41 834.09 963.13 820.82 958.22 825.67 971.52 838.96 976.41 834.09"/><polygon class="cls-8" points="940.55 808 956.87 824.32 961.78 819.47 945.48 803.17 940.55 808"/><polygon class="cls-8" points="931.61 789.3 924.7 782.38 922.53 780.21 917.52 784.97 919.7 787.15 926.66 794.11 931.61 789.3"/><polygon class="cls-8" points="987.97 855.42 1002.4 869.85 1007.25 864.93 992.86 850.54 987.97 855.42"/><polygon class="cls-8" points="944.13 801.82 932.97 790.65 928.02 795.47 939.19 806.64 944.13 801.82"/><polygon class="cls-8" points="991.5 849.19 977.76 835.44 972.87 840.31 986.62 854.07 991.5 849.19"/><polygon class="cls-8" points="1003.75 871.2 1013.16 880.61 1013.62 881.07 1018.38 876.06 1017.93 875.62 1008.6 866.29 1003.75 871.2"/><polygon class="cls-8" points="1024.3 816.42 1010.61 802.73 1005.72 807.6 1019.41 821.3 1024.3 816.42"/><polygon class="cls-8" points="1036.33 838.21 1045.2 847.08 1045.67 847.55 1050.43 842.55 1049.97 842.09 1041.18 833.3 1036.33 838.21"/><polygon class="cls-8" points="973.67 775.56 989.86 791.74 994.77 786.88 978.61 770.73 973.67 775.56"/><polygon class="cls-8" points="1009.25 801.37 996.12 788.24 991.2 793.09 1004.36 806.25 1009.25 801.37"/><polygon class="cls-8" points="1020.77 822.65 1034.97 836.86 1039.82 831.95 1025.65 817.77 1020.77 822.65"/><polygon class="cls-8" points="964.86 756.98 958.23 750.34 956.02 748.14 951.01 752.9 953.23 755.12 959.9 761.79 964.86 756.98"/><polygon class="cls-8" points="977.25 769.37 966.21 758.33 961.26 763.14 972.32 774.21 977.25 769.37"/><polygon class="cls-8" points="1013.63 736.44 1029.63 752.44 1034.53 747.61 1018.54 731.62 1013.63 736.44"/><polygon class="cls-8" points="1017.19 730.27 1006.28 719.36 1001.35 724.16 1012.27 735.08 1017.19 730.27"/><polygon class="cls-8" points="1075.61 798.43 1083.83 806.64 1084.31 807.12 1089.07 802.14 1088.59 801.66 1080.45 793.53 1075.61 798.43"/><rect class="cls-8" x="1051.14" y="762.89" width="6.89" height="19.27" transform="translate(-237.38 971.97) rotate(-45)"/><polygon class="cls-8" points="1060.32 783.13 1074.26 797.07 1079.1 792.17 1065.19 778.26 1060.32 783.13"/><polygon class="cls-8" points="1004.93 718.01 998.65 711.73 996.43 709.51 991.45 714.26 993.67 716.48 1000 722.8 1004.93 718.01"/><polygon class="cls-8" points="1048.86 761.93 1035.88 748.96 1030.98 753.79 1043.98 766.79 1048.86 761.93"/><polygon class="cls-8" points="1051.43 672.8 1045.55 666.92 1043.39 664.76 1038.39 669.49 1040.57 671.67 1046.5 677.59 1051.43 672.8"/><polygon class="cls-8" points="1106.19 737.29 1119.82 750.93 1124.66 746.03 1111.05 732.42 1106.19 737.29"/><polygon class="cls-8" points="1121.18 752.28 1128.64 759.74 1129.09 760.19 1133.82 755.19 1133.4 754.76 1126.02 747.38 1121.18 752.28"/><polygon class="cls-8" points="1094.8 716.17 1082.02 703.38 1077.12 708.22 1089.93 721.03 1094.8 716.17"/><rect class="cls-8" x="1097.05" y="717.15" width="6.88" height="19.16" transform="translate(-191.55 991.01) rotate(-45)"/><polygon class="cls-8" points="1059.96 691.06 1075.77 706.87 1080.66 702.03 1064.88 686.25 1059.96 691.06"/><polygon class="cls-8" points="1063.53 684.9 1052.78 674.15 1047.85 678.94 1058.61 689.71 1063.53 684.9"/><polygon class="cls-8" points="1097.57 627.93 1092.1 622.45 1089.9 620.25 1084.91 625.01 1087.12 627.21 1092.64 632.73 1097.57 627.93"/><polygon class="cls-8" points="1105.94 646.04 1121.55 661.65 1126.45 656.8 1110.86 641.22 1105.94 646.04"/><polygon class="cls-8" points="1155.22 685.57 1141.76 672.11 1136.88 676.97 1150.35 690.45 1155.22 685.57"/><polygon class="cls-8" points="1140.41 670.76 1127.8 658.15 1122.9 663 1135.53 675.62 1140.41 670.76"/><polygon class="cls-8" points="1166.39 706.49 1173.1 713.2 1173.6 713.69 1178.33 708.69 1177.86 708.22 1171.23 701.59 1166.39 706.49"/><polygon class="cls-8" points="1109.51 639.86 1098.92 629.28 1093.98 634.08 1104.59 644.69 1109.51 639.86"/><polygon class="cls-8" points="1151.7 691.8 1165.04 705.13 1169.88 700.23 1156.57 686.93 1151.7 691.8"/><polygon class="cls-8" points="1147.37 579.51 1142.33 574.47 1140.14 572.28 1135.17 577.04 1137.35 579.22 1142.43 584.3 1147.37 579.51"/><polygon class="cls-8" points="1200.83 642.7 1213.84 655.71 1218.67 650.82 1205.7 637.84 1200.83 642.7"/><polygon class="cls-8" points="1155.57 597.44 1170.96 612.83 1175.86 608 1160.48 592.62 1155.57 597.44"/><polygon class="cls-8" points="1189.62 621.75 1177.21 609.35 1172.32 614.18 1184.74 626.61 1189.62 621.75"/><polygon class="cls-8" points="1159.14 591.27 1148.72 580.86 1143.78 585.66 1154.22 596.08 1159.14 591.27"/><polygon class="cls-8" points="1204.34 636.48 1190.96 623.1 1186.09 627.96 1199.48 641.34 1204.34 636.48"/><polygon class="cls-8" points="1215.19 657.06 1221.1 662.97 1221.54 663.4 1226.3 658.44 1225.85 657.99 1220.03 652.17 1215.19 657.06"/><polygon class="cls-8" points="1248.74 594.82 1261.43 607.51 1266.27 602.61 1253.61 589.95 1248.74 594.82"/><polygon class="cls-8" points="1203.96 550.04 1219.15 565.23 1224.05 560.39 1208.88 545.23 1203.96 550.04"/><polygon class="cls-8" points="1195.93 532.28 1191.32 527.66 1189.13 525.47 1184.12 530.2 1186.34 532.41 1191 537.08 1195.93 532.28"/><polygon class="cls-8" points="1237.61 573.95 1225.4 561.75 1220.5 566.58 1232.73 578.81 1237.61 573.95"/><polygon class="cls-8" points="1252.26 588.6 1238.96 575.3 1234.08 580.16 1247.39 593.47 1252.26 588.6"/><polygon class="cls-8" points="1262.78 608.86 1267.9 613.98 1268.36 614.44 1273.11 609.45 1272.65 609 1267.62 603.97 1262.78 608.86"/><polygon class="cls-8" points="1207.54 543.87 1197.29 533.63 1192.35 538.43 1202.61 548.69 1207.54 543.87"/><polygon class="cls-8" points="1287.28 524.49 1275.27 512.48 1270.37 517.33 1282.39 529.35 1287.28 524.49"/><polygon class="cls-8" points="1257.62 494.83 1247.55 484.75 1242.6 489.56 1252.69 499.65 1257.62 494.83"/><polygon class="cls-8" points="1298.31 545.28 1310.68 557.64 1315.52 552.73 1303.19 540.4 1298.31 545.28"/><polygon class="cls-8" points="1246.19 483.4 1242.02 479.22 1239.84 477.04 1234.82 481.79 1237.03 483.99 1241.25 488.21 1246.19 483.4"/><polygon class="cls-8" points="1312.03 558.99 1316.32 563.29 1316.79 563.75 1321.53 558.74 1321.09 558.3 1316.87 554.08 1312.03 558.99"/><polygon class="cls-8" points="1254.04 501.01 1269.02 515.98 1273.93 511.13 1258.97 496.18 1254.04 501.01"/><polygon class="cls-8" points="1301.84 539.05 1288.63 525.84 1283.74 530.71 1296.96 543.92 1301.84 539.05"/><polygon class="cls-8" points="1297.66 433.36 1293.93 429.63 1291.72 427.42 1286.76 432.17 1288.96 434.38 1292.73 438.15 1297.66 433.36"/><polygon class="cls-8" points="1305.35 450.76 1320.11 465.51 1324.99 460.69 1310.26 445.96 1305.35 450.76"/><polygon class="cls-8" points="1338.14 473.84 1326.34 462.04 1321.45 466.87 1333.27 478.68 1338.14 473.84"/><polygon class="cls-8" points="1362.48 507.9 1365.94 511.36 1366.4 511.82 1371.17 506.87 1370.69 506.39 1367.31 503.01 1362.48 507.9"/><rect class="cls-8" x="1340.18" y="474.89" width="6.87" height="18.56" transform="translate(51.17 1091.89) rotate(-45)"/><polygon class="cls-8" points="1308.91 444.61 1299.01 434.71 1294.09 439.5 1304 449.41 1308.91 444.61"/><polygon class="cls-8" points="1349.1 494.52 1361.13 506.54 1365.95 501.66 1353.96 489.67 1349.1 494.52"/><polygon class="cls-6" points="1424.86 450.7 1425.15 450.41 1422.17 447.44 1421.89 447.73 1424.86 450.7"/><rect class="cls-6" x="1350.57" y="372.45" width="0.4" height="7.74" transform="translate(129.41 1065.14) rotate(-44.99)"/><polygon class="cls-6" points="1408.91 434.75 1420.54 446.37 1420.82 446.08 1409.19 434.46 1408.91 434.75"/><polygon class="cls-6" points="1365.77 391.6 1380.26 406.1 1380.55 405.81 1366.05 391.32 1365.77 391.6"/><rect class="cls-6" x="1387.34" y="404.91" width="0.4" height="16.37" transform="translate(114.47 1102.45) rotate(-45.01)"/><polygon class="cls-6" points="1364.7 389.97 1355 380.27 1354.71 380.55 1364.41 390.25 1364.7 389.97"/><rect class="cls-6" x="1400.99" y="417.53" width="0.41" height="18.42" transform="translate(108.62 1115.72) rotate(-45)"/><polygon class="cls-9" points="1371.35 386.13 1371.31 386.17 1366.05 391.32 1380.55 405.81 1385.76 400.66 1390.51 394.92 1376.32 380.74 1371.35 386.13"/><polygon class="cls-9" points="1414.39 429.27 1409.19 434.46 1420.82 446.08 1426.65 440.19 1431.18 435.6 1420 424.42 1414.39 429.27"/><polygon class="cls-9" points="1432.53 436.95 1428.01 441.53 1422.17 447.44 1425.15 450.41 1427.35 452.61 1427.51 452.45 1437.77 442.19 1437.77 442.19 1432.53 436.95"/><polygon class="cls-9" points="1399.12 413.1 1404.44 408.86 1391.86 396.28 1387.17 401.95 1381.89 407.16 1393.47 418.73 1399.12 413.1"/><polygon class="cls-9" points="1353.65 378.91 1358.95 373.76 1364.25 368.66 1358.58 363 1358.13 362.54 1347.7 372.96 1347.7 372.97 1348.17 373.44 1353.65 378.91"/><polygon class="cls-9" points="1413.08 427.88 1418.65 423.06 1405.8 410.22 1400.38 414.54 1394.82 420.08 1407.85 433.11 1413.08 427.88"/><polygon class="cls-9" points="1369.95 384.83 1374.96 379.38 1365.6 370.01 1360.28 375.13 1355 380.27 1364.7 389.97 1369.95 384.83"/><polygon class="cls-6" points="709.87 1215.52 709.87 1215.52 707.42 1213.08 709.87 1215.52"/><path class="cls-3" d="M541.13,1153.7A106.7,106.7,0,0,0,542.2,1168l9.7-9.43c-.14-2.14-.31-4.28-.3-6.42a94.88,94.88,0,0,1,94.86-94.87q4.57,0,9.15.44l9.67-9.4a107.29,107.29,0,0,0-17.23-1.5h-.13c-.92,0-1.85.1-2.77.13-.67,0-1.33.06-2,.09l-1.07,0a106.72,106.72,0,0,0-101,106.63Z"/><path class="cls-3" d="M603.71,1236.74a93.78,93.78,0,0,1-17.48-11.37L577.6,1234a106.22,106.22,0,0,0,16.79,12.09Z"/><path class="cls-3" d="M576.18,1232.68l8.62-8.59c-1.84-1.58-3.68-3.16-5.42-4.9a94.33,94.33,0,0,1-8.92-10.49L562,1217a107.14,107.14,0,0,0,10.4,12.28C573.64,1230.5,574.94,1231.55,576.18,1232.68Z"/><path class="cls-3" d="M556.35,1181.54a95.63,95.63,0,0,1-4.33-20.46l-9.48,9.23a107.12,107.12,0,0,0,5.08,19.79Z"/><path class="cls-3" d="M740.18,1138.14a93.43,93.43,0,0,1-26.65,81l-3.66-3.67h0l3.66,3.67A93.28,93.28,0,0,1,633.68,1246l-11.24,11.38a106.88,106.88,0,0,0,24.42,3.17c.4,0,.8.06,1.2.06a106.75,106.75,0,0,0,106.76-104c0-1,.13-1.91.13-2.87s-.1-1.78-.13-2.68a106.71,106.71,0,0,0-3.42-24.24Z"/><path class="cls-3" d="M744.71,1108.27c-1-2.18-2.1-4.34-3.27-6.46l-9.46,9.45a94.73,94.73,0,0,1,7.86,24.51l11-11.18c0-.19-.08-.37-.13-.55A106.62,106.62,0,0,0,744.71,1108.27Z"/><path class="cls-3" d="M688.56,1054.75l-8.79,8.62a94.17,94.17,0,0,1,22.66,12.28l8.42-8.32A105.94,105.94,0,0,0,693.46,1057C691.83,1056.26,690.22,1055.43,688.56,1054.75Z"/><path class="cls-3" d="M596.1,1247.06a106.8,106.8,0,0,0,24.17,9.8l11.05-11.2a94.33,94.33,0,0,1-25.76-8.05Z"/><path class="cls-3" d="M548.32,1192.09a106,106,0,0,0,12.58,23.37l8.41-8.31a94.48,94.48,0,0,1-12.26-23.61Z"/><path class="cls-3" d="M731.12,1109.42l9.31-9.31a107.09,107.09,0,0,0-11.83-16.53l-8.62,8.58A94.17,94.17,0,0,1,731.12,1109.42Z"/><path class="cls-3" d="M686.58,1054c-2.93-1.13-5.88-2.16-8.88-3q-5-1.43-10-2.37L658,1058a94.35,94.35,0,0,1,19.76,4.62Z"/><path class="cls-3" d="M718.7,1090.75l8.61-8.59c-1.22-1.35-2.37-2.76-3.67-4.06a105.51,105.51,0,0,0-11.22-9.62L704,1076.8a95.63,95.63,0,0,1,9.54,8.23C715.37,1086.87,717,1088.8,718.7,1090.75Z"/><path class="cls-10" d="M597.05,1211.9l109.4-109a76.06,76.06,0,0,0-5.14-5.69,78.76,78.76,0,0,0-9.75-8.17L582.87,1196.45a79,79,0,0,0,8.72,10.52C593.35,1208.72,595.18,1210.35,597.05,1211.9Z"/><path class="cls-10" d="M718.12,1122.4a76.67,76.67,0,0,0-10.5-17.92l-109,108.6a76.58,76.58,0,0,0,18.14,10.67Z"/><path class="cls-10" d="M570.48,1167.71l93.13-91.19a77.55,77.55,0,0,0-17.15-2c-1.91,0-3.81.13-5.7.27l-71.47,69.5c-.26,2.6-.41,5.2-.41,7.82A78.63,78.63,0,0,0,570.48,1167.71Z"/><path class="cls-10" d="M701.31,1207a77.2,77.2,0,0,0,22.61-52.36l-74,74.91A77.16,77.16,0,0,0,701.31,1207Z"/><path class="cls-10" d="M591.6,1097.26a77.09,77.09,0,0,0-21.87,43.94l68-66.13A77.14,77.14,0,0,0,591.6,1097.26Z"/><path class="cls-10" d="M718.87,1124.36l-100.2,100.15a78,78,0,0,0,27.78,5.18c.23,0,.45,0,.68,0L724,1151.78A77.69,77.69,0,0,0,718.87,1124.36Z"/><path class="cls-10" d="M665.79,1077.05,571,1169.87a76.85,76.85,0,0,0,10.71,25l108.28-107A76.66,76.66,0,0,0,665.79,1077.05Z"/><path class="cls-10" d="M616.71,1223.75a76.58,76.58,0,0,1-18.14-10.67l-12.34,12.29a93.78,93.78,0,0,0,17.48,11.37Z"/><path class="cls-10" d="M584.8,1224.09l12.25-12.19c-1.87-1.55-3.7-3.18-5.46-4.93a79,79,0,0,1-8.72-10.52l-12.41,12.25a94.33,94.33,0,0,0,8.92,10.49C581.12,1220.93,583,1222.51,584.8,1224.09Z"/><path class="cls-10" d="M713.53,1219.19l-3.66-3.67-2.45-2.45,2.45,2.45,3.66,3.67a93.43,93.43,0,0,0,26.65-81l-16.26,16.47a77.27,77.27,0,0,1-74,74.91L633.68,1246a93.28,93.28,0,0,0,79.85-26.81Z"/><path class="cls-10" d="M570.48,1167.71a78.63,78.63,0,0,1-1.6-15.59c0-2.62.15-5.22.41-7.82L552,1161.08a95.63,95.63,0,0,0,4.33,20.46Z"/><path class="cls-10" d="M679.77,1063.37l-14,13.68A76.66,76.66,0,0,1,690,1087.94l12.43-12.29A94.17,94.17,0,0,0,679.77,1063.37Z"/><path class="cls-10" d="M718.87,1124.36a77.69,77.69,0,0,1,5.15,27.42l15.82-16a94.73,94.73,0,0,0-7.86-24.51Z"/><path class="cls-10" d="M579.39,1085a94.58,94.58,0,0,0-27.79,67.08c0,2.14.16,4.28.3,6.42l17.83-17.34a77.29,77.29,0,0,1,68-66.13l17.87-17.38q-4.58-.43-9.15-.44A94.62,94.62,0,0,0,579.39,1085Z"/><path class="cls-10" d="M557.05,1183.54a94.48,94.48,0,0,0,12.26,23.61l12.41-12.26a76.85,76.85,0,0,1-10.71-25Z"/><path class="cls-10" d="M618.67,1224.51l-13.11,13.1a94.33,94.33,0,0,0,25.76,8.05l15.81-16c-.23,0-.45,0-.68,0A78,78,0,0,1,618.67,1224.51Z"/><path class="cls-10" d="M663.61,1076.52l14.15-13.86A94.35,94.35,0,0,0,658,1058l-17.24,16.76c1.89-.14,3.79-.27,5.7-.27A77.55,77.55,0,0,1,663.61,1076.52Z"/><path class="cls-10" d="M706.45,1102.94l12.25-12.19c-1.66-2-3.33-3.88-5.17-5.72a95.63,95.63,0,0,0-9.54-8.23l-12.43,12.28a78.76,78.76,0,0,1,9.75,8.17A76.06,76.06,0,0,1,706.45,1102.94Z"/><path class="cls-10" d="M718.12,1122.4l13-13A94.17,94.17,0,0,0,720,1092.16l-12.36,12.32A76.67,76.67,0,0,1,718.12,1122.4Z"/><path class="cls-11" d="M1563.06,98.35c6.81-9.28,8.25-19.83,2.78-25.3-6.42-6.41-19.84-3.41-30,6.74s-13.16,23.57-6.74,30c5.61,5.61,16.58,4,26-3.27a42.42,42.42,0,0,0,3.95-3.48A38.76,38.76,0,0,0,1563.06,98.35Z"/><path class="cls-11" d="M1690.74,242.1c-7.26,9.44-8.88,20.42-3.27,26,6.42,6.41,19.85,3.39,30-6.75s13.15-23.56,6.74-30c-5.48-5.47-16-4-25.3,2.77a39,39,0,0,0-4.68,4A41.27,41.27,0,0,0,1690.74,242.1Z"/><path class="cls-11" d="M1491.92,169.61c7-9.37,8.57-20.12,3-25.67-6.41-6.41-19.83-3.4-30,6.74s-13.16,23.57-6.75,30c5.54,5.54,16.3,4,25.66-3a40.28,40.28,0,0,0,4.33-3.72A41,41,0,0,0,1491.92,169.61Z"/><path class="cls-11" d="M1619.6,313.35c-7,9.37-8.56,20.13-3,25.68,6.41,6.4,19.84,3.38,30-6.76s13.16-23.56,6.74-30c-5.54-5.55-16.3-4-25.67,3a41,41,0,0,0-4.31,3.71A42.4,42.4,0,0,0,1619.6,313.35Z"/><path class="cls-11" d="M1425.41,236.13c7-9.36,8.56-20.12,3-25.66-6.42-6.42-19.83-3.41-30,6.72s-13.17,23.58-6.76,30c5.54,5.53,16.3,4,25.66-3a39.29,39.29,0,0,0,4.33-3.73A39.81,39.81,0,0,0,1425.41,236.13Z"/><path class="cls-11" d="M1553.09,379.88c-7,9.36-8.56,20.12-3,25.66,6.42,6.41,19.85,3.38,30-6.76s13.15-23.55,6.73-30c-5.55-5.55-16.3-4-25.67,3a41,41,0,0,0-4.29,3.71A39.38,39.38,0,0,0,1553.09,379.88Z"/><polygon class="cls-12" points="397.84 1339.45 386.81 1350.24 405.52 1368.94 416.49 1358.11 397.84 1339.45"/><polygon class="cls-12" points="511.97 1453.58 470.08 1411.69 459.24 1422.67 501.06 1464.48 511.97 1453.58"/><polygon class="cls-12" points="334.07 1297.5 371.01 1334.44 382.07 1323.68 344.98 1286.6 334.07 1297.5"/><polygon class="cls-12" points="434.69 1376.3 423.76 1387.18 438.46 1401.89 449.37 1390.98 434.69 1376.3"/><polygon class="cls-12" points="396.48 1338.1 383.42 1325.04 372.36 1335.79 385.46 1348.89 396.48 1338.1"/><polygon class="cls-12" points="417.85 1359.46 406.87 1370.3 422.4 1385.83 433.33 1374.95 417.85 1359.46"/><polygon class="cls-12" points="439.82 1403.24 457.88 1421.31 468.72 1410.34 450.73 1392.34 439.82 1403.24"/><polygon class="cls-13" points="1506.64 361.93 1520.81 347.6 1528.79 339.51 1528.8 339.51 1528.17 338.89 1527.43 338.16 1527.43 338.16 1519.45 346.24 1505.26 360.6 1500.93 365 1435.51 431.21 1431.18 435.6 1426.65 440.19 1420.82 446.08 1420.54 446.37 1419.19 447.73 1365.95 501.66 1361.13 506.54 1315.52 552.73 1310.68 557.64 1266.27 602.61 1261.43 607.51 1218.67 650.82 1213.84 655.71 1169.88 700.23 1165.04 705.13 1124.66 746.03 1119.82 750.93 1079.1 792.17 1074.26 797.07 1039.82 831.95 1034.97 836.86 1007.25 864.93 1002.4 869.85 977.52 895.04 972.67 899.96 948.32 924.62 943.47 929.53 920.51 952.78 915.68 957.67 892.27 981.38 887.4 986.31 866.46 1007.53 861.61 1012.44 841.65 1032.65 836.82 1037.54 819.63 1054.95 814.77 1059.87 797.16 1077.71 792.33 1082.61 776.69 1098.44 771.86 1103.34 755.92 1119.48 751.08 1124.38 750.87 1124.59 739.84 1135.77 724.02 1151.78 647.13 1229.66 631.32 1245.66 620.27 1256.86 489.25 1389.55 468.72 1410.34 457.88 1421.31 452.97 1426.29 454.33 1427.64 459.24 1422.67 470.08 1411.69 490.6 1390.91 622.44 1257.38 633.68 1246 649.95 1229.52 723.92 1154.61 740.18 1138.14 751.4 1126.77 752.43 1125.73 757.27 1120.83 773.21 1104.69 778.04 1099.79 793.68 1083.96 798.51 1079.06 816.13 1061.23 820.99 1056.3 838.17 1038.9 843.01 1034 862.96 1013.8 867.81 1008.88 888.76 987.67 893.63 982.74 917.03 959.03 921.87 954.13 944.83 930.88 949.67 925.97 974.02 901.31 978.87 896.4 1003.75 871.2 1008.6 866.29 1036.33 838.21 1041.18 833.3 1075.61 798.43 1080.45 793.53 1121.18 752.28 1126.02 747.38 1166.39 706.49 1171.23 701.59 1215.19 657.06 1220.03 652.17 1262.78 608.86 1267.62 603.97 1312.03 558.99 1316.87 554.08 1362.48 507.9 1367.31 503.01 1420.55 449.09 1421.89 447.73 1422.17 447.44 1428.01 441.53 1432.53 436.95 1436.86 432.56 1502.31 366.32 1506.64 361.93"/><polygon class="cls-13" points="471.39 1371.69 596.1 1247.06 605.56 1237.61 618.67 1224.51 718.87 1124.36 731.98 1111.26 741.44 1101.81 755.89 1087.37 760.75 1082.5 776.49 1066.78 781.36 1061.91 799.09 1044.19 803.98 1039.3 821.28 1022.01 826.15 1017.14 846.24 997.08 851.12 992.19 872.21 971.12 877.11 966.22 900.67 942.67 905.54 937.8 928.66 914.71 933.53 909.83 958.04 885.33 962.93 880.46 987.97 855.42 992.86 850.54 1020.77 822.65 1025.65 817.77 1060.32 783.13 1065.19 778.26 1106.19 737.29 1111.05 732.42 1151.7 691.8 1156.57 686.93 1200.83 642.7 1205.7 637.84 1248.74 594.82 1253.61 589.95 1298.31 545.28 1303.19 540.4 1349.1 494.52 1353.96 489.67 1407.56 436.1 1408.91 434.75 1409.19 434.46 1414.39 429.27 1420 424.42 1424.68 420.38 1496.49 358.35 1501.48 354.04 1515.31 342.1 1523.93 334.65 1586.69 280.44 1595.25 273.04 1594.62 272.31 1594 271.6 1593.95 271.64 1585.33 279.09 1522.58 333.3 1513.95 340.75 1500.9 352.02 1495.79 356.44 1423.33 419.03 1418.65 423.06 1413.08 427.88 1407.85 433.11 1407.56 433.39 1406.2 434.75 1352.61 488.31 1347.75 493.17 1301.84 539.05 1296.96 543.92 1252.26 588.6 1247.39 593.47 1204.34 636.48 1199.48 641.34 1155.22 685.57 1150.35 690.45 1109.7 731.07 1104.83 735.93 1063.83 776.91 1058.96 781.77 1024.3 816.42 1019.41 821.3 991.5 849.19 986.62 854.07 961.58 879.1 956.7 883.98 932.18 908.48 927.3 913.35 904.19 936.45 899.32 941.32 875.76 964.87 870.86 969.76 849.77 990.84 844.89 995.72 824.8 1015.79 819.93 1020.66 802.63 1037.94 797.74 1042.83 780.01 1060.55 775.14 1065.42 759.4 1081.15 754.53 1086.02 740.43 1100.11 731.12 1109.42 718.12 1122.4 616.71 1223.75 603.71 1236.74 594.39 1246.05 470.03 1370.34 449.37 1390.98 438.46 1401.89 433.51 1406.83 434.87 1408.19 439.82 1403.24 450.73 1392.34 471.39 1371.69"/><polygon class="cls-13" points="1404.44 408.86 1399.12 413.1 1393.47 418.73 1393.18 419.02 1391.83 420.37 1338.14 473.84 1333.27 478.68 1287.28 524.49 1282.39 529.35 1237.61 573.95 1232.73 578.81 1189.62 621.75 1184.74 626.61 1140.41 670.76 1135.53 675.62 1094.8 716.17 1089.93 721.03 1048.86 761.93 1043.98 766.79 1009.25 801.37 1004.36 806.25 976.41 834.09 971.52 838.96 946.42 863.95 941.53 868.82 916.98 893.28 912.09 898.14 888.94 921.2 884.06 926.06 860.46 949.56 855.55 954.46 834.42 975.49 829.53 980.37 809.41 1000.4 804.53 1005.26 787.2 1022.52 782.3 1027.4 764.54 1045.09 759.66 1049.95 743.9 1065.65 739.02 1070.5 727.31 1082.16 718.7 1090.75 706.45 1102.94 597.05 1211.9 584.8 1224.09 576.18 1232.68 454.03 1354.33 433.33 1374.95 422.4 1385.83 417.45 1390.77 418.8 1392.12 423.76 1387.18 434.69 1376.3 455.38 1355.69 577.6 1233.96 586.23 1225.37 598.57 1213.08 707.62 1104.48 719.98 1092.16 728.6 1083.58 740.37 1071.86 745.25 1067 761.02 1051.3 765.89 1046.44 783.65 1028.75 788.56 1023.87 805.89 1006.61 810.76 1001.75 830.88 981.72 835.77 976.85 856.9 955.81 861.81 950.92 885.41 927.41 890.29 922.55 913.44 899.49 918.33 894.63 942.89 870.17 947.77 865.3 972.87 840.31 977.76 835.44 1005.72 807.6 1010.61 802.73 1045.33 768.14 1050.21 763.28 1091.28 722.38 1096.15 717.52 1136.88 676.97 1141.76 672.11 1186.09 627.96 1190.96 623.1 1234.08 580.16 1238.96 575.3 1283.74 530.71 1288.63 525.84 1334.62 480.03 1339.48 475.19 1393.18 421.72 1394.53 420.37 1394.82 420.08 1400.38 414.54 1405.8 410.22 1410.65 406.35 1497.68 336.88 1534.5 307.48 1578.56 272.32 1587.49 265.18 1657.75 209.1 1664.86 203.43 1663.67 201.94 1663.67 201.93 1656.39 207.74 1586.13 263.82 1577.2 270.95 1546.64 295.35 1503.43 329.84 1409.29 404.99 1404.44 408.86"/><polygon class="cls-13" points="1508.99 254.59 1532.45 226.21 1539.73 217.42 1596.91 148.25 1604.18 139.46 1604.23 139.39 1603.49 138.78 1602.76 138.17 1602.76 138.17 1595.55 146.9 1538.37 216.06 1531.1 224.86 1494.69 268.9 1463.83 306.23 1394.45 390.15 1390.51 394.92 1385.76 400.66 1380.55 405.81 1380.26 406.1 1378.9 407.44 1324.99 460.69 1320.11 465.51 1273.93 511.13 1269.02 515.98 1224.05 560.39 1219.15 565.23 1175.86 608 1170.96 612.83 1126.45 656.8 1121.55 661.65 1080.66 702.03 1075.77 706.87 1034.53 747.61 1029.63 752.44 994.77 786.88 989.86 791.74 961.78 819.47 956.87 824.32 931.68 849.2 926.77 854.05 902.11 878.41 897.21 883.25 873.96 906.22 869.06 911.05 845.36 934.47 840.43 939.34 819.22 960.29 814.31 965.14 794.1 985.1 789.21 989.93 771.81 1007.12 766.89 1011.98 749.05 1029.6 744.15 1034.43 728.32 1050.08 723.43 1054.91 710.86 1067.33 702.43 1075.65 690 1087.93 581.72 1194.89 569.31 1207.15 560.9 1215.46 437.27 1337.58 416.49 1358.11 405.52 1368.94 400.55 1373.85 401.89 1375.22 406.87 1370.3 417.85 1359.46 438.63 1338.93 562.04 1217.02 570.46 1208.7 582.87 1196.45 691.56 1089.08 703.99 1076.8 712.41 1068.48 724.78 1056.26 729.67 1051.43 745.51 1035.79 750.4 1030.95 768.24 1013.34 773.16 1008.48 790.56 991.29 795.46 986.45 815.66 966.49 820.57 961.64 841.78 940.69 846.71 935.82 870.41 912.41 875.31 907.57 898.56 884.61 903.46 879.76 928.12 855.4 933.03 850.56 958.22 825.67 963.13 820.82 991.2 793.09 996.12 788.24 1030.98 753.79 1035.88 748.96 1077.12 708.22 1082.02 703.38 1122.9 663 1127.8 658.15 1172.32 614.18 1177.21 609.35 1220.5 566.58 1225.4 561.75 1270.37 517.33 1275.27 512.48 1321.45 466.87 1326.34 462.04 1380.25 408.79 1381.61 407.44 1381.89 407.16 1387.17 401.95 1391.86 396.28 1395.8 391.5 1469 302.97 1508.99 254.59"/><polygon class="cls-13" points="418.71 1319.01 548.32 1192.09 557.05 1183.54 571.01 1169.87 665.79 1077.05 679.77 1063.37 688.56 1054.75 689.89 1053.46 706.1 1037.58 711.01 1032.77 726.91 1017.2 731.83 1012.38 749.74 994.84 754.69 990 772.16 972.88 777.08 968.07 797.37 948.2 802.3 943.38 823.61 922.51 828.56 917.66 852.36 894.35 857.28 889.54 880.63 866.67 885.55 861.85 910.31 837.6 915.24 832.77 940.55 808 945.48 803.17 973.67 775.56 978.61 770.73 1013.63 736.44 1018.54 731.62 1059.96 691.06 1064.88 686.25 1105.94 646.04 1110.86 641.22 1155.57 597.44 1160.48 592.62 1203.96 550.04 1208.88 545.23 1254.04 501.01 1258.97 496.18 1305.35 450.76 1310.26 445.96 1364.4 392.94 1365.77 391.6 1366.05 391.32 1371.31 386.17 1371.35 386.13 1376.32 380.74 1380.5 376.2 1444.74 306.46 1449.33 301.47 1461.48 288.27 1469.19 279.91 1525.27 219.02 1532.97 210.66 1532.99 210.63 1532.27 209.96 1531.59 209.34 1523.91 217.67 1467.84 278.56 1460.13 286.92 1447.31 300.85 1442.99 305.53 1379.14 374.85 1374.96 379.38 1369.95 384.83 1364.7 389.97 1364.41 390.25 1363.05 391.59 1308.91 444.61 1304 449.41 1257.62 494.83 1252.69 499.65 1207.54 543.87 1202.61 548.69 1159.14 591.27 1154.22 596.08 1109.51 639.86 1104.59 644.69 1063.53 684.9 1058.61 689.71 1017.19 730.27 1012.27 735.08 977.25 769.37 972.32 774.21 944.13 801.82 939.19 806.64 913.89 831.42 908.96 836.25 884.2 860.5 879.27 865.33 855.92 888.18 851.01 893 827.2 916.32 822.25 921.16 800.95 942.02 796.02 946.85 775.73 966.72 770.82 971.54 753.33 988.65 748.39 993.49 730.48 1011.03 725.56 1015.84 709.66 1031.42 704.75 1036.23 688.54 1052.1 686.58 1054.02 677.76 1062.66 663.61 1076.52 570.48 1167.71 556.36 1181.54 547.62 1190.1 417.36 1317.66 396.48 1338.1 385.46 1348.89 380.47 1353.78 381.81 1355.14 386.81 1350.24 397.84 1339.45 418.71 1319.01"/><polygon class="cls-13" points="1358.95 373.76 1353.65 378.91 1353.36 379.2 1351.99 380.53 1297.66 433.36 1292.73 438.15 1246.19 483.4 1241.25 488.21 1195.93 532.28 1191 537.08 1147.37 579.51 1142.43 584.3 1097.57 627.93 1092.64 632.73 1051.43 672.8 1046.5 677.59 1004.93 718.01 1000 722.8 964.86 756.98 959.9 761.79 931.61 789.3 926.66 794.11 901.27 818.8 896.33 823.61 871.48 847.77 866.54 852.59 843.11 875.37 838.17 880.16 814.29 903.39 809.32 908.22 787.94 929.01 782.99 933.83 762.63 953.62 757.7 958.42 740.16 975.47 735.2 980.3 717.23 997.78 712.29 1002.57 696.34 1018.09 691.4 1022.89 675.14 1038.7 670.2 1043.5 665.28 1048.29 655.61 1057.69 637.74 1075.07 569.73 1141.2 551.9 1158.54 542.2 1167.97 403.01 1303.32 382.07 1323.68 371.01 1334.44 366.01 1339.3 367.34 1340.67 372.36 1335.79 383.42 1325.04 404.36 1304.67 542.54 1170.31 552.02 1161.08 569.29 1144.3 640.76 1074.8 658 1058.04 667.67 1048.63 671.55 1044.86 676.49 1040.05 692.75 1024.24 697.68 1019.44 713.64 1003.92 718.58 999.13 736.55 981.65 741.51 976.83 759.05 959.77 763.98 954.98 784.34 935.18 789.29 930.36 810.67 909.57 815.64 904.75 839.53 881.52 844.46 876.72 867.89 853.94 872.83 849.13 897.68 824.96 902.63 820.15 928.02 795.47 932.97 790.65 961.26 763.14 966.21 758.33 1001.35 724.16 1006.28 719.36 1047.85 678.94 1052.78 674.15 1093.98 634.08 1098.92 629.28 1143.78 585.66 1148.72 580.86 1192.35 538.43 1197.29 533.63 1242.6 489.56 1247.55 484.75 1294.09 439.5 1299.01 434.71 1353.34 381.88 1354.71 380.55 1355 380.27 1360.28 375.13 1365.6 370.01 1370.04 365.74 1437.08 301.21 1441.51 296.95 1456.11 282.89 1464.28 275.03 1463.7 274.43 1462.96 273.65 1462.96 273.65 1462.94 273.66 1454.76 281.54 1440.3 295.46 1435.86 299.73 1368.69 364.39 1364.25 368.66 1358.95 373.76"/></svg>