<?xml version="1.0" encoding="utf-8"?>
<!-- Generator: Adobe Illustrator 25.4.1, SVG Export Plug-In . SVG Version: 6.00 Build 0)  -->
<svg version="1.1" id="Capa_2" xmlns="http://www.w3.org/2000/svg" xmlns:xlink="http://www.w3.org/1999/xlink" x="0px" y="0px"
	 viewBox="0 0 1099.2 2170.7" style="enable-background:new 0 0 1099.2 2170.7;" xml:space="preserve">
<style type="text/css">
	.st0{fill:none;}
	.st1{fill:#50424B;}
	.st2{fill:#CA8D57;}
	.st3{fill:#FEDFC8;}
	.st4{fill:#FAAE6B;}
	.st5{fill:#3B3037;}
	.st6{fill:#5B2F36;}
	.st7{fill:#CBAF87;}
	.st8{fill:#E8CDA9;}
	.st9{fill:#1D1119;}
	.st10{fill:#EAC39E;}
	.st11{fill:#FFFFFF;}
	.st12{fill:#FFE4C8;}
</style>
<polygon class="st0" points="968.4,280.5 951.6,275.5 922.3,353.1 928,354.8 928.9,355 928.9,355 944.9,359.8 "/>
<path class="st0" d="M940.9,373.2l0.7-2.5l-15.9-4.7l-5.6,19.3C929.1,387.4,938.3,382.1,940.9,373.2L940.9,373.2z"/>
<path class="st0" d="M820.1,337.3c-2.5,8.6,1.8,17.7,10,21.2l6.1-19.1l-15.4-4.6L820.1,337.3z"/>
<polygon class="st0" points="920.4,352.5 949.8,275 940.6,272.2 918.6,324.1 911,349.7 "/>
<path class="st0" d="M838.8,359.9l4.6-18.4l-5.4-1.6l-6.1,19.3c0,0,0.1,0,0.1,0C834.2,359.9,836.5,360.1,838.8,359.9z"/>
<polygon class="st0" points="866.5,250.2 847.6,244.6 824,323.9 839.6,328.5 839.6,328.5 839.6,328.5 840.6,328.8 846.2,330.5 "/>
<polygon class="st0" points="923.5,307.7 938.8,271.7 934.6,270.4 "/>
<path class="st0" d="M1004.4,159.6c2.8-9.4-2.6-19.2-11.9-22c-9.4-2.8-19.2,2.5-22,11.9c0,0,0,0,0,0l-4,13.6l33.9,10.1L1004.4,159.6
	z"/>
<polygon class="st0" points="937.8,259.6 943.2,261.2 978.3,178.4 963.3,173.9 "/>
<polygon class="st0" points="848.1,331 857.9,333.9 865.3,309.2 876.3,253.1 868.4,250.8 "/>
<path class="st0" d="M907,363.1c-1.6,5.6-0.4,11.6,3.3,16.1l6.2-16.1l-8.6-2.6L907,363.1z"/>
<path class="st0" d="M853.9,347.4l0.8-2.5l-9.4-2.8l-4.4,17.4c1.6-0.3,3.1-0.9,4.5-1.6C849.5,355.6,852.6,351.8,853.9,347.4z"/>
<polygon class="st0" points="953.9,264.3 954.7,264.6 971.7,269.6 997.1,184 980.1,178.9 945.1,261.7 953.8,264.3 "/>
<polygon class="st0" points="871.2,239.7 871.2,239.7 878.5,241.9 895.8,153.9 876.3,148.1 850.8,233.7 870.2,239.5 "/>
<path class="st0" d="M911.8,380.8c1.8,1.8,4,3.1,6.4,4l5.6-19.4l-5.6-1.7L911.8,380.8z"/>
<polygon class="st0" points="880.3,242.5 884.7,243.8 910.1,158.1 897.7,154.4 "/>
<polygon class="st0" points="871,289.8 881.5,254.7 878.1,253.7 "/>
<polygon class="st1" points="1000.4,173.1 966.5,163 963.3,173.9 978.3,178.4 981.9,169.8 981.9,169.8 983.7,170.6 980.1,178.9 
	997.1,184 "/>
<polygon class="st1" points="897.7,154.4 910.1,158.1 913.4,147.2 899.9,143.2 "/>
<polygon class="st1" points="955.6,264.9 951.6,275.5 968.4,280.5 971.7,269.6 954.7,264.6 "/>
<polygon class="st1" points="953.8,264.3 945.1,261.7 940.6,272.2 949.8,275 "/>
<path class="st1" d="M996.3,288.8c0.3-1.9,0.7-3.7,1.2-5.6c0.6-1.8,1.2-3.6,2-5.3l-3.9-1.2l-3.2,10.8L996.3,288.8z"/>
<polygon class="st1" points="878.1,253.7 881.5,254.7 884.7,243.8 880.3,242.5 "/>
<polygon class="st1" points="870.2,239.5 850.8,233.7 847.6,244.6 866.5,250.2 869.3,239.2 "/>
<polygon class="st1" points="934.6,270.4 938.8,271.7 943.2,261.2 937.8,259.6 "/>
<path class="st1" d="M815.5,223.2c-0.3,1.9-0.7,3.7-1.2,5.6c-0.6,1.8-1.2,3.6-2,5.3l9.7,2.9l3.2-10.8L815.5,223.2z"/>
<polygon class="st1" points="868.4,250.8 876.3,253.1 878.5,241.9 871.2,239.7 "/>
<polygon class="st1" points="846.2,330.5 840.6,328.8 841.4,329.1 838,339.9 843.4,341.5 "/>
<polygon class="st1" points="820.8,334.8 836.2,339.3 839.6,328.5 824,323.9 "/>
<polygon class="st1" points="944.9,359.8 928.9,355 925.7,365.9 941.6,370.7 "/>
<polygon class="st1" points="918.2,363.7 923.9,365.4 927,354.5 927,354.5 928,354.8 922.3,353.1 "/>
<path class="st1" d="M788.7,313.4c-0.3,1.9-0.7,3.7-1.2,5.5c-0.5,1.8-1.2,3.6-2,5.3l9.7,2.9l3.2-10.8L788.7,313.4z"/>
<polygon class="st1" points="857.9,333.9 848.1,331 845.3,342 854.7,344.8 "/>
<path class="st1" d="M969.5,378.9c0.3-1.9,0.7-3.8,1.2-5.6c0.5-1.8,1.2-3.6,2-5.3l-3.9-1.1l-3.2,10.8L969.5,378.9z"/>
<polygon class="st1" points="907.8,360.6 916.4,363.2 920.4,352.5 911,349.7 "/>
<path class="st2" d="M755.3,1196c27.4,13.3,60.1,36,80.4,73.5c15.9,29.4,24.2,67.9,16.3,117.6s-31.5,110.6-79.3,185.2l-0.2,0.4
	l-0.3,0.2l-0.1,0l-0.4,0.5c-0.6,0.8-1.1,1.8-1.6,2.7c-1.2,2.7-2.6,7.4-2.7,14.9c-0.3,15.1,4.2,41.6,24.4,86l0.1,0.1l0.1,0.1
	c0.1,0.1,14.4,40,21.5,95.9s6.9,127.7-22.6,191.8c-19.6,42.7-52.3,81.8-104.2,109.9c-40,21.6-91.3,36.8-156.7,42.4
	c-112.2,9.5-235.1-27.1-323.7-96.2c-51.8-40.4-86.5-81.2-108.1-121.1c-28.2-52-34.2-102.6-27.3-149c6.9-46.4,26.6-88.7,49.7-124.5
	c46.3-71.5,106.4-116.8,106.5-117l0.1-0.1l0,0c39.8-25.4,58.2-44.7,66.6-57.5c8.3-12.8,6.7-19,6.7-19l-0.1-0.4l0-0.4
	c0.7-88.7,14.1-152.7,34.7-198.6c20.6-45.9,48.5-73.7,77.9-89.6c37.5-20.3,77.2-21.5,107.5-17.6c17.1,2.1,33.9,6.2,50,12.2l2.6-7.9
	l-1.2-0.4l-0.1-0.1l-0.2-0.1l-0.7-0.3c-0.6-0.2-1.6-0.6-2.9-1.1c-2.5-0.9-6.2-2.2-10.8-3.6c-12.5-3.7-25.2-6.4-38.1-8
	c-31.2-4-71.8-2.8-109.5,17.7c-29.3,15.9-57,43.3-77.6,89.4c-20.6,46.1-34,110.7-34.3,200.7c0.4,2.2,1.1,10-7,22.7
	c-9,14.3-28.8,34.9-72,62l-1.5,1.1c-1,0.8-2.5,1.9-4.4,3.5c-3.8,3.1-9.3,7.6-16,13.6c-17.8,15.8-34.5,32.7-50,50.7
	c-37.4,43.3-77.2,104-87.8,173.6c-7,46.4-1.1,96.9,27.2,149.2c22.3,41.2,58.5,83.5,113.5,125.9c91.8,70.7,219.5,108.8,335.1,99.6
	c69.2-5.5,122.7-21.2,163.8-43.5c49.1-26.6,80.7-62.5,100.5-102.2c19.8-39.6,27.8-82.9,29.3-124c3-82.2-20.1-155.3-25.6-171.2
	c-0.7-1.9-1-2.9-1.1-3.1c-21.5-46.3-26.7-74.4-26.4-91.3c0.2-15.1,5-21.3,6.6-22.8c48.9-75.6,73-137.1,80.9-186.9
	c7.9-49.8-0.3-88-16.1-117.3c-19.8-36.5-51.7-59.4-79.4-73.3c-27.7-13.9-51.2-18.7-53.8-19.2l-0.2,0l-0.2,0l-1.6-0.5l-2.1,7.8
	C725.1,1183.2,740.6,1188.8,755.3,1196z"/>
<path class="st3" d="M711.3,1171.6l1.6,0.5l0.2,0l0.2,0c2.6,0.5,26.1,5.3,53.7,19.2c27.7,13.9,59.6,36.8,79.4,73.3
	c15.9,29.3,24.1,67.4,16.2,117.3c-7.9,49.9-32,111.3-80.9,186.9c-1.5,1.5-6.4,7.7-6.6,22.8c-0.3,16.9,5,45,26.4,91.3
	c0.1,0.2,0.5,1.2,1.1,3.1c5.4,15.9,28.5,89,25.6,171.2c-1.5,41.1-9.4,84.4-29.3,124c-19.8,39.6-51.4,75.6-100.5,102.2
	c-41.2,22.3-94.7,38-163.8,43.5c-115.8,9.1-243.5-28.9-335.2-99.6c-55-42.4-91.2-84.7-113.5-125.9c-28.4-52.4-34.2-102.8-27.2-149.2
	c10.5-69.7,50.4-130.4,87.8-173.6c15.5-18,32.2-34.9,50-50.7c6.7-5.9,12.2-10.5,16-13.6c1.9-1.5,3.4-2.7,4.4-3.5l1.5-1.1
	c43.2-27.1,62.9-47.7,72-62c8-12.7,7.4-20.5,7-22.7c0.3-90,13.7-154.7,34.3-200.7c20.6-46,48.4-73.5,77.6-89.4
	c37.7-20.4,78.3-21.7,109.5-17.7c12.9,1.7,25.7,4.4,38.2,8.1c4.7,1.4,8.3,2.7,10.8,3.6c1.3,0.5,2.2,0.8,2.9,1.1l0.7,0.3l0.2,0.1
	l0.1,0.1l1.2,0.4l1.9-5.8l-1.1-0.3c-1.8-0.7-23.4-9.5-54.2-13.4c-32-4.1-73.9-2.9-113.2,18.4c-30.5,16.5-59.2,45.1-80.3,92.2
	c-21.1,47.1-34.5,112.7-34.8,203.6l0,0.5l0.1,0.4l0,0c0.1,0.8,1.2,7.6-7.8,20.7c-9,13.2-28.3,32.5-68.6,57.6l-0.2,0.1
	c-0.2,0.1-62.4,46.3-110.4,119.2c-24,36.5-44.5,79.7-51.7,127.3s-1.1,99.6,27.9,153c22.8,42.1,59.7,85,115.1,127.8
	c93.1,71.7,222,110.1,339.3,100.9c69.8-5.5,124.2-21.4,166.3-44.2c53.5-29,87-69.2,106.9-113c29.9-65.7,29.5-139.4,21.8-196.7
	c-7.7-57.3-22.9-98.2-22.9-98.3l-0.1-0.1l-0.1-0.1c-21.3-45.9-26.2-73.3-25.9-88.8c0.1-7.8,1.5-12.6,2.8-15.3c0.4-1,1-1.9,1.6-2.8
	l0.4-0.5l0,0l0.4-0.3l0.3-0.4c49.4-76.2,73.9-138.5,82-189.5c8.1-51-0.3-90.7-16.9-121.1c-21.3-39.3-55.7-63.1-84.7-77.2
	c-27.8-13.5-50.7-18-52.7-18.4l-1.4-0.4L711.3,1171.6z"/>
<path class="st4" d="M419.4,1745l25.2,7.5l50.5-166.3c-8-3.9-15.4-8.8-22.2-14.6L419.4,1745z"/>
<path class="st4" d="M490.8,1766.3l24.2,7.2l52-179.1c-8.5,2-17.2,3-25.9,2.9L490.8,1766.3z"/>
<path class="st4" d="M697.7,1694.7c-8.7-1-23.3,15.3-23.3,15.3c-15.8,17.6-45.2,26.1-67.6,19.2c-15.3-4.7-34-15.7-41.8-30.2
	c-9.7-18.1,1.3-39.7,7.3-56.8c6.7-19,13.9-38,19.8-57.3c-7.3,3.8-15,6.8-23,8.8L516.9,1774l124.2,36.9l-23.2,78.2l-19.8-5.9
	c0,0-75.8-12.4-107.5-5.8c0,0-14.6,3-55.3-9.1s-51.3-22.6-51.3-22.6c-22.9-22.7-93.2-53.8-93.2-53.8l-27.6-8.2l23.2-78.2l111.6,33.2
	l57.9-185.3c-34.8-47.5-24.5-114.2,22.9-149c2.4-1.7,4.8-3.4,7.3-4.9l82.4-255.6l0,0c-0.6-0.2-1.5-0.6-2.7-1
	c-2.4-0.9-5.8-2.1-10.2-3.4c-11.8-3.5-23.8-6-36-7.6c-29.5-3.7-67.9-2.5-103.9,17c-28.3,15.3-55.2,41.9-75.4,86.8
	c-20.2,44.9-33.4,107.9-34.2,195.9c0.4,2.1,1,9.6-6.7,22c-8.7,13.9-27.6,34.1-69.1,60.5l-1.4,1.1c-1,0.8-2.4,1.9-4.3,3.4
	c-3.7,3-9,7.5-15.4,13.3c-17.2,15.5-33.3,32.2-48.3,49.8c-36,42.4-74.4,101.9-84.5,169.9c-6.7,45.3-0.9,94.5,26.7,145.4
	c21.2,39.1,55.3,79.2,106.6,119.3c87.2,68.2,209,104.4,319.5,95c64.8-5.5,115.3-20.6,154.4-41.7c47.7-25.8,78.5-60.8,98-99.4
	c19.5-38.6,27.5-80.8,29.2-120.8c3.4-80.1-18.4-151.4-23.6-166.9c-0.6-1.9-1-2.9-1-3c-20.2-44.8-25.1-72-24.8-88.4
	c0.3-14.6,4.9-20.6,6.4-22.1c47.4-74.1,70.7-134.2,78.4-182.7s-0.4-85.6-15.7-113.9c-18.3-33.7-47.1-55.2-72.7-68.4
	c-15.9-8.3-32.8-14.6-50.3-18.7l-56.2,206C793.4,1501.1,697.7,1694.7,697.7,1694.7z"/>
<path class="st4" d="M516.7,1594.1c-1.6-0.4-3.3-0.7-4.9-1.2c-5.2-1.6-10.2-3.5-15-5.8l-50.4,166l20.9,6.2L516.7,1594.1z"/>
<path class="st4" d="M539.1,1597.2c-6.9-0.2-13.8-1.1-20.5-2.6l-49.5,165.2l19.8,5.9L539.1,1597.2z"/>
<path class="st4" d="M471.3,1570.3c-5.1-4.5-9.8-9.6-13.9-15l-57.5,184l17.6,5.2L471.3,1570.3z"/>
<path class="st3" d="M757.8,1203.8c25.6,13.3,54.4,34.7,72.7,68.4c15.3,28.3,23.3,65.3,15.7,113.9c-7.6,48.6-30.9,108.6-78.4,182.7
	c-1.5,1.5-6.1,7.5-6.4,22.1c-0.3,16.4,4.5,43.6,24.8,88.4c0.1,0.2,0.4,1.2,1,3c5.2,15.5,27,86.8,23.6,166.9
	c-1.7,40-9.7,82.3-29.2,120.8s-50.3,73.6-98,99.4c-39.1,21.2-89.6,36.2-154.4,41.7c-110.5,9.4-232.3-26.8-319.5-95
	c-51.3-40.1-85.4-80.2-106.6-119.3c-27.6-50.9-33.4-100-26.7-145.4c10-68,48.5-127.5,84.5-169.9c15-17.6,31.1-34.3,48.3-49.8
	c6.5-5.8,11.7-10.3,15.4-13.3c1.8-1.5,3.3-2.7,4.3-3.4l1.4-1.1c41.5-26.5,60.4-46.6,69.1-60.5c7.7-12.4,7.2-19.9,6.7-22
	c0.7-88,14-151,34.2-195.9c20.1-44.8,47.1-71.5,75.4-86.8c36-19.5,74.4-20.7,103.9-17c12.2,1.6,24.3,4.1,36.1,7.6
	c4.4,1.3,7.9,2.6,10.2,3.4c1.2,0.4,2.1,0.8,2.7,1l0,0l1.8-5.6c-16.1-6-32.9-10.1-50-12.2c-30.3-3.8-70-2.7-107.5,17.6
	c-29.4,15.9-57.3,43.7-77.9,89.6c-20.6,45.9-33.9,109.9-34.6,198.6l0,0.4l0.1,0.4c0,0,1.6,6.2-6.7,19c-8.3,12.8-26.8,32.1-66.6,57.5
	l-0.1,0.1l-0.1,0.1c-0.2,0.1-60.2,45.5-106.5,117c-23.1,35.7-42.8,78-49.7,124.5c-6.9,46.5-0.9,97.1,27.3,149
	c21.6,40,56.3,80.7,108.1,121.1c88.6,69.2,211.5,105.7,323.6,96.2c65.5-5.6,116.8-20.8,156.7-42.4c52-28.2,84.7-67.2,104.2-109.9
	c29.4-64,29.6-135.8,22.5-191.7c-7.1-55.8-21.4-95.7-21.5-95.9l-0.1-0.1l-0.1-0.1c-20.1-44.4-24.7-70.9-24.4-86
	c0.2-7.5,1.5-12.2,2.7-14.9c0.4-1,0.9-1.9,1.6-2.7l0.4-0.5l0.1,0l0.3-0.2l0.2-0.4c47.8-74.7,71.6-135.6,79.3-185.2
	c7.8-49.6-0.4-88.1-16.3-117.6c-20.3-37.5-52.9-60.1-80.4-73.5c-14.7-7.2-30.2-12.8-46.2-16.6l-1.6,5.7
	C724.9,1189.2,741.9,1195.5,757.8,1203.8z"/>
<path class="st5" d="M593.2,1584.4c-0.4,0.2-0.7,0.3-1.1,0.5c-6,19.3-13.1,38.3-19.8,57.3c-6.1,17.1-17.1,38.7-7.3,56.8
	c7.9,14.5,26.5,25.4,41.8,30.2c22.4,6.9,51.8-1.5,67.6-19.2c0,0,14.6-16.3,23.3-15.3c0,0,95.7-193.6-46.2-303.6l-13.9,51
	C663.8,1493.7,644.2,1556.8,593.2,1584.4L593.2,1584.4z"/>
<polygon class="st5" points="467.3,1759.3 446.4,1753.1 437.9,1781 458.9,1787.3 "/>
<polygon class="st5" points="482.5,1794.3 506.9,1801.5 515,1773.5 490.8,1766.3 "/>
<polygon class="st5" points="417.6,1744.5 399.9,1739.3 391.2,1767.2 408.9,1772.4 "/>
<polygon class="st5" points="410.8,1773 436.1,1780.5 444.6,1752.5 419.4,1745 "/>
<polygon class="st5" points="489,1765.7 469.1,1759.8 460.7,1787.8 480.6,1793.7 "/>
<path class="st5" d="M263.2,1783.7l27.6,8.2c0,0,70.3,31.1,93.2,53.8c0,0,10.6,10.5,51.3,22.6c40.7,12.1,55.3,9.1,55.3,9.1
	c31.6-6.5,107.5,5.8,107.5,5.8l19.8,5.9l23.2-78.2L516.9,1774l-8.1,28l56.8,16.9l-4.4,14.8l-56.7-16.8l-1.9,6.7l-1.8-0.5l1.9-6.7
	l-24.5-7.3l-2,6.8l-1.8-0.5l2-6.7l-19.9-5.9l-2,6.7l-1.8-0.5l2-6.7l-21.1-6.3l-2.1,6.7l-1.8-0.6l2.1-6.7l-25.3-7.5l-2.1,6.7
	l-1.8-0.6l2.1-6.7l-17.8-5.3l-2.1,6.7l-1.9-0.6l2.1-6.7l-50.1-14.9l4.4-14.8l50.3,14.9l8.7-27.9l-111.7-33.2L263.2,1783.7z"/>
<path class="st2" d="M875.8,475.7l14.7,4.4l26-89.4c-2.5-0.8-4.9-2.1-7.1-3.7L875.8,475.7z"/>
<path class="st2" d="M907.9,385.6c-2-1.8-3.6-3.9-4.9-6.2c-2-3.7-2.9-7.8-2.8-11.9l-43.4,102.5l17.1,5.1L907.9,385.6z"/>
<path class="st2" d="M839.2,366L816,457.9l19,5.6l21-106.8C851.9,362,845.9,365.4,839.2,366L839.2,366z"/>
<path class="st2" d="M837.2,366c-2.4,0.1-4.7-0.2-7-0.9c-0.1,0-0.1-0.1-0.2-0.1l-28.2,88.7l12.3,3.7L837.2,366z"/>
<path class="st2" d="M816,353.6c-3-5.5-3.7-12-1.9-18.1l63.5-213.6c3.7-12.6,17-19.8,29.6-16.1c6.1,1.8,11.2,5.9,14.2,11.5
	c3,5.6,3.7,12.1,1.9,18.2l-63.5,213.6c-0.2,0.8-0.6,1.5-0.9,2.3l-22.2,112.7l18.3,5.4l47-110.9l62.7-210.9
	c1.8-6.1,5.9-11.2,11.5-14.2l0,0c11.6-6.3,26-2,32.3,9.6c0,0,0,0,0,0c3.1,5.6,3.7,12.1,1.9,18.2L946.8,375
	c-3.6,12.2-16.1,19.3-28.4,16.2l-26,89.4l2.8,0.8c5-10.7,18.9-34.7,49.3-54.5l92.2-310.2c-23.8-5.9-45-16.4-60.4-29.8
	c-2.4-2.2-4.6-4.8-6.3-7.7c-0.8-1.3-1.6-2.5-2.6-3.6c-3-3.6-6.6-3.2-15.1-0.1c-8.8,3.3-17.4,3-25.7,2.8l-1.3,0
	c-15.1-0.5-30.1-3.1-44.4-7.8c-0.9-0.3-1.9-0.6-2.8-0.9l-92.3,310.4c14.6,33.2,13.1,60.9,11.5,72.6l2.5,0.7l28.3-88.8
	C823,362.3,818.7,358.5,816,353.6z"/>
<polygon class="st3" points="814.1,457.4 801.8,453.7 799.9,459.6 812.6,463.4 "/>
<path class="st3" d="M909.4,387c2.1,1.6,4.5,2.9,7.1,3.7l1.7-5.9c-2.4-0.8-4.6-2.2-6.4-4L909.4,387z"/>
<path class="st3" d="M820.1,337.3l0.8-2.5l3.2-10.8l23.6-79.3l3.2-10.8l25.5-85.6l3.2-10.8l4-13.6c2.8-9.4,12.6-14.7,22-11.9
	c9.4,2.8,14.7,12.6,11.9,22l0,0l-4,13.6l-3.2,10.8l-25.5,85.6l-3.2,10.8L871,289.8l-12.1,61.6c0.3-0.7,0.7-1.5,0.9-2.3l63.5-213.6
	c1.8-6.1,1.1-12.6-1.9-18.2c-6.2-11.6-20.7-15.9-32.3-9.6c-5.6,3-9.7,8.1-11.5,14.2l-63.5,213.6c-1.8,6-1.1,12.5,1.9,18.1
	c2.6,4.9,7,8.7,12.2,10.7l1.9-5.9C821.8,355,817.5,345.9,820.1,337.3L820.1,337.3z"/>
<polygon class="st3" points="835.5,470.2 852.6,475.2 855,469.5 836.7,464.1 "/>
<polygon class="st3" points="874,475.2 856.8,470.1 854.4,475.8 871.8,481 "/>
<path class="st3" d="M1044.5,112.2c-22.6-4.8-46.6-14.6-64.1-30c-3.5-3.1-5.2-7.1-8.1-10.6c-6.2-7.5-14.4-4.7-22-2
	c-8.2,3-16.2,2.7-24.8,2.5c-14.5-0.4-28.9-3-42.6-7.5c-3-0.9-5.9-1.9-8.8-3l-20.2,68l-3.2,10.8l-25.5,85.7l-3.2,10.8l-23.6,79.3
	l-3.2,10.8l-15.8,53.2c19.5,42.6,11.1,76.4,11.1,76.5l7.7,2.3l1.9-5.9l-2.5-0.7c1.6-11.7,3.1-39.4-11.5-72.6l92.2-310.3
	c1,0.3,1.9,0.6,2.8,0.9c14.4,4.7,29.3,7.3,44.4,7.8l1.3,0c8.3,0.2,16.8,0.4,25.7-2.8c8.6-3.1,12.1-3.5,15.1,0.1
	c0.9,1.2,1.8,2.4,2.6,3.6c1.7,2.9,3.8,5.4,6.3,7.7c15.4,13.5,36.6,23.9,60.4,29.9L944.5,427c-30.3,19.9-44.3,43.8-49.3,54.5
	l-2.8-0.8l-1.7,5.9l7.1,2.1l0,0l1,0.3c0,0,11.4-33,51-58l15.8-53.2l3.2-10.8l23.6-79.3l3.2-10.8l25.5-85.6l3.2-10.8L1044.5,112.2z"
	/>
<path class="st3" d="M854.7,344.8l-0.8,2.5c-1.3,4.5-4.4,8.2-8.5,10.5c-1.4,0.7-2.9,1.3-4.5,1.6l-1.7,6.6c6.6-0.6,12.7-4,16.7-9.3
	l9.4-47.5l-7.4,24.7L854.7,344.8z"/>
<polygon class="st3" points="814.4,463.9 833.7,469.6 834.9,463.5 816,457.9 "/>
<path class="st3" d="M907.9,385.6l2.4-6.3c-3.7-4.5-4.9-10.6-3.3-16.2l0.8-2.5l3.2-10.8l7.6-25.6l-18.4,43.4
	c-0.2,4.1,0.8,8.3,2.8,11.9C904.3,381.8,905.9,383.9,907.9,385.6z"/>
<polygon class="st3" points="873.7,481.5 888.8,486 890.5,480.1 875.8,475.7 "/>
<path class="st3" d="M923.5,307.7l11.1-37.3l3.2-10.8l25.5-85.6l3.2-10.8l4-13.6c2.7-9.3,12.5-14.7,21.9-12
	c4.5,1.3,8.3,4.4,10.6,8.6c2.3,4.1,2.8,9,1.4,13.5l-4,13.6l-3.2,10.8l-25.5,85.6l-3.2,10.8l-23.6,79.3l-3.2,10.8l-0.7,2.5
	c-2.6,8.9-11.8,14.2-20.8,12.1l-1.7,5.9c12.3,3.1,24.9-4.1,28.4-16.2l63.5-213.6c3.7-12.6-3.4-25.9-16-29.6
	c-6.1-1.8-12.6-1.2-18.2,1.9l0,0c-5.6,3-9.7,8.1-11.5,14.2L902,358.6L923.5,307.7z"/>
<path class="st3" d="M837.2,366l1.6-6.2c-2.3,0.2-4.6,0-6.8-0.6c0,0-0.1,0-0.1,0L830,365c0.1,0,0.2,0.1,0.2,0.1
	C832.5,365.8,834.9,366.1,837.2,366z"/>
<polygon class="st6" points="721.7,759 707.6,754.9 688.9,814.6 703.3,818.8 "/>
<polygon class="st6" points="710.5,1021.3 691.9,1015.8 680.6,1053.6 699.2,1059.1 "/>
<polygon class="st6" points="741.7,694.3 727.8,690.2 709.7,748.3 723.8,752.5 "/>
<polygon class="st6" points="701.1,1059.6 720.6,1065.4 731.6,1027.6 712.3,1021.8 "/>
<polygon class="st6" points="783.6,558.7 770.1,554.7 750.8,616.7 764.4,620.8 "/>
<polygon class="st6" points="762.4,627.4 748.7,623.3 729.9,683.6 743.7,687.7 "/>
<polygon class="st6" points="633,1046.6 617.8,1042.1 607.3,1075.9 622.5,1080.4 "/>
<polygon class="st6" points="685.2,1106.3 666.5,1100.7 656.5,1133.9 675.3,1139.5 "/>
<polygon class="st6" points="701.3,825.4 686.9,821.2 669.7,876 684.3,880.3 "/>
<polygon class="st6" points="663.1,948.9 648.3,944.5 633.7,991.3 648.7,995.7 "/>
<polygon class="st6" points="714.3,1015.2 733.5,1020.9 747.2,973.9 728.3,968.2 "/>
<polygon class="st6" points="646.6,1002.3 631.7,997.8 619.9,1035.5 635,1040 "/>
<polygon class="st6" points="689,1100.2 708.8,1106.1 718.7,1072.1 699.1,1066.3 "/>
<polygon class="st6" points="682.3,886.9 667.7,882.6 650.4,937.9 665.2,942.3 "/>
<polygon class="st6" points="697.3,1065.7 678.6,1060.2 668.5,1094.1 687.2,1099.7 "/>
<polygon class="st6" points="802.4,712.4 784.4,707 766.9,765.3 785,770.7 "/>
<polygon class="st6" points="842.9,576.4 825.1,571.1 806.5,633.3 824.4,638.6 "/>
<polygon class="st6" points="822.4,645.2 804.5,639.9 786.3,700.4 804.4,705.8 "/>
<polygon class="st6" points="783.1,777.3 764.9,771.9 747,831.8 765.2,837.3 "/>
<polygon class="st6" points="826.2,639.1 842.9,644.1 861,581.8 844.7,576.9 "/>
<polygon class="st6" points="866.4,497.2 848.8,491.9 827,564.5 844.8,569.8 "/>
<polygon class="st6" points="846.7,570.3 862.9,575.2 884,502.4 868.3,497.7 "/>
<polygon class="st6" points="665.9,1178 686.2,1184 695.3,1152.6 675.2,1146.6 "/>
<polygon class="st6" points="806.2,706.3 823.4,711.4 841,650.7 824.2,645.7 "/>
<polygon class="st6" points="767.1,837.8 785.1,843.2 802.6,783.1 784.9,777.8 "/>
<polygon class="st6" points="748.7,899.5 767.2,905 783.2,849.8 765.1,844.4 "/>
<polygon class="st6" points="807.9,479.8 794.8,475.9 772.2,548.2 785.6,552.2 "/>
<polygon class="st6" points="730.2,961.6 749.1,967.2 765.3,911.6 746.8,906.1 "/>
<polygon class="st6" points="763.3,843.9 745,838.4 728.5,893.5 746.9,898.9 "/>
<polygon class="st6" points="726.4,967.7 708,962.2 693.9,1009.2 712.5,1014.7 "/>
<polygon class="st6" points="677.1,1140 697.2,1146 706.9,1112.7 687,1106.8 "/>
<polygon class="st6" points="620.5,1087 605.2,1082.5 594.9,1115.6 610.3,1120.2 "/>
<polygon class="st6" points="744.9,905.5 726.6,900.1 709.9,955.6 728.4,961.1 "/>
<polygon class="st6" points="786.9,771.2 804.5,776.5 821.4,718 804.2,712.9 "/>
<polygon class="st6" points="802.6,639.3 786.4,634.5 768,695 784.5,699.9 "/>
<polygon class="st6" points="793,475.3 788.5,474 765.3,546.1 770.3,547.6 "/>
<polygon class="st6" points="787,843.7 795.9,846.4 812.4,786 804.4,783.6 "/>
<polygon class="st6" points="769,905.5 779,908.5 794.1,853 785,850.3 "/>
<polygon class="st6" points="782.5,706.5 766,701.5 748.3,759.8 765.1,764.8 "/>
<polygon class="st6" points="823.2,570.5 807.2,565.8 788.3,627.9 804.6,632.7 "/>
<polygon class="st6" points="750.9,967.8 762,971.1 777.2,915.1 767.1,912.1 "/>
<polygon class="st6" points="724.7,899.5 707.4,894.4 690.5,949.8 708.1,955.1 "/>
<polygon class="st6" points="869.3,577.1 889.3,503.9 885.9,502.9 864.8,575.7 "/>
<polygon class="st6" points="667,942.8 688.7,949.3 705.5,893.8 684.1,887.5 "/>
<polygon class="st6" points="825.2,712 832,714 848.6,653 842.8,651.3 "/>
<polygon class="st6" points="763.1,771.3 746.3,766.3 728.1,826.2 745.2,831.3 "/>
<polygon class="st6" points="743.2,837.9 726.1,832.8 709.4,887.8 726.7,892.9 "/>
<polygon class="st6" points="735.3,1021.5 747.3,1025 760.1,977.7 749,974.4 "/>
<polygon class="st6" points="806.3,777 814.2,779.4 830.2,720.6 823.3,718.6 "/>
<polygon class="st6" points="844.7,644.6 850.5,646.3 867.5,583.7 862.8,582.3 "/>
<polygon class="st6" points="745.6,688.3 766.1,694.4 784.5,633.9 764.2,627.9 "/>
<polygon class="st6" points="600.4,1158.5 623,1165.2 632.5,1134 610.1,1127.3 "/>
<polygon class="st6" points="725.6,753 746.4,759.2 764.1,701 743.5,694.9 "/>
<polygon class="st6" points="768.3,554.2 763.2,552.7 743.3,614.5 748.9,616.2 "/>
<polygon class="st6" points="705.1,819.4 726.2,825.7 744.4,765.8 723.6,759.6 "/>
<polygon class="st6" points="705.8,754.3 698.9,752.3 679.7,811.8 687.1,814 "/>
<polygon class="st6" points="787.4,552.7 807.4,558.7 829.4,486.2 809.8,480.3 "/>
<polygon class="st6" points="726,689.6 719.7,687.8 701,745.7 707.8,747.7 "/>
<polygon class="st6" points="746.9,622.7 741.2,621 721.8,681.2 728,683.1 "/>
<polygon class="st6" points="710.6,1106.6 723.9,1110.6 733.2,1076.4 720.5,1072.6 "/>
<polygon class="st6" points="722.4,1066 735.1,1069.8 745.4,1031.7 733.4,1028.1 "/>
<polygon class="st6" points="699,1146.5 713,1150.7 722.1,1117.2 708.7,1113.3 "/>
<polygon class="st6" points="686.1,880.9 707.5,887.2 724.2,832.3 703.1,826 "/>
<polygon class="st6" points="847,491.4 831.3,486.7 809.2,559.2 825.2,564 "/>
<polygon class="st6" points="688,1184.5 702.6,1188.9 711.2,1157.4 697.1,1153.2 "/>
<polygon class="st6" points="766.3,621.3 786.5,627.3 805.4,565.2 785.4,559.3 "/>
<polygon class="st6" points="646.5,943.9 637.9,941.4 622.9,988 631.9,990.7 "/>
<polygon class="st6" points="664.6,1100.2 646.5,1094.8 636.4,1127.9 654.7,1133.4 "/>
<polygon class="st6" points="612.1,1120.7 634.6,1127.4 644.6,1094.2 622.3,1087.6 "/>
<polygon class="st6" points="624.4,1081 646.6,1087.6 656.9,1053.7 634.8,1047.2 "/>
<polygon class="st6" points="603.4,1081.9 593.6,1079 582.9,1112 593,1115 "/>
<polygon class="st6" points="629.8,997.3 620.8,994.6 608.7,1032.2 618,1035 "/>
<polygon class="st6" points="650.5,996.3 672.4,1002.8 686.7,955.9 665,949.4 "/>
<polygon class="st6" points="616,1041.6 606.5,1038.8 595.7,1072.5 605.4,1075.4 "/>
<polygon class="st6" points="706.1,961.7 688.5,956.4 674.3,1003.3 692.1,1008.6 "/>
<polygon class="st6" points="685,820.6 677.6,818.4 659.9,873.1 667.9,875.5 "/>
<polygon class="st6" points="690.1,1015.2 672.2,1009.9 660.8,1047.7 678.8,1053 "/>
<polygon class="st6" points="665.8,882 657.8,879.6 640,934.8 648.6,937.4 "/>
<polygon class="st6" points="676.8,1059.6 658.8,1054.3 648.5,1088.2 666.6,1093.6 "/>
<polygon class="st6" points="636.8,1040.6 658.9,1047.1 670.4,1009.4 648.5,1002.9 "/>
<polygon class="st6" points="536.3,1296.5 524.6,1293 516.9,1316.9 528.9,1320.4 "/>
<polygon class="st6" points="619.3,1251.6 600.5,1246 592.2,1273.2 611.2,1278.8 "/>
<polygon class="st6" points="526.8,1327 514.8,1323.4 508,1344.6 520.2,1348.2 "/>
<polygon class="st6" points="662.1,1184 643.2,1178.4 633.7,1210.3 652.6,1215.9 "/>
<path class="st6" d="M577.9,1389.8l4.7-15.8l-19.3-5.7l-5,16.6c4.9,0.7,9.7,1.7,14.4,3.1C574.5,1388.5,576.2,1389.2,577.9,1389.8z"
	/>
<polygon class="st6" points="588.6,1196.9 611.4,1203.7 621,1171.8 598.4,1165.1 "/>
<polygon class="st6" points="591,1346.1 571.8,1340.3 565.3,1361.6 584.6,1367.4 "/>
<polygon class="st6" points="673.3,1146.1 654.6,1140.5 645.2,1171.8 664,1177.4 "/>
<polygon class="st6" points="609.2,1285.4 590.2,1279.8 583.1,1303.2 602.2,1308.8 "/>
<path class="st6" d="M531.3,1382.4l4.8,1.4c6.7-0.4,13.5-0.1,20.2,0.8l5.1-16.9l-23.5-7L531.3,1382.4z"/>
<polygon class="st6" points="600.2,1315.4 581.1,1309.8 573.8,1333.8 593,1339.5 "/>
<polygon class="st6" points="518.1,1354.8 505.9,1351.1 498.9,1372.7 511.3,1376.4 "/>
<polygon class="st6" points="558.1,1295.7 581.3,1302.6 588.4,1279.2 565.3,1272.3 "/>
<polygon class="st6" points="540.1,1354.1 563.5,1361.1 570,1339.8 546.6,1332.9 "/>
<polygon class="st6" points="652.7,1140 634.4,1134.5 624.9,1165.8 643.4,1171.3 "/>
<polygon class="st6" points="548.6,1326.3 572,1333.2 579.3,1309.2 556,1302.3 "/>
<polygon class="st6" points="641.4,1177.9 622.9,1172.4 613.2,1204.2 631.8,1209.8 "/>
<polygon class="st6" points="577.7,1232 600.7,1238.9 609.3,1210.3 586.5,1203.5 "/>
<polygon class="st6" points="629.8,1216.4 611.2,1210.9 602.5,1239.4 621.3,1245 "/>
<polygon class="st6" points="567.3,1265.8 590.4,1272.6 598.7,1245.5 575.7,1238.6 "/>
<polygon class="st6" points="556.2,1232.8 545.1,1229.5 536.4,1256.6 547.7,1259.9 "/>
<polygon class="st6" points="544.8,1332.3 528.6,1327.5 522,1348.8 538.2,1353.6 "/>
<polygon class="st6" points="536.2,1360.2 519.9,1355.3 513.2,1377 529.5,1381.8 "/>
<polygon class="st6" points="545.7,1266.5 534.2,1263.1 526.7,1286.4 538.4,1289.9 "/>
<path class="st6" d="M620.3,1417.5c5.6,6,10.5,12.6,14.6,19.7l4.3-15.6l-18.4-5.5L620.3,1417.5z"/>
<path class="st6" d="M507.2,1389.6l2-6.6l-12.5-3.7l-5.5,17.2l0.1-0.1C496.5,1393.7,501.8,1391.4,507.2,1389.6z"/>
<polygon class="st6" points="608.2,1126.8 592.8,1122.2 583.1,1153.4 598.6,1158 "/>
<polygon class="st6" points="584.7,1203 569,1198.3 560.1,1226.8 575.9,1231.5 "/>
<polygon class="st6" points="596.6,1164.5 581,1159.9 571.1,1191.7 586.7,1196.4 "/>
<polygon class="st6" points="573.9,1238.1 558,1233.4 549.6,1260.5 565.5,1265.2 "/>
<polygon class="st6" points="563.5,1271.8 547.5,1267.1 540.2,1290.4 556.2,1295.2 "/>
<path class="st6" d="M511.1,1383.6l-1.6,5.2c3.3-1.1,6.6-1.9,9.9-2.7L511.1,1383.6z"/>
<polygon class="st6" points="676.8,1223.1 692,1227.7 700.8,1195.5 686.1,1191.2 "/>
<polygon class="st6" points="591,1121.6 580.8,1118.6 570.8,1149.7 581.2,1152.8 "/>
<polygon class="st6" points="666.5,1258.4 682.3,1263.1 690.2,1234.4 674.9,1229.8 "/>
<polygon class="st6" points="567.2,1197.8 556.3,1194.6 547.2,1223 558.3,1226.2 "/>
<polygon class="st6" points="579.2,1159.4 568.7,1156.3 558.5,1188 569.2,1191.2 "/>
<polygon class="st6" points="639,1353.1 656.4,1358.3 663,1334.1 646,1329.1 "/>
<polygon class="st6" points="630.9,1381.1 648.7,1386.4 654.6,1365 637.1,1359.8 "/>
<polygon class="st6" points="622.7,1409.5 641,1415 646.9,1393.1 629,1387.7 "/>
<polygon class="st6" points="656.7,1292.3 673.1,1297.2 680.5,1269.8 664.6,1265.1 "/>
<polygon class="st6" points="648,1322.4 664.8,1327.4 671.3,1303.8 654.8,1298.9 "/>
<polygon class="st6" points="554.2,1301.8 538.2,1297 530.7,1320.9 546.8,1325.7 "/>
<path class="st6" d="M618.8,1415.9l0.1-0.3l-0.5-0.1C618.6,1415.6,618.7,1415.7,618.8,1415.9z"/>
<path class="st6" d="M599.7,1400.3c2,1.3,4,2.7,6,4.1l15.2,4.5l6.3-21.8l-21.7-6.4L599.7,1400.3z"/>
<path class="st6" d="M603.7,1380.2l-19.2-5.7l-4.8,15.9c6.4,2.4,12.5,5.4,18.3,8.9L603.7,1380.2z"/>
<polygon class="st6" points="607.5,1374.2 629.1,1380.6 635.3,1359.2 613.8,1352.8 "/>
<polygon class="st6" points="615.8,1346.2 637.2,1352.6 644.2,1328.5 622.9,1322.2 "/>
<polygon class="st6" points="630.1,1291.6 611,1285.9 604,1309.4 623.1,1315 "/>
<polygon class="st6" points="621.1,1321.7 602,1316 594.8,1340 614,1345.7 "/>
<polygon class="st6" points="640.1,1257.8 621.1,1252.1 613,1279.3 632,1285 "/>
<polygon class="st6" points="612,1352.3 592.9,1346.6 586.5,1367.9 605.6,1373.6 "/>
<polygon class="st6" points="643.9,1251.7 664.7,1257.9 673,1229.3 652.4,1223.1 "/>
<polygon class="st6" points="633.8,1285.5 654.9,1291.8 662.8,1264.5 642,1258.3 "/>
<polygon class="st6" points="654.4,1216.5 674.9,1222.6 684.2,1190.6 663.9,1184.6 "/>
<polygon class="st6" points="624.9,1315.6 646.1,1321.9 652.9,1298.4 631.9,1292.1 "/>
<polygon class="st6" points="650.6,1222.6 631.7,1217 623.1,1245.5 642.1,1251.2 "/>
<polygon class="st7" points="809.8,480.3 829.4,486.2 830,484.3 810.3,478.5 "/>
<polygon class="st7" points="868.3,497.7 884,502.4 884.6,500.6 868.8,495.9 "/>
<path class="st7" d="M890.6,501.9l-0.1,0.4l-4.1-1.2l-0.5,1.8l3.4,1l-19.9,73.1l0.7,0.2l-1.8,6.6l-0.6-0.2l-17.1,62.6l0.6,0.2
	l-1.8,6.7l-0.6-0.2L832,714l0.6,0.2l-1.8,6.7l-0.6-0.2l-16,58.7l0.6,0.2l-1.8,6.7l-0.6-0.2L796,846.4l0.6,0.2l-1.8,6.6l-0.7-0.2
	L779,908.5l0.6,0.2l-1.8,6.6l-0.6-0.2L762,971.1l0.6,0.2l-1.8,6.7l-0.7-0.2l-12.9,47.2l0.6,0.2l-1.8,6.7l-0.6-0.2l-10.4,38.1
	l0.6,0.2l-1.8,6.7l-0.6-0.2l-9.3,34.2l0.7,0.2l-1.8,6.7l-0.7-0.2l-9.1,33.5l0.6,0.2l-1.8,6.7l-0.6-0.2l-8.6,31.5l0.7,0.2l-1.8,6.6
	l-0.7-0.2l-8.7,32.1l0.6,0.2l-1.8,6.7l-0.6-0.2l-7.8,28.8l0.6,0.2l-1.8,6.7l-0.6-0.2l-7.5,27.4l0.7,0.2l-1.8,6.7l-0.6-0.2l-6.4,23.6
	l0.6,0.2l-1.8,6.7l-0.6-0.2l-6.6,24.2l0.6,0.2l-1.8,6.6l-0.7-0.2l-5.9,21.5l0.7,0.2l-1.8,6.7l-0.7-0.2l-6,21.9l0.7,0.2l-1.8,6.7
	l-0.7-0.2l-4.3,15.6c0.4,0.8,1,1.5,1.4,2.3c0.4,0.8,0.8,1.7,1.3,2.6l13.9-51l56.2-206.1l1.6-5.7l2.1-7.8l1.6-5.9l180.7-663.2
	l-0.1,0.2L890.6,501.9z"/>
<path class="st7" d="M573,1130.5l-2.6,7.9l-1.8,5.6l-82.4,255.6l0.9-0.5l0.5-1.4l1.3,0.4c0.8-0.4,1.6-1,2.4-1.4l5.6-17.3l-3-0.9
	l2.1-6.6l3,0.9l7-21.6l-3-0.9l2.1-6.6l3,0.9l6.8-21.2l-3-0.9l2.1-6.5l3,0.9l7.7-23.9l-3-0.9l2.1-6.6l3,0.9l7.5-23.2l-3.1-0.9
	l2.1-6.5l3,0.9l8.7-27l-3-0.9l2.1-6.6l3,0.9l9.1-28.4l-3-0.9l2.1-6.6l2.9,0.9l10.2-31.7l-3-0.9l2.1-6.6l3,0.9l10-31.1l-3-0.9
	l2.1-6.5l3,0.9l10.6-33l-3-0.9l2.1-6.6l3,0.9l10.9-33.7l-2.9-0.8l2.1-6.6l2.9,0.9l12.1-37.6l-3-0.9l2.1-6.6l3,0.9l15-46.7l-3-0.9
	l2.1-6.6l3,0.9l17.8-55.2l-3-0.9l2.1-6.5l2.9,0.9l17.6-54.7l-3-0.9l2.1-6.6l3,0.9l19.2-59.6l-3-0.9l2.1-6.6l3,0.9l18.7-57.9l-3-0.9
	l2.1-6.5l3,0.9l19.4-60.1l-3-0.9l2.1-6.6l2.9,0.9l20-61.8l-3-0.9l2.1-6.6l3,0.9l23.2-72.1l4.4,1.3l0.6-1.8l-7.4-2.2l0.1-0.4
	l-0.6-0.2l-210.8,654L573,1130.5z"/>
<polygon class="st7" points="808.5,477.9 795.4,474 794.8,475.9 807.9,479.8 "/>
<polygon class="st7" points="847.5,489.5 831.8,484.9 831.3,486.7 847,491.4 "/>
<rect x="857" y="484.5" transform="matrix(0.2847 -0.9586 0.9586 0.2847 140.427 1175.5341)" class="st7" width="1.9" height="18.4"/>
<path class="st7" d="M487.6,1397.6l-0.5,1.4c0.6-0.3,1.1-0.7,1.7-1L487.6,1397.6z"/>
<path class="st7" d="M528.7,1384.4l0.8-2.6l-16.3-4.8l-2.1,6.6l8.3,2.5C522.5,1385.3,525.6,1384.9,528.7,1384.4z"/>
<polygon class="st7" points="620.8,1416.1 639.2,1421.6 639.8,1421.8 641.6,1415.2 641,1415 622.7,1409.5 "/>
<path class="st7" d="M618.4,1415.4l0.5,0.1l1.9-6.6l-15.2-4.5C610.2,1407.7,614.5,1411.4,618.4,1415.4z"/>
<polygon class="st7" points="511.3,1376.4 498.9,1372.7 495.9,1371.9 493.8,1378.4 496.8,1379.3 509.3,1383 "/>
<path class="st7" d="M531.3,1382.4l-0.6,1.8c1.8-0.2,3.6-0.2,5.4-0.3L531.3,1382.4z"/>
<polygon class="st7" points="520.2,1348.2 508,1344.6 505,1343.7 502.9,1350.3 505.9,1351.1 518.1,1354.8 "/>
<polygon class="st7" points="538.2,1353.6 522,1348.8 519.9,1355.3 536.2,1360.2 "/>
<polygon class="st7" points="584.6,1367.4 565.3,1361.6 563.3,1368.2 582.7,1374 "/>
<polygon class="st7" points="605.5,1380.8 627.2,1387.2 629.1,1380.6 607.5,1374.2 "/>
<polygon class="st7" points="629,1387.7 646.9,1393.1 647.6,1393.3 649.4,1386.6 648.7,1386.4 630.9,1381.1 "/>
<polygon class="st7" points="538,1360.7 561.5,1367.7 563.5,1361.1 540.1,1354.1 "/>
<polygon class="st7" points="605.6,1373.6 586.5,1367.9 584.5,1374.5 603.7,1380.2 "/>
<polygon class="st7" points="528.9,1320.4 516.9,1316.9 513.9,1316 511.8,1322.5 514.8,1323.4 526.8,1327 "/>
<polygon class="st7" points="637.1,1359.8 654.6,1365 655.3,1365.1 657,1358.5 656.4,1358.3 639,1353.1 "/>
<polygon class="st7" points="614,1345.7 594.8,1340 592.9,1346.6 612,1352.3 "/>
<polygon class="st7" points="613.8,1352.8 635.3,1359.2 637.2,1352.6 615.8,1346.2 "/>
<polygon class="st7" points="546.6,1332.9 570,1339.8 572,1333.2 548.6,1326.3 "/>
<polygon class="st7" points="593,1339.5 573.8,1333.8 571.8,1340.3 591,1346.1 "/>
<polygon class="st7" points="546.8,1325.7 530.7,1320.9 528.6,1327.5 544.8,1332.3 "/>
<polygon class="st7" points="602.2,1308.8 583.1,1303.2 581.1,1309.8 600.2,1315.4 "/>
<polygon class="st7" points="623.1,1315 604,1309.4 602,1316 621.1,1321.7 "/>
<polygon class="st7" points="556.2,1295.2 540.2,1290.4 538.2,1297 554.2,1301.8 "/>
<polygon class="st7" points="538.4,1289.9 526.7,1286.4 523.8,1285.5 521.6,1292.1 524.6,1293 536.3,1296.5 "/>
<polygon class="st7" points="622.9,1322.2 644.2,1328.5 646.1,1321.9 624.9,1315.6 "/>
<polygon class="st7" points="646,1329.1 663,1334.1 663.6,1334.3 665.5,1327.6 664.8,1327.4 648,1322.4 "/>
<polygon class="st7" points="556,1302.3 579.3,1309.2 581.3,1302.6 558.1,1295.7 "/>
<polygon class="st7" points="547.7,1259.9 536.4,1256.6 533.4,1255.7 531.2,1262.2 534.2,1263.1 545.7,1266.5 "/>
<polygon class="st7" points="565.5,1265.2 549.6,1260.5 547.5,1267.1 563.5,1271.8 "/>
<rect x="618.1" y="1275.6" transform="matrix(0.2851 -0.9585 0.9585 0.2851 -787.8577 1514.8302)" class="st7" width="6.9" height="19.9"/>
<polygon class="st7" points="654.8,1298.9 671.3,1303.8 671.9,1304 673.7,1297.4 673.1,1297.2 656.7,1292.3 "/>
<polygon class="st7" points="611.2,1278.8 592.2,1273.2 590.2,1279.8 609.2,1285.4 "/>
<polygon class="st7" points="631.9,1292.1 652.9,1298.4 654.9,1291.8 633.8,1285.5 "/>
<polygon class="st7" points="565.3,1272.3 588.4,1279.2 590.4,1272.6 567.3,1265.8 "/>
<polygon class="st7" points="621.3,1245 602.5,1239.4 600.5,1246 619.3,1251.6 "/>
<polygon class="st7" points="558.3,1226.2 547.2,1223 544.2,1222.1 542.1,1228.6 545.1,1229.5 556.2,1232.8 "/>
<polygon class="st7" points="664.6,1265.1 680.5,1269.8 681.2,1270 683,1263.3 682.3,1263.1 666.5,1258.4 "/>
<polygon class="st7" points="642.1,1251.2 623.1,1245.5 621.1,1252.1 640.1,1257.8 "/>
<polygon class="st7" points="642,1258.3 662.8,1264.5 664.7,1257.9 643.9,1251.7 "/>
<polygon class="st7" points="575.7,1238.6 598.7,1245.5 600.7,1238.9 577.7,1232 "/>
<polygon class="st7" points="575.9,1231.5 560.1,1226.8 558,1233.4 573.9,1238.1 "/>
<polygon class="st7" points="569.2,1191.2 558.5,1188 555.5,1187.1 553.4,1193.7 556.3,1194.6 567.2,1197.8 "/>
<polygon class="st7" points="652.6,1215.9 633.7,1210.3 631.7,1217 650.6,1222.6 "/>
<polygon class="st7" points="631.8,1209.8 613.2,1204.2 611.2,1210.9 629.8,1216.4 "/>
<polygon class="st7" points="586.7,1196.4 571.1,1191.7 569,1198.3 584.7,1203 "/>
<polygon class="st7" points="586.5,1203.5 609.3,1210.3 611.4,1203.7 588.6,1196.9 "/>
<polygon class="st7" points="674.9,1229.8 690.2,1234.4 690.8,1234.5 692.6,1227.8 692,1227.7 676.8,1223.1 "/>
<polygon class="st7" points="652.4,1223.1 673,1229.3 674.9,1222.6 654.4,1216.5 "/>
<polygon class="st7" points="686.1,1191.2 700.8,1195.5 701.5,1195.7 703.2,1189.1 702.6,1188.9 688,1184.5 "/>
<polygon class="st7" points="598.4,1165.1 621,1171.8 623,1165.2 600.4,1158.5 "/>
<polygon class="st7" points="663.9,1184.6 684.2,1190.6 686.2,1184 665.9,1178 "/>
<polygon class="st7" points="598.6,1158 583.1,1153.4 581,1159.9 596.6,1164.5 "/>
<polygon class="st7" points="581.2,1152.8 570.8,1149.7 567.8,1148.8 565.7,1155.4 568.7,1156.3 579.2,1159.4 "/>
<polygon class="st7" points="664,1177.4 645.2,1171.8 643.2,1178.4 662.1,1184 "/>
<polygon class="st7" points="643.4,1171.3 624.9,1165.8 622.9,1172.4 641.4,1177.9 "/>
<polygon class="st7" points="654.7,1133.4 636.4,1127.9 634.4,1134.5 652.7,1140 "/>
<polygon class="st7" points="675.3,1139.5 656.5,1133.9 654.6,1140.5 673.3,1146.1 "/>
<polygon class="st7" points="610.1,1127.3 632.5,1134 634.6,1127.4 612.1,1120.7 "/>
<polygon class="st7" points="593,1115 582.9,1112 580,1111.1 577.8,1117.7 580.8,1118.6 591,1121.6 "/>
<polygon class="st7" points="675.2,1146.6 695.3,1152.6 697.2,1146 677.1,1140 "/>
<polygon class="st7" points="697.1,1153.2 711.2,1157.4 711.8,1157.5 713.6,1150.9 713,1150.7 699,1146.5 "/>
<polygon class="st7" points="610.3,1120.2 594.9,1115.6 592.8,1122.2 608.2,1126.8 "/>
<polygon class="st7" points="687,1106.8 706.9,1112.7 708.8,1106.1 689,1100.2 "/>
<polygon class="st7" points="622.3,1087.6 644.6,1094.2 646.6,1087.6 624.4,1081 "/>
<polygon class="st7" points="687.2,1099.7 668.5,1094.1 666.5,1100.7 685.2,1106.3 "/>
<polygon class="st7" points="708.7,1113.3 722.1,1117.2 722.8,1117.4 724.6,1110.8 723.9,1110.6 710.6,1106.6 "/>
<polygon class="st7" points="666.6,1093.6 648.5,1088.2 646.5,1094.8 664.6,1100.2 "/>
<polygon class="st7" points="622.5,1080.4 607.3,1075.9 605.2,1082.5 620.5,1087 "/>
<polygon class="st7" points="605.4,1075.4 595.7,1072.5 592.7,1071.6 590.6,1078.2 593.6,1079 603.4,1081.9 "/>
<polygon class="st7" points="678.8,1053 660.8,1047.7 658.8,1054.3 676.8,1059.6 "/>
<polygon class="st7" points="634.8,1047.2 656.9,1053.7 658.9,1047.1 636.8,1040.6 "/>
<polygon class="st7" points="618,1035 608.7,1032.2 605.7,1031.3 603.6,1037.9 606.5,1038.8 616,1041.6 "/>
<polygon class="st7" points="699.1,1066.3 718.7,1072.1 720.6,1065.4 701.1,1059.6 "/>
<polygon class="st7" points="635,1040 619.9,1035.5 617.8,1042.1 633,1046.6 "/>
<polygon class="st7" points="699.2,1059.1 680.6,1053.6 678.6,1060.2 697.3,1065.7 "/>
<polygon class="st7" points="720.5,1072.6 733.2,1076.4 733.9,1076.6 735.7,1069.9 735.1,1069.8 722.4,1066 "/>
<polygon class="st7" points="712.5,1014.7 693.9,1009.2 691.9,1015.8 710.5,1021.3 "/>
<polygon class="st7" points="733.4,1028.1 745.4,1031.7 746.1,1031.9 747.9,1025.2 747.3,1025 735.3,1021.5 "/>
<polygon class="st7" points="648.5,1002.9 670.4,1009.4 672.4,1002.8 650.5,996.3 "/>
<polygon class="st7" points="692.1,1008.6 674.3,1003.3 672.2,1009.9 690.1,1015.2 "/>
<polygon class="st7" points="712.3,1021.8 731.6,1027.6 733.5,1020.9 714.3,1015.2 "/>
<polygon class="st7" points="631.9,990.7 622.9,988 619.9,987.2 617.8,993.7 620.8,994.6 629.8,997.3 "/>
<polygon class="st7" points="648.7,995.7 633.7,991.3 631.7,997.8 646.6,1002.3 "/>
<polygon class="st7" points="665,949.4 686.7,955.9 688.7,949.3 667,942.8 "/>
<polygon class="st7" points="665.2,942.3 650.4,937.9 648.3,944.5 663.1,948.9 "/>
<polygon class="st7" points="749,974.4 760.1,977.7 760.8,977.9 762.6,971.3 762,971.1 750.9,967.8 "/>
<rect x="714.7" y="952" transform="matrix(0.2849 -0.9586 0.9586 0.2849 -408.2282 1376.0745)" class="st7" width="6.9" height="19.3"/>
<polygon class="st7" points="728.3,968.2 747.2,973.9 749.1,967.2 730.2,961.6 "/>
<polygon class="st7" points="648.6,937.4 640,934.8 637,933.9 634.9,940.5 637.9,941.4 646.5,943.9 "/>
<polygon class="st7" points="708.1,955.1 690.5,949.8 688.5,956.4 706.1,961.7 "/>
<polygon class="st7" points="667.9,875.5 659.9,873.1 657,872.2 654.9,878.8 657.8,879.6 665.8,882 "/>
<polygon class="st7" points="746.8,906.1 765.3,911.6 767.2,905 748.7,899.5 "/>
<polygon class="st7" points="767.1,912.1 777.2,915.1 777.8,915.3 779.6,908.7 779,908.5 769,905.5 "/>
<polygon class="st7" points="726.7,892.9 709.4,887.8 707.4,894.4 724.7,899.5 "/>
<rect x="733.3" y="889.9" transform="matrix(0.2849 -0.9586 0.9586 0.2849 -335.4008 1349.4183)" class="st7" width="6.9" height="19.2"/>
<polygon class="st7" points="684.1,887.5 705.5,893.8 707.5,887.2 686.1,880.9 "/>
<polygon class="st7" points="684.3,880.3 669.7,876 667.7,882.6 682.3,886.9 "/>
<polygon class="st7" points="687.1,814 679.7,811.8 676.7,810.9 674.6,817.5 677.6,818.4 685,820.6 "/>
<polygon class="st7" points="703.1,826 724.2,832.3 726.2,825.7 705.1,819.4 "/>
<polygon class="st7" points="765.2,837.3 747,831.8 745,838.4 763.3,843.9 "/>
<polygon class="st7" points="745.2,831.3 728.1,826.2 726.1,832.8 743.2,837.9 "/>
<polygon class="st7" points="785,850.3 794.1,853 794.8,853.2 796.6,846.6 795.9,846.4 787,843.7 "/>
<polygon class="st7" points="703.3,818.8 688.9,814.6 686.9,821.2 701.3,825.4 "/>
<polygon class="st7" points="765.1,844.4 783.2,849.8 785.1,843.2 767.1,837.8 "/>
<polygon class="st7" points="707.8,747.7 701,745.7 698,744.8 695.9,751.4 698.9,752.3 705.8,754.3 "/>
<polygon class="st7" points="784.9,777.8 802.6,783.1 804.5,776.5 786.9,771.2 "/>
<polygon class="st7" points="723.6,759.6 744.4,765.8 746.4,759.2 725.6,753 "/>
<polygon class="st7" points="765.1,764.8 748.3,759.8 746.3,766.3 763.1,771.3 "/>
<polygon class="st7" points="723.8,752.5 709.7,748.3 707.6,754.9 721.7,759 "/>
<polygon class="st7" points="785,770.7 766.9,765.3 764.9,771.9 783.1,777.3 "/>
<polygon class="st7" points="804.4,783.6 812.4,786 813,786.2 814.8,779.5 814.2,779.4 806.3,777 "/>
<polygon class="st7" points="804.2,712.9 821.4,718 823.4,711.4 806.2,706.3 "/>
<polygon class="st7" points="743.5,694.9 764.1,701 766.1,694.4 745.6,688.3 "/>
<polygon class="st7" points="728,683.1 721.8,681.2 718.8,680.3 716.6,686.9 719.7,687.8 726,689.6 "/>
<polygon class="st7" points="784.5,699.9 768,695 766,701.5 782.5,706.5 "/>
<polygon class="st7" points="804.4,705.8 786.3,700.4 784.4,707 802.4,712.4 "/>
<polygon class="st7" points="823.3,718.6 830.2,720.6 830.8,720.8 832.6,714.2 832,714 825.2,712 "/>
<polygon class="st7" points="743.7,687.7 729.9,683.6 727.8,690.2 741.7,694.3 "/>
<polygon class="st7" points="804.6,632.7 788.3,627.9 786.4,634.5 802.6,639.3 "/>
<polygon class="st7" points="764.4,620.8 750.8,616.7 748.7,623.3 762.4,627.4 "/>
<polygon class="st7" points="824.2,645.7 841,650.7 842.9,644.1 826.2,639.1 "/>
<polygon class="st7" points="748.9,616.2 743.3,614.5 740.3,613.6 738.2,620.2 741.2,621 746.9,622.7 "/>
<polygon class="st7" points="842.8,651.3 848.6,653 849.3,653.2 851.1,646.5 850.5,646.3 844.7,644.6 "/>
<polygon class="st7" points="764.2,627.9 784.5,633.9 786.5,627.3 766.3,621.3 "/>
<polygon class="st7" points="824.4,638.6 806.5,633.3 804.5,639.9 822.4,645.2 "/>
<polygon class="st7" points="770.3,547.6 765.3,546.1 762.3,545.3 760.2,551.8 763.2,552.7 768.3,554.2 "/>
<polygon class="st7" points="785.4,559.3 805.4,565.2 807.4,558.7 787.4,552.7 "/>
<polygon class="st7" points="825.2,564 809.2,559.2 807.2,565.8 823.2,570.5 "/>
<polygon class="st7" points="862.8,582.3 867.5,583.7 868.2,583.9 870,577.3 869.3,577.1 864.8,575.7 "/>
<rect x="831.5" y="561.2" transform="matrix(0.2849 -0.9586 0.9586 0.2849 50.2765 1208.2589)" class="st7" width="6.9" height="18.6"/>
<polygon class="st7" points="785.6,552.2 772.2,548.2 770.1,554.7 783.6,558.7 "/>
<polygon class="st7" points="844.7,576.9 861,581.8 862.9,575.2 846.7,570.3 "/>
<polygon class="st5" points="890.5,502.3 890.6,501.9 886.5,500.7 886.4,501.1 "/>
<rect x="789.7" y="468.3" transform="matrix(0.2851 -0.9585 0.9585 0.2851 112.1024 1094.6721)" class="st5" width="0.4" height="7.7"/>
<polygon class="st5" points="868.8,495.9 884.6,500.6 884.7,500.2 868.9,495.5 "/>
<polygon class="st5" points="810.3,478.5 830,484.3 830.1,483.9 810.5,478.1 "/>
<rect x="839.6" y="478.9" transform="matrix(0.2847 -0.9586 0.9586 0.2847 133.7738 1153.432)" class="st5" width="0.4" height="16.4"/>
<polygon class="st5" points="808.6,477.6 795.5,473.7 795.4,474 808.5,477.9 "/>
<rect x="858" y="483.3" transform="matrix(0.2849 -0.9586 0.9586 0.2849 141.6182 1174.7617)" class="st5" width="0.4" height="18.4"/>
<polygon class="st8" points="812.6,471 812.6,471.1 810.5,478.1 830.1,483.9 832.2,476.9 833.7,469.6 814.4,463.9 "/>
<polygon class="st8" points="871,488.4 868.9,495.5 884.7,500.2 887,492.2 888.8,486 873.7,481.5 "/>
<polygon class="st8" points="890.6,486.6 888.9,492.7 886.5,500.7 890.6,501.9 893.5,502.8 893.6,502.6 897.7,488.7 897.7,488.7 "/>
<polygon class="st8" points="849.9,481.5 852.6,475.2 835.5,470.2 834.1,477.4 831.9,484.5 847.6,489.1 "/>
<polygon class="st8" points="793.6,473.1 795.8,466 798.1,459 790.4,456.8 789.8,456.6 785.6,470.7 785.6,470.7 786.2,470.9 "/>
<polygon class="st8" points="869.2,487.8 871.8,481 854.4,475.8 851.7,482.2 849.5,489.7 867.1,494.9 "/>
<polygon class="st8" points="810.8,470.5 812.6,463.4 799.9,459.6 797.7,466.6 795.5,473.7 808.6,477.6 "/>
<polygon class="st5" points="626.1,1515.4 626.1,1515.4 622.8,1514.4 "/>
<path class="st2" d="M448.3,1541.4c2.3,4.2,4.9,8.2,7.8,12.1l4-12.9c-1.1-1.8-2.3-3.6-3.3-5.5c-25-46.1-7.8-103.6,38.2-128.6
	c2.7-1.5,5.4-2.8,8.3-4l4-12.9c-5.5,1.9-10.8,4.2-15.9,6.9l-0.1,0.1c-0.8,0.4-1.6,1-2.4,1.4c-0.6,0.3-1.1,0.7-1.7,1l-0.9,0.5
	C437.9,1429.2,421.2,1491.5,448.3,1541.4L448.3,1541.4z"/>
<path class="st2" d="M542.9,1584.6c-7,0.2-13.9-0.3-20.8-1.7l-3.5,11.7c6.7,1.5,13.6,2.4,20.5,2.6L542.9,1584.6z"/>
<path class="st2" d="M516.7,1594.1l3.5-11.7c-2.4-0.5-4.7-1-7.1-1.7c-4.4-1.3-8.7-3-12.8-5l-3.5,11.3c4.8,2.3,9.9,4.3,15,5.8
	C513.5,1593.4,515.1,1593.7,516.7,1594.1z"/>
<path class="st2" d="M474.9,1558.6c-5.1-4.8-9.6-10.1-13.6-15.9l-3.9,12.6c4.1,5.4,8.8,10.4,13.9,15L474.9,1558.6z"/>
<path class="st2" d="M615.9,1432.9c18.3,23.9,23.9,55.1,15.2,83.9l-5-1.5l0,0l5,1.5c-8.2,28.5-29.6,51.4-57.4,61.7l-4.5,15.4
	c8-2.1,15.7-5,23-8.8c0.4-0.2,0.7-0.3,1.1-0.5c50.9-27.6,70.6-90.7,44.3-142.3c-0.5-0.9-0.8-1.7-1.3-2.6c-0.5-0.8-0.9-1.5-1.4-2.3
	c-4.1-7.1-9-13.7-14.6-19.7L615.9,1432.9z"/>
<path class="st2" d="M605.6,1404.5c-1.9-1.4-3.9-2.8-6-4.1l-3.8,12.8c7,5.1,13.2,11.1,18.6,17.8l4.3-15.1c-0.1-0.2-0.2-0.3-0.4-0.4
	C614.5,1411.5,610.2,1407.8,605.6,1404.5z"/>
<path class="st2" d="M530.8,1384.1l-3.6,11.8c8.6-1.2,17.2-1.2,25.8,0l3.4-11.3c-6.7-0.9-13.5-1.2-20.2-0.8
	C534.4,1383.9,532.6,1384,530.8,1384.1z"/>
<path class="st2" d="M541.1,1597.3c8.7,0.1,17.4-0.9,25.9-2.9l4.4-15.1c-8.5,3-17.5,4.7-26.5,5.2L541.1,1597.3z"/>
<path class="st2" d="M472.9,1571.7c6.8,5.8,14.2,10.7,22.2,14.6l3.4-11.3c-8-3.9-15.4-8.9-22-14.9L472.9,1571.7z"/>
<path class="st2" d="M594.2,1411.9l3.8-12.6c-5.8-3.5-11.9-6.5-18.3-8.9l-3.5,11.7C582.6,1404.7,588.6,1408,594.2,1411.9z"/>
<path class="st2" d="M528.7,1384.4c-3.1,0.4-6.2,0.9-9.2,1.6c-3.4,0.7-6.7,1.6-9.9,2.7l-4.1,12.9c6.3-2.5,12.9-4.3,19.6-5.4
	L528.7,1384.4z"/>
<path class="st2" d="M574.4,1401.4l3.5-11.7c-1.7-0.6-3.4-1.3-5.2-1.8c-4.7-1.4-9.6-2.4-14.4-3.1l-3.4,11.3
	c4.2,0.6,8.3,1.5,12.3,2.7C569.7,1399.6,572,1400.5,574.4,1401.4z"/>
<path class="st9" d="M525.2,1565.9l44.3-148c-2.4-1-4.8-1.8-7.2-2.6c-4.1-1.2-8.2-2-12.5-2.5l-44.4,146.2c4.1,2.1,8.3,3.8,12.7,5.1
	C520.4,1564.9,522.8,1565.4,525.2,1565.9z"/>
<path class="st9" d="M589,1429.5c-5.4-4.4-11.4-8-17.8-10.8l-44.1,147.4c6.9,1.2,14,1.5,21,0.7L589,1429.5z"/>
<path class="st9" d="M480.8,1539.7l38.4-124.5c-5.6,1.5-10.9,3.7-16,6.4c-1.7,0.9-3.3,1.9-4.9,3l-29.7,95.2c1,2.4,2.1,4.8,3.4,7.1
	C474.4,1531.4,477.4,1535.7,480.8,1539.7z"/>
<path class="st9" d="M614.5,1511.9c5.6-18.9,3.8-39.2-5.1-56.8l-29.4,101.1C596.7,1546.3,609,1530.5,614.5,1511.9z"/>
<path class="st9" d="M465.8,1467.7c-4.8,16.1-4.2,33.3,1.7,49.1l28.3-90.5C481.3,1436.2,470.8,1450.9,465.8,1467.7z"/>
<path class="st9" d="M590.6,1430.9l-40.4,135.8c9.4-1.2,18.5-4.2,26.9-8.7c0.2-0.1,0.4-0.2,0.6-0.3l30.5-105.1
	C603.7,1444.4,597.7,1437,590.6,1430.9z"/>
<path class="st9" d="M521.4,1414.6l-39.1,126.8c6,6.8,13.3,12.6,21.3,16.9l44.2-145.7C539,1411.7,530,1412.4,521.4,1414.6z"/>
<path class="st9" d="M548.1,1567c-7,0.7-14.1,0.5-21-0.7l-5,16.7c6.8,1.3,13.8,1.9,20.8,1.7L548.1,1567z"/>
<path class="st9" d="M520.2,1582.5l5-16.6c-2.4-0.5-4.8-1-7.1-1.7c-4.4-1.3-8.6-3-12.7-5.1l-5.1,16.7c4.2,2,8.4,3.6,12.8,5
	C515.5,1581.4,517.9,1581.9,520.2,1582.5z"/>
<path class="st9" d="M631.1,1516.8l-5-1.5l-3.3-1l3.3,1L631.1,1516.8c8.8-28.8,3.1-60-15.2-83.9l-6.5,22.2
	c18.2,36.2,5.4,80.3-29.4,101.1l-6.5,22.2C601.5,1568.2,622.8,1545.3,631.1,1516.8L631.1,1516.8z"/>
<path class="st9" d="M480.8,1539.7c-3.4-4-6.3-8.3-8.8-12.9c-1.2-2.3-2.4-4.7-3.4-7.1l-7.2,23c3.9,5.8,8.5,11.1,13.6,15.9
	L480.8,1539.7z"/>
<path class="st9" d="M527.2,1395.9l-5.8,18.7c8.6-2.2,17.6-2.9,26.5-2l5.1-16.7C544.4,1394.7,535.7,1394.7,527.2,1395.9z"/>
<path class="st9" d="M590.6,1430.9c7.1,6.1,13.1,13.4,17.6,21.7l6.3-21.6c-5.4-6.8-11.6-12.7-18.6-17.8L590.6,1430.9z"/>
<path class="st9" d="M449.2,1462.7c-7.2,24.1-4.5,50.1,7.5,72.2c1,1.9,2.2,3.7,3.3,5.5l7.4-23.7c-12.4-33.1-0.7-70.4,28.3-90.5
	l7.4-23.8c-2.8,1.2-5.6,2.5-8.3,4C472.8,1418.3,456.3,1438.6,449.2,1462.7z"/>
<path class="st9" d="M476.5,1560c6.6,6,14,11,22,14.9l5.1-16.7c-8.1-4.3-15.3-10-21.3-16.9L476.5,1560z"/>
<path class="st9" d="M550.2,1566.7l-5.3,17.8c9-0.5,18-2.2,26.5-5.2l6.3-21.6c-0.2,0.1-0.4,0.2-0.6,0.3
	C568.7,1562.5,559.6,1565.5,550.2,1566.7z"/>
<path class="st9" d="M519.2,1415.2l5.8-18.9c-6.7,1.1-13.3,2.8-19.6,5.3l-7.2,22.9c1.6-1,3.2-2,4.9-3
	C508.3,1418.8,513.6,1416.7,519.2,1415.2z"/>
<path class="st9" d="M569.5,1418l5-16.6c-2.4-1-4.8-1.8-7.3-2.6c-4-1.2-8.2-2.1-12.3-2.7l-5.1,16.7c4.2,0.5,8.4,1.4,12.5,2.5
	C564.7,1416.2,567.1,1417,569.5,1418z"/>
<path class="st9" d="M589,1429.5l5.2-17.6c-5.6-3.9-11.7-7.2-18-9.9l-5,16.7C577.6,1421.6,583.6,1425.2,589,1429.5z"/>
<path class="st10" d="M1024.9,192.2c-1.9,11.8,1.9,22.2,9.5,24.4c8.7,2.6,19.1-6.5,23.2-20.2c4.1-13.8,0.3-27-8.4-29.6
	c-7.4-2.2-16,4.1-20.9,14.5c-0.9,1.9-1.6,3.8-2.2,5.7C1025.5,188.8,1025.1,190.5,1024.9,192.2z"/>
<path class="st10" d="M815.5,223.2c1.7-11.6-2-21.8-9.6-24c-8.7-2.6-19.1,6.5-23.2,20.2c-4.1,13.8-0.3,27,8.4,29.6
	c7.5,2.2,16.2-4.2,21.1-14.9c0.8-1.7,1.5-3.5,2-5.3C814.8,227,815.2,225.1,815.5,223.2z"/>
<path class="st10" d="M996.3,288.8c-1.7,11.6,2.1,21.8,9.6,24c8.7,2.6,19.1-6.5,23.2-20.2c4.1-13.8,0.3-27-8.4-29.6
	c-7.5-2.2-16.2,4.2-21.1,14.9c-0.8,1.7-1.5,3.5-2,5.3C996.9,285,996.5,286.9,996.3,288.8z"/>
<path class="st10" d="M788.7,313.4c1.7-11.6-2.1-21.8-9.6-24c-8.7-2.6-19.1,6.4-23.2,20.2s-0.3,27,8.3,29.6
	c7.5,2.2,16.2-4.2,21.1-14.9c0.8-1.7,1.5-3.5,2-5.3C788,317.1,788.4,315.3,788.7,313.4z"/>
<path class="st10" d="M969.5,378.9c-1.7,11.6,2.1,21.8,9.6,24c8.7,2.6,19.1-6.5,23.2-20.2c4.1-13.8,0.3-27-8.4-29.6
	c-7.5-2.2-16.2,4.2-21.1,14.9c-0.8,1.7-1.5,3.5-2,5.3C970.1,375.1,969.7,377,969.5,378.9z"/>
<polygon class="st11" points="410.8,1773 406.2,1787.7 431.6,1795.2 436.1,1780.5 "/>
<polygon class="st11" points="565.5,1818.9 508.7,1802.1 504.4,1816.9 561.1,1833.7 "/>
<polygon class="st11" points="334.7,1766.4 384.8,1781.3 389.4,1766.6 339.1,1751.7 "/>
<polygon class="st11" points="460.7,1787.8 456.3,1802.6 476.2,1808.5 480.6,1793.7 "/>
<polygon class="st11" points="408.9,1772.4 391.2,1767.2 386.6,1781.9 404.4,1787.2 "/>
<polygon class="st11" points="437.9,1781 433.4,1795.8 454.5,1802 458.9,1787.3 "/>
<polygon class="st11" points="478.1,1809 502.6,1816.3 506.9,1801.5 482.5,1794.3 "/>
<polygon class="st12" points="920.1,385.3 925.7,365.9 928.9,355 928.9,355 928,354.8 927,354.5 927,354.5 923.9,365.4 918.2,384.8 
	916.5,390.7 890.5,480.1 888.8,486 887,492.2 884.7,500.2 884.6,500.6 884,502.4 862.9,575.2 861,581.8 842.9,644.1 841,650.7 
	823.4,711.4 821.4,718 804.5,776.5 802.6,783.1 785.1,843.2 783.2,849.8 767.2,905 765.3,911.6 749.1,967.2 747.2,973.9 
	733.5,1020.9 731.6,1027.6 720.6,1065.4 718.7,1072.1 708.8,1106.1 706.9,1112.7 697.2,1146 695.3,1152.6 686.2,1184 684.2,1190.6 
	674.9,1222.6 673,1229.3 664.7,1257.9 662.8,1264.5 654.9,1291.8 652.9,1298.4 646.1,1321.9 644.2,1328.5 637.2,1352.6 
	635.3,1359.2 629.1,1380.6 627.2,1387.2 620.8,1409 618.9,1415.6 618.8,1415.9 614.5,1431 608.2,1452.6 577.7,1557.7 571.4,1579.3 
	567,1594.4 515,1773.5 506.9,1801.5 502.6,1816.3 500.6,1823 502.5,1823.6 504.4,1816.9 508.7,1802.1 516.9,1774 569.2,1593.8 
	573.6,1578.4 580.1,1556.2 609.4,1455.1 615.9,1432.9 620.3,1417.5 620.8,1416.1 622.7,1409.5 629,1387.7 630.9,1381.1 
	637.1,1359.8 639,1353.1 646,1329.1 648,1322.4 654.8,1298.9 656.7,1292.3 664.6,1265.1 666.5,1258.4 674.9,1229.8 676.8,1223.1 
	686.1,1191.2 688,1184.5 697.1,1153.2 699,1146.5 708.7,1113.3 710.6,1106.6 720.5,1072.6 722.4,1066 733.4,1028.1 735.3,1021.5 
	749,974.4 750.9,967.8 767.1,912.1 769,905.5 785,850.3 787,843.7 804.4,783.6 806.3,777 823.3,718.6 825.2,712 842.8,651.3 
	844.7,644.6 862.8,582.3 864.8,575.7 885.9,502.9 886.4,501.1 886.5,500.7 888.9,492.7 890.6,486.6 892.4,480.6 918.4,391.2 "/>
<polygon class="st12" points="490.8,1766.3 541.1,1597.3 544.9,1584.5 550.2,1566.7 590.6,1430.9 595.9,1413.2 599.7,1400.3 
	605.5,1380.8 607.5,1374.2 613.8,1352.8 615.8,1346.2 622.9,1322.2 624.9,1315.6 631.9,1292.1 633.8,1285.5 642,1258.3 
	643.9,1251.7 652.4,1223.1 654.4,1216.5 663.9,1184.6 665.9,1178 675.2,1146.6 677.1,1140 687,1106.8 689,1100.2 699.1,1066.3 
	701.1,1059.6 712.3,1021.8 714.3,1015.2 728.3,968.2 730.2,961.6 746.8,906.1 748.7,899.5 765.1,844.4 767.1,837.8 784.9,777.8 
	786.9,771.2 804.2,712.9 806.2,706.3 824.2,645.7 826.2,639.1 844.7,576.9 846.7,570.3 868.3,497.7 868.8,495.9 868.9,495.5 
	871,488.4 873.7,481.5 875.8,475.7 909.4,387 911.8,380.8 918.2,363.7 922.3,353.1 951.6,275.5 955.6,264.9 954.7,264.6 
	953.9,264.3 953.8,264.3 949.8,275 920.4,352.5 916.4,363.2 910.3,379.3 907.9,385.6 874,475.2 871.8,481 869.2,487.8 867.1,494.9 
	867,495.3 866.4,497.2 844.8,569.8 842.9,576.4 824.4,638.6 822.4,645.2 804.4,705.8 802.4,712.4 785,770.7 783.1,777.3 
	765.2,837.3 763.3,843.9 746.9,898.9 744.9,905.5 728.4,961.1 726.4,967.7 712.5,1014.7 710.5,1021.3 699.2,1059.1 697.3,1065.7 
	687.2,1099.7 685.2,1106.3 675.3,1139.5 673.3,1146.1 664,1177.4 662.1,1184 652.6,1215.9 650.6,1222.6 642.1,1251.2 640.1,1257.8 
	632,1285 630.1,1291.6 623.1,1315 621.1,1321.7 614,1345.7 612,1352.3 605.6,1373.6 603.7,1380.2 598,1399.3 594.2,1411.9 
	589,1429.5 548.1,1567 542.9,1584.6 539.1,1597.2 489,1765.7 480.6,1793.7 476.2,1808.5 474.2,1815.2 476.1,1815.8 478.1,1809 
	482.5,1794.3 "/>
<polygon class="st12" points="852.6,475.2 849.9,481.5 847.6,489.1 847.5,489.5 847,491.4 825.2,564 823.2,570.5 804.6,632.7 
	802.6,639.3 784.5,699.9 782.5,706.5 765.1,764.8 763.1,771.3 745.2,831.3 743.2,837.9 726.7,892.9 724.7,899.5 708.1,955.1 
	706.1,961.7 692.1,1008.6 690.1,1015.2 678.8,1053 676.8,1059.6 666.6,1093.6 664.6,1100.2 654.7,1133.4 652.7,1140 643.4,1171.3 
	641.4,1177.9 631.8,1209.8 629.8,1216.4 621.3,1245 619.3,1251.6 611.2,1278.8 609.2,1285.4 602.2,1308.8 600.2,1315.4 593,1339.5 
	591,1346.1 584.6,1367.4 582.7,1374 577.9,1389.8 574.4,1401.4 569.5,1418 525.2,1565.9 520.2,1582.5 516.7,1594.1 467.3,1759.3 
	458.9,1787.3 454.5,1802 452.5,1808.7 454.3,1809.3 456.3,1802.6 460.7,1787.8 469.1,1759.8 518.6,1594.6 522.1,1582.9 
	527.1,1566.2 571.2,1418.8 576.2,1402.1 579.7,1390.4 584.5,1374.5 586.5,1367.9 592.9,1346.6 594.8,1340 602,1316 604,1309.4 
	611,1285.9 613,1279.3 621.1,1252.1 623.1,1245.5 631.7,1217 633.7,1210.3 643.2,1178.4 645.2,1171.8 654.6,1140.5 656.5,1133.9 
	666.5,1100.7 668.5,1094.1 678.6,1060.2 680.6,1053.6 691.9,1015.8 693.9,1009.2 708,962.2 709.9,955.6 726.6,900.1 728.5,893.5 
	745,838.4 747,831.8 764.9,771.9 766.9,765.3 784.4,707 786.3,700.4 804.5,639.9 806.5,633.3 825.1,571.1 827,564.5 848.8,491.9 
	849.3,490.1 849.5,489.7 851.7,482.2 854.4,475.8 856.8,470.1 900.3,367.5 918.6,324.1 940.6,272.2 945.1,261.7 980.1,178.9 
	983.7,170.6 981.9,169.8 981.9,169.8 978.3,178.4 943.2,261.2 938.8,271.7 923.5,307.7 902,358.6 855,469.5 "/>
<polygon class="st12" points="871,289.8 878.1,253.7 880.3,242.5 897.7,154.4 899.9,143.2 899.9,143.1 898.9,143 898,142.8 
	898,142.8 895.8,153.9 878.5,241.9 876.3,253.1 865.3,309.2 855.9,356.7 834.9,463.5 833.7,469.6 832.2,476.9 830.1,483.9 
	830,484.3 829.4,486.2 807.4,558.7 805.4,565.2 786.5,627.3 784.5,633.9 766.1,694.4 764.1,701 746.4,759.2 744.4,765.8 
	726.2,825.7 724.2,832.3 707.5,887.2 705.5,893.8 688.7,949.3 686.7,955.9 672.4,1002.8 670.4,1009.4 658.9,1047.1 656.9,1053.7 
	646.6,1087.6 644.6,1094.2 634.6,1127.4 632.5,1134 623,1165.2 621,1171.8 611.4,1203.7 609.3,1210.3 600.7,1238.9 598.7,1245.5 
	590.4,1272.6 588.4,1279.2 581.3,1302.6 579.3,1309.2 572,1333.2 570,1339.8 563.5,1361.1 561.5,1367.7 556.4,1384.6 552.9,1395.9 
	547.9,1412.6 503.6,1558.3 498.5,1574.9 495.1,1586.3 444.6,1752.5 436.1,1780.5 431.6,1795.2 429.5,1801.9 431.4,1802.5 
	433.4,1795.8 437.9,1781 446.4,1753.1 496.8,1587.1 500.3,1575.8 505.4,1559.1 549.8,1412.9 554.9,1396.2 558.3,1384.9 
	563.3,1368.2 565.3,1361.6 571.8,1340.3 573.8,1333.8 581.1,1309.8 583.1,1303.2 590.2,1279.8 592.2,1273.2 600.5,1246 
	602.5,1239.4 611.2,1210.9 613.2,1204.2 622.9,1172.4 624.9,1165.8 634.4,1134.5 636.4,1127.9 646.5,1094.8 648.5,1088.2 
	658.8,1054.3 660.8,1047.7 672.2,1009.9 674.3,1003.3 688.5,956.4 690.5,949.8 707.4,894.4 709.4,887.8 726.1,832.8 728.1,826.2 
	746.3,766.3 748.3,759.8 766,701.5 768,695 786.4,634.5 788.3,627.9 807.2,565.8 809.2,559.2 831.3,486.7 831.8,484.9 831.9,484.5 
	834.1,477.4 835.5,470.2 836.7,464.1 858.9,351.4 "/>
<polygon class="st12" points="419.4,1745 472.9,1571.7 476.5,1560 482.3,1541.4 521.4,1414.6 527.2,1395.9 530.8,1384.1 
	531.3,1382.4 538,1360.7 540.1,1354.1 546.6,1332.9 548.6,1326.3 556,1302.3 558.1,1295.7 565.3,1272.3 567.3,1265.8 575.7,1238.6 
	577.7,1232 586.5,1203.5 588.6,1196.9 598.4,1165.1 600.4,1158.5 610.1,1127.3 612.1,1120.7 622.3,1087.6 624.4,1081 634.8,1047.2 
	636.8,1040.6 648.5,1002.9 650.5,996.3 665,949.4 667,942.8 684.1,887.5 686.1,880.9 703.1,826 705.1,819.4 723.6,759.6 725.6,753 
	743.5,694.9 745.6,688.3 764.2,627.9 766.3,621.3 785.4,559.3 787.4,552.7 809.8,480.3 810.3,478.5 810.5,478.1 812.6,471.1 
	812.6,471 814.4,463.9 816,457.9 839.2,366 840.9,359.4 845.3,342 848.1,331 868.4,250.8 871.2,239.7 871.2,239.7 870.2,239.5 
	869.3,239.2 866.5,250.2 846.2,330.5 843.4,341.5 838.8,359.8 837.2,366 814.1,457.4 812.6,463.4 810.8,470.5 808.6,477.6 
	808.5,477.9 807.9,479.8 785.6,552.2 783.6,558.7 764.4,620.8 762.4,627.4 743.7,687.7 741.7,694.3 723.8,752.5 721.7,759 
	703.3,818.8 701.3,825.4 684.3,880.3 682.3,886.9 665.2,942.3 663.1,948.9 648.7,995.7 646.6,1002.3 635,1040 633,1046.6 
	622.5,1080.4 620.5,1087 610.3,1120.2 608.2,1126.8 598.6,1158 596.6,1164.5 586.7,1196.4 584.7,1203 575.9,1231.5 573.9,1238.1 
	565.5,1265.2 563.5,1271.8 556.2,1295.2 554.2,1301.8 546.8,1325.7 544.8,1332.3 538.2,1353.6 536.2,1360.2 529.5,1381.8 
	528.7,1384.4 525.1,1396.2 519.2,1415.2 480.8,1539.7 474.9,1558.6 471.3,1570.3 417.6,1744.5 408.9,1772.4 404.4,1787.2 
	402.3,1793.8 404.2,1794.4 406.2,1787.7 410.8,1773 "/>
<polygon class="st12" points="795.8,466 793.6,473.1 793.5,473.5 793,475.3 770.3,547.6 768.3,554.2 748.9,616.2 746.9,622.7 
	728,683.1 726,689.6 707.8,747.7 705.8,754.3 687.1,814 685,820.6 667.9,875.5 665.8,882 648.6,937.4 646.5,943.9 631.9,990.7 
	629.8,997.3 618,1035 616,1041.6 605.4,1075.4 603.4,1081.9 593,1115 591,1121.6 581.2,1152.8 579.2,1159.4 569.2,1191.2 
	567.2,1197.8 558.3,1226.2 556.2,1232.8 547.7,1259.9 545.7,1266.5 538.4,1289.9 536.3,1296.5 528.9,1320.4 526.8,1327 
	520.2,1348.2 518.1,1354.8 511.3,1376.4 509.3,1383 507.2,1389.6 503.2,1402.4 495.8,1426.2 467.5,1516.8 460.1,1540.5 456,1553.4 
	398.1,1738.7 389.4,1766.6 384.8,1781.3 382.7,1788 384.5,1788.6 386.6,1781.9 391.2,1767.2 399.9,1739.3 457.4,1555.3 
	461.4,1542.7 468.6,1519.7 498.3,1424.5 505.5,1401.6 509.5,1388.7 511.1,1383.6 513.2,1377 519.9,1355.3 522,1348.8 528.6,1327.5 
	530.7,1320.9 538.2,1297 540.2,1290.4 547.5,1267.1 549.6,1260.5 558,1233.4 560.1,1226.8 569,1198.3 571.1,1191.7 581,1159.9 
	583.1,1153.4 592.8,1122.2 594.9,1115.6 605.2,1082.5 607.3,1075.9 617.8,1042.1 619.9,1035.5 631.7,997.8 633.7,991.3 648.3,944.5 
	650.4,937.9 667.7,882.6 669.7,876 686.9,821.2 688.9,814.6 707.6,754.9 709.7,748.3 727.8,690.2 729.9,683.6 748.7,623.3 
	750.8,616.7 770.1,554.7 772.2,548.2 794.8,475.9 795.4,474 795.5,473.7 797.7,466.6 799.9,459.6 801.8,453.7 830,365 831.9,359.2 
	838,339.9 841.4,329.1 840.6,328.8 839.6,328.5 839.6,328.5 839.6,328.5 836.2,339.3 830.1,358.4 828.2,364.3 799.9,453.2 
	798.1,459 "/>
</svg>
