<svg id="Layer_1" data-name="Layer 1" xmlns="http://www.w3.org/2000/svg" viewBox="0 0 532.28 57.62"><path d="M24.67,45.21a1.83,1.83,0,0,1-1.32-.75l-.9-1.56a9.21,9.21,0,0,1-6.26,2.78c-.61,0-1.6.09-2.26.09s-1.65,0-2.26-.09c-5.37-.42-8.91-3.39-9-9.7-.09-4,.57-6.64,1.46-8.29-.42-.24-.52-.66-.52-1.51V21.75c0-5.84,4.62-9.65,9.75-10.31a63.9,63.9,0,0,1,6.83-.33,64.28,64.28,0,0,1,6.83.33c5.14.66,9.76,4.47,9.76,10.31v22a1.49,1.49,0,0,1-1.51,1.51ZM35.22,21.75c0-5.09-3.82-8.34-8.39-8.81a63.57,63.57,0,0,0-13.37,0c-4.57.47-8.39,3.72-8.39,8.81v2.07H19.3V19.44h1.55v5.89H11.67c-5.33,0-7.59,3.35-7.59,8.29,0,5.42,3.06,7.87,7.68,8.2a34.75,34.75,0,0,0,4.33,0c3.49-.24,5.33-1.7,6.5-4.1l2.08,3.63H35.22ZM19.3,29.38h1.55v5H19.3Z"/><path d="M36.07,13.37a1.49,1.49,0,0,1,1.51-1.51H48.74a1.87,1.87,0,0,1,1.32.8l.8,1.46a7.76,7.76,0,0,1,5.37-2.68c.8,0,1.84-.1,2.68-.1s1.79.05,2.64.1c4.29.33,7.91,3.48,7.91,9V43.7A1.48,1.48,0,0,1,68,45.21H60A7.94,7.94,0,0,1,53.54,42V43.7A1.49,1.49,0,0,1,52,45.21h-8a8,8,0,0,1-8-8Zm8,28h8V23H53.5V34.89A6.5,6.5,0,0,0,60,41.35h8v-21c0-4.53-3-7.16-6.5-7.45a30.9,30.9,0,0,0-5.09,0A7,7,0,0,0,50.72,17l-2-3.67H37.58V34.89A6.5,6.5,0,0,0,44.08,41.35Z"/><path d="M85.86,4.32a1.49,1.49,0,0,1,1.51,1.51v6h4.57a1.49,1.49,0,0,1,1.5,1.51V43.7a1.56,1.56,0,0,1-1.36,1.51c-1.84.19-4.76.33-7.73.33-1.55,0-3.25,0-4.61-.14A10.4,10.4,0,0,1,70,34.85V30.42a1.49,1.49,0,0,1-1.5-1.51V16.85a3.16,3.16,0,0,1,1-2.35l8.58-9.66a2.49,2.49,0,0,1,1.13-.52ZM70,16.24V26.56h1.51v5.93a8.94,8.94,0,0,0,8.39,9,76.76,76.76,0,0,0,12.06-.19V28.16H84.63V26.6h7.31V13.37H85.86V5.83H79.22Z"/><path d="M109.51,11.11a66,66,0,0,1,7,.33,11,11,0,0,1,9.85,9.65,54.28,54.28,0,0,1,.33,6.36c0,2.17-.1,6.6-.33,8.43-.75,5.37-4.33,9.14-9.85,9.75a65.75,65.75,0,0,1-7,.38,65.08,65.08,0,0,1-7-.38,11.24,11.24,0,0,1-9.8-9.75c-.24-1.83-.38-6.36-.38-8.57a49.82,49.82,0,0,1,.38-6.22,10.88,10.88,0,0,1,9.8-9.65A65.6,65.6,0,0,1,109.51,11.11ZM94.2,21.28a51.75,51.75,0,0,0,0,12.06,9.26,9.26,0,0,0,8.43,8.43,67.22,67.22,0,0,0,13.75,0,9.32,9.32,0,0,0,8.48-8.43,49.16,49.16,0,0,0,0-12.06,9.22,9.22,0,0,0-8.48-8.34,67.22,67.22,0,0,0-13.75,0A9.21,9.21,0,0,0,94.2,21.28Zm16.11,13.57h-1.56v-15h1.56Z"/><path d="M125.62,13.37a1.49,1.49,0,0,1,1.51-1.51h11.16a1.87,1.87,0,0,1,1.32.8l.8,1.46a7.76,7.76,0,0,1,5.37-2.68c.8,0,1.84-.1,2.68-.1s1.79.05,2.64.1c4.29.33,7.92,3.48,7.92,9V43.7a1.49,1.49,0,0,1-1.51,1.51h-8A7.94,7.94,0,0,1,143.09,42V43.7a1.49,1.49,0,0,1-1.5,1.51h-8a8,8,0,0,1-8-8Zm8,28h8V23h1.46V34.89a6.5,6.5,0,0,0,6.5,6.46h8v-21c0-4.53-3-7.16-6.5-7.45a30.9,30.9,0,0,0-5.09,0,7,7,0,0,0-5.65,4.1l-2-3.67H127.13V34.89A6.5,6.5,0,0,0,133.63,41.35Z"/><path d="M158.36,4a1.49,1.49,0,0,1,1.51-1.51h8.57c4.52,0,7.35,2.73,7.35,7.25v4.48c0,.85-.48,1.51-1.23,1.51.61.7,1.23,1.46,1.23,4.14V43.7a1.49,1.49,0,0,1-1.51,1.51h-7.87a8.07,8.07,0,0,1-8-8V13.37a1.47,1.47,0,0,1,.85-1.37,7.11,7.11,0,0,1-.85-3.77Zm7.2,7.86h8.72V9.69C174.28,6.11,172,4,168.44,4h-8.57V5.88C159.87,9.46,162,11.81,165.56,11.81Zm.85,29.54h7.87V19.82a6.49,6.49,0,0,0-6.45-6.45h-8V34.85A6.55,6.55,0,0,0,166.41,41.35Z"/><path d="M191.85,11.11a66.23,66.23,0,0,1,7,.33,11,11,0,0,1,9.84,9.65,52.19,52.19,0,0,1,.33,6.36c0,2.17-.09,6.6-.33,8.43-.75,5.37-4.33,9.14-9.84,9.75a66.09,66.09,0,0,1-7,.38,65.37,65.37,0,0,1-7-.38,11.25,11.25,0,0,1-9.8-9.75c-.23-1.83-.37-6.36-.37-8.57a51.91,51.91,0,0,1,.37-6.22,10.88,10.88,0,0,1,9.8-9.65A65.6,65.6,0,0,1,191.85,11.11ZM176.54,21.28a51.75,51.75,0,0,0,0,12.06A9.27,9.27,0,0,0,185,41.77a67.32,67.32,0,0,0,13.76,0,9.32,9.32,0,0,0,8.48-8.43,49.65,49.65,0,0,0,0-12.06,9.23,9.23,0,0,0-8.48-8.34,67.32,67.32,0,0,0-13.76,0A9.22,9.22,0,0,0,176.54,21.28Zm16.11,13.57H191.1v-15h1.55Z"/><path d="M224.92,11.39c4.19,0,8.48.19,12.39.38.7,0,1.41.09,2.07.09a1.49,1.49,0,0,1,1.51,1.51V25.9a9.81,9.81,0,0,1-3.72,7.72,9.55,9.55,0,0,1,4.19,8v2a10.64,10.64,0,0,1-9.8,10.83,70.26,70.26,0,0,1-7,.33,69.84,69.84,0,0,1-7-.33,10.77,10.77,0,0,1-9.75-10.83v-2a1.49,1.49,0,0,1,1.51-1.51h.66a12.67,12.67,0,0,1-2.21-6.12c-.15-1.61-.24-5.7-.24-7.4s.09-3.44.24-5.09c.56-5.08,4.56-9.61,9.84-9.94C220,11.48,222.47,11.39,224.92,11.39ZM209.23,21.71a57.74,57.74,0,0,0,0,9.84c.43,5.09,3,8.62,8.43,8.62h7.45V43.7H223.6v-2H209.28a2.12,2.12,0,0,0-.05.56c0,4.57,3.87,8,8.43,8.39a75.29,75.29,0,0,0,13.76,0c4.62-.43,8.43-3.82,8.43-8.39v-.61a8.26,8.26,0,0,0-8.43-8.2H219.78v-1.5H231a8.42,8.42,0,0,0,8.43-8.39V13.37a205.6,205.6,0,0,0-21.72-.24A9.14,9.14,0,0,0,209.23,21.71ZM225.11,25H223.6V20.24h1.51Z"/><path d="M273.39,43.7a1.49,1.49,0,0,1-1.51,1.51h-11a1.85,1.85,0,0,1-1.32-.8l-.8-1.51a8.83,8.83,0,0,1-5.32,2.73,20.73,20.73,0,0,1-2.64.14,27,27,0,0,1-3-.14,8.66,8.66,0,0,1-7.87-9V13.37a1.49,1.49,0,0,1,1.51-1.51h8a8,8,0,0,1,6.46,3.25V13.37a1.49,1.49,0,0,1,1.5-1.51h8a8,8,0,0,1,8,8Zm-8-30.33h-8V31.74H256V19.82a6.5,6.5,0,0,0-6.5-6.45h-8v21c0,4.52,3,7.16,6.5,7.44a28.22,28.22,0,0,0,5.28,0,7.06,7.06,0,0,0,5.65-4.1l2,3.68h11V19.82A6.5,6.5,0,0,0,265.38,13.37Z"/><path d="M272.73,4a1.49,1.49,0,0,1,1.51-1.51h8.57c4.53,0,7.35,2.73,7.35,7.25v4.48c0,.85-.47,1.51-1.22,1.51.61.7,1.22,1.46,1.22,4.14V43.7a1.49,1.49,0,0,1-1.51,1.51h-7.86a8.08,8.08,0,0,1-8.06-8V13.37a1.47,1.47,0,0,1,.85-1.37,7.21,7.21,0,0,1-.85-3.77Zm7.21,7.86h8.71V9.69c0-3.58-2.26-5.74-5.84-5.74h-8.57V5.88C274.24,9.46,276.41,11.81,279.94,11.81Zm.85,29.54h7.86V19.82a6.49,6.49,0,0,0-6.45-6.45h-8V34.85A6.56,6.56,0,0,0,280.79,41.35Z"/><path d="M306.23,11.11a66,66,0,0,1,7,.33,11,11,0,0,1,9.85,9.65,54.28,54.28,0,0,1,.33,6.36c0,2.17-.1,6.6-.33,8.43-.76,5.37-4.34,9.14-9.85,9.75a65.75,65.75,0,0,1-7,.38,65.08,65.08,0,0,1-7-.38,11.24,11.24,0,0,1-9.8-9.75c-.24-1.83-.38-6.36-.38-8.57a49.82,49.82,0,0,1,.38-6.22,10.88,10.88,0,0,1,9.8-9.65A65.6,65.6,0,0,1,306.23,11.11ZM290.92,21.28a51.75,51.75,0,0,0,0,12.06,9.26,9.26,0,0,0,8.43,8.43,67.22,67.22,0,0,0,13.75,0,9.32,9.32,0,0,0,8.48-8.43,49.16,49.16,0,0,0,0-12.06,9.22,9.22,0,0,0-8.48-8.34,67.22,67.22,0,0,0-13.75,0A9.21,9.21,0,0,0,290.92,21.28ZM307,34.85h-1.56v-15H307Z"/><path d="M339.39,4.32a1.49,1.49,0,0,1,1.51,1.51v6h4.56A1.49,1.49,0,0,1,347,13.37V43.7a1.56,1.56,0,0,1-1.36,1.51c-1.84.19-4.76.33-7.73.33-1.55,0-3.25,0-4.62-.14a10.4,10.4,0,0,1-9.75-10.55V30.42a1.49,1.49,0,0,1-1.5-1.51V16.85a3.16,3.16,0,0,1,1-2.35l8.58-9.66a2.4,2.4,0,0,1,1.13-.52ZM323.51,16.24V26.56H325v5.93a8.94,8.94,0,0,0,8.39,9,76.61,76.61,0,0,0,12-.19V28.16h-7.3V26.6h7.3V13.37h-6.07V5.83h-6.64Z"/><path d="M363.37,4.32a1.49,1.49,0,0,1,1.5,1.51v6h4.57A1.49,1.49,0,0,1,371,13.37V43.7a1.56,1.56,0,0,1-1.37,1.51c-1.83.19-4.75.33-7.72.33-1.56,0-3.25,0-4.62-.14a10.4,10.4,0,0,1-9.75-10.55V30.42A1.49,1.49,0,0,1,346,28.91V16.85a3.17,3.17,0,0,1,1-2.35l8.57-9.66a2.49,2.49,0,0,1,1.13-.52ZM347.49,16.24V26.56H349v5.93a8.93,8.93,0,0,0,8.38,9,76.73,76.73,0,0,0,12.06-.19V28.16h-7.3V26.6h7.3V13.37h-6.07V5.83h-6.65Z"/><path d="M387,11.11a66.1,66.1,0,0,1,7,.33,11,11,0,0,1,9.85,9.65,54.28,54.28,0,0,1,.33,6.36c0,2.17-.1,6.6-.33,8.43-.76,5.37-4.34,9.14-9.85,9.75a65.8,65.8,0,0,1-7,.38,65,65,0,0,1-7-.38,11.23,11.23,0,0,1-9.8-9.75c-.24-1.83-.38-6.36-.38-8.57a49.82,49.82,0,0,1,.38-6.22,10.87,10.87,0,0,1,9.8-9.65A65.41,65.41,0,0,1,387,11.11Zm-15.3,10.17a50.68,50.68,0,0,0,0,12.06,9.26,9.26,0,0,0,8.43,8.43,67.22,67.22,0,0,0,13.75,0,9.32,9.32,0,0,0,8.48-8.43,49.16,49.16,0,0,0,0-12.06,9.23,9.23,0,0,0-8.48-8.34,67.22,67.22,0,0,0-13.75,0A9.21,9.21,0,0,0,371.71,21.28Zm16.1,13.57h-1.55v-15h1.55Z"/><path d="M403.13,31a1.49,1.49,0,0,1,1.5-1.5h8.58c4.52,0,7.34,2.68,7.34,7.16v7.11a1.49,1.49,0,0,1-1.5,1.51h-8.81c-4.43,0-7.11-3-7.11-7.49Zm7.11,10.41h8.81V36.64c0-3.54-2.26-5.66-5.84-5.66h-8.58v4.43C404.63,39,406.75,41.39,410.24,41.39Z"/><path d="M436.66,11.39c3.91,0,7.78.19,11,.47A1.53,1.53,0,0,1,449,13.37V43.7a1.53,1.53,0,0,1-1.36,1.51c-3.25.28-7.11.47-11,.47-2.41,0-4.9,0-7.12-.23-5.55-.57-9-4.15-9.7-9.71-.23-1.79-.38-6.31-.38-8.43a50.07,50.07,0,0,1,.38-6.08,10.6,10.6,0,0,1,9.7-9.61C431.77,11.44,434.21,11.39,436.66,11.39Zm-15.35,10a49.38,49.38,0,0,0,0,11.78c.56,4.61,3.77,8,8.34,8.38a112.11,112.11,0,0,0,17.85-.23V28.11H434.4V26.6h13.1V13.37a112,112,0,0,0-17.85-.24A9.08,9.08,0,0,0,421.31,21.42Z"/><path d="M465.07,11.11a66.36,66.36,0,0,1,7,.33,11,11,0,0,1,9.84,9.65,52.19,52.19,0,0,1,.33,6.36c0,2.17-.09,6.6-.33,8.43-.75,5.37-4.33,9.14-9.84,9.75a66.09,66.09,0,0,1-7,.38,65.37,65.37,0,0,1-7-.38,11.25,11.25,0,0,1-9.8-9.75c-.23-1.83-.37-6.36-.37-8.57a51.91,51.91,0,0,1,.37-6.22,10.88,10.88,0,0,1,9.8-9.65A65.72,65.72,0,0,1,465.07,11.11ZM449.76,21.28a51.75,51.75,0,0,0,0,12.06,9.27,9.27,0,0,0,8.43,8.43,67.32,67.32,0,0,0,13.76,0,9.32,9.32,0,0,0,8.48-8.43,49.65,49.65,0,0,0,0-12.06A9.23,9.23,0,0,0,472,12.94a67.32,67.32,0,0,0-13.76,0A9.22,9.22,0,0,0,449.76,21.28Zm16.11,13.57h-1.55v-15h1.55Z"/><path d="M517.64,11.44c.75,0,1.65-.1,2.45-.1s1.74.05,2.49.1c4.29.42,7.87,3.53,7.87,9V43.7a1.49,1.49,0,0,1-1.51,1.51H521a8,8,0,0,1-6.45-3.3V43.7a1.49,1.49,0,0,1-1.51,1.51h-8A7.92,7.92,0,0,1,498.66,42V43.7a1.49,1.49,0,0,1-1.51,1.51h-8a8,8,0,0,1-8-8V13.37a1.49,1.49,0,0,1,1.51-1.51h11.16a1.85,1.85,0,0,1,1.32.8l.8,1.46a7.8,7.8,0,0,1,5.37-2.68c.8,0,1.84-.1,2.69-.1s1.79.05,2.63.1a8.39,8.39,0,0,1,5.52,2.63,8.45,8.45,0,0,1,5.41-2.63Zm-5.46,5.13a7,7,0,0,0-5.61-3.63,30.9,30.9,0,0,0-5.09,0,7,7,0,0,0-5.65,4.1l-2-3.67H482.69V34.89a6.5,6.5,0,0,0,6.5,6.46h8V23h1.46V34.89a6.5,6.5,0,0,0,6.5,6.46h8V23h1.46V34.89a6.54,6.54,0,0,0,6.5,6.46h7.91v-21c0-4.53-2.92-7.12-6.45-7.45a27,27,0,0,0-4.76,0A7.39,7.39,0,0,0,512.18,16.57Z"/></svg>